<?xml version="1.0" encoding="utf-8" standalone="no"?>
<!DOCTYPE svg PUBLIC "-//W3C//DTD SVG 1.1//EN"
  "http://www.w3.org/Graphics/SVG/1.1/DTD/svg11.dtd">
<svg xmlns:xlink="http://www.w3.org/1999/xlink" width="1006.45pt" height="960.786458pt" viewBox="0 0 1006.45 960.786458" xmlns="http://www.w3.org/2000/svg" version="1.1">
 <metadata>
  <rdf:RDF xmlns:dc="http://purl.org/dc/elements/1.1/" xmlns:cc="http://creativecommons.org/ns#" xmlns:rdf="http://www.w3.org/1999/02/22-rdf-syntax-ns#">
   <cc:Work>
    <dc:type rdf:resource="http://purl.org/dc/dcmitype/StillImage"/>
    <dc:date>2025-02-26T17:29:27.670861</dc:date>
    <dc:format>image/svg+xml</dc:format>
    <dc:creator>
     <cc:Agent>
      <dc:title>Matplotlib v3.10.0, https://matplotlib.org/</dc:title>
     </cc:Agent>
    </dc:creator>
   </cc:Work>
  </rdf:RDF>
 </metadata>
 <defs>
  <style type="text/css">*{stroke-linejoin: round; stroke-linecap: butt}</style>
 </defs>
 <g id="figure_1">
  <g id="patch_1">
   <path d="M 0 960.786458 
L 1006.45 960.786458 
L 1006.45 0 
L 0 0 
z
" style="fill: #ffffff"/>
  </g>
  <g id="axes_1">
   <g id="patch_2">
    <path d="M 136.8 368.765217 
L 500.713043 368.765217 
L 500.713043 7.2 
L 136.8 7.2 
z
" style="fill: #ffffff"/>
   </g>
   <g id="matplotlib.axis_1">
    <g id="xtick_1">
     <g id="line2d_1">
      <defs>
       <path id="m424d229e8a" d="M 0 0 
L 0 3.5 
" style="stroke: #000000; stroke-width: 0.8"/>
      </defs>
      <g>
       <use xlink:href="#m424d229e8a" x="136.8" y="368.765217" style="stroke: #000000; stroke-width: 0.8"/>
      </g>
     </g>
     <g id="text_1">
      <!-- Jan -->
      <g transform="translate(121.384375 397.462092) scale(0.2 -0.2)">
       <defs>
        <path id="DejaVuSans-4a" d="M 628 4666 
L 1259 4666 
L 1259 325 
Q 1259 -519 939 -900 
Q 619 -1281 -91 -1281 
L -331 -1281 
L -331 -750 
L -134 -750 
Q 284 -750 456 -515 
Q 628 -281 628 325 
L 628 4666 
z
" transform="scale(0.015625)"/>
        <path id="DejaVuSans-61" d="M 2194 1759 
Q 1497 1759 1228 1600 
Q 959 1441 959 1056 
Q 959 750 1161 570 
Q 1363 391 1709 391 
Q 2188 391 2477 730 
Q 2766 1069 2766 1631 
L 2766 1759 
L 2194 1759 
z
M 3341 1997 
L 3341 0 
L 2766 0 
L 2766 531 
Q 2569 213 2275 61 
Q 1981 -91 1556 -91 
Q 1019 -91 701 211 
Q 384 513 384 1019 
Q 384 1609 779 1909 
Q 1175 2209 1959 2209 
L 2766 2209 
L 2766 2266 
Q 2766 2663 2505 2880 
Q 2244 3097 1772 3097 
Q 1472 3097 1187 3025 
Q 903 2953 641 2809 
L 641 3341 
Q 956 3463 1253 3523 
Q 1550 3584 1831 3584 
Q 2591 3584 2966 3190 
Q 3341 2797 3341 1997 
z
" transform="scale(0.015625)"/>
        <path id="DejaVuSans-6e" d="M 3513 2113 
L 3513 0 
L 2938 0 
L 2938 2094 
Q 2938 2591 2744 2837 
Q 2550 3084 2163 3084 
Q 1697 3084 1428 2787 
Q 1159 2491 1159 1978 
L 1159 0 
L 581 0 
L 581 3500 
L 1159 3500 
L 1159 2956 
Q 1366 3272 1645 3428 
Q 1925 3584 2291 3584 
Q 2894 3584 3203 3211 
Q 3513 2838 3513 2113 
z
" transform="scale(0.015625)"/>
       </defs>
       <use xlink:href="#DejaVuSans-4a"/>
       <use xlink:href="#DejaVuSans-61" transform="translate(29.492188 0)"/>
       <use xlink:href="#DejaVuSans-6e" transform="translate(90.771484 0)"/>
      </g>
     </g>
    </g>
    <g id="xtick_2">
     <g id="line2d_2">
      <g>
       <use xlink:href="#m424d229e8a" x="262.147826" y="368.765217" style="stroke: #000000; stroke-width: 0.8"/>
      </g>
     </g>
     <g id="text_2">
      <!-- Feb -->
      <g transform="translate(244.444701 397.462092) scale(0.2 -0.2)">
       <defs>
        <path id="DejaVuSans-46" d="M 628 4666 
L 3309 4666 
L 3309 4134 
L 1259 4134 
L 1259 2759 
L 3109 2759 
L 3109 2228 
L 1259 2228 
L 1259 0 
L 628 0 
L 628 4666 
z
" transform="scale(0.015625)"/>
        <path id="DejaVuSans-65" d="M 3597 1894 
L 3597 1613 
L 953 1613 
Q 991 1019 1311 708 
Q 1631 397 2203 397 
Q 2534 397 2845 478 
Q 3156 559 3463 722 
L 3463 178 
Q 3153 47 2828 -22 
Q 2503 -91 2169 -91 
Q 1331 -91 842 396 
Q 353 884 353 1716 
Q 353 2575 817 3079 
Q 1281 3584 2069 3584 
Q 2775 3584 3186 3129 
Q 3597 2675 3597 1894 
z
M 3022 2063 
Q 3016 2534 2758 2815 
Q 2500 3097 2075 3097 
Q 1594 3097 1305 2825 
Q 1016 2553 972 2059 
L 3022 2063 
z
" transform="scale(0.015625)"/>
        <path id="DejaVuSans-62" d="M 3116 1747 
Q 3116 2381 2855 2742 
Q 2594 3103 2138 3103 
Q 1681 3103 1420 2742 
Q 1159 2381 1159 1747 
Q 1159 1113 1420 752 
Q 1681 391 2138 391 
Q 2594 391 2855 752 
Q 3116 1113 3116 1747 
z
M 1159 2969 
Q 1341 3281 1617 3432 
Q 1894 3584 2278 3584 
Q 2916 3584 3314 3078 
Q 3713 2572 3713 1747 
Q 3713 922 3314 415 
Q 2916 -91 2278 -91 
Q 1894 -91 1617 61 
Q 1341 213 1159 525 
L 1159 0 
L 581 0 
L 581 4863 
L 1159 4863 
L 1159 2969 
z
" transform="scale(0.015625)"/>
       </defs>
       <use xlink:href="#DejaVuSans-46"/>
       <use xlink:href="#DejaVuSans-65" transform="translate(52.019531 0)"/>
       <use xlink:href="#DejaVuSans-62" transform="translate(113.542969 0)"/>
      </g>
     </g>
    </g>
    <g id="xtick_3">
     <g id="line2d_3">
      <g>
       <use xlink:href="#m424d229e8a" x="375.365217" y="368.765217" style="stroke: #000000; stroke-width: 0.8"/>
      </g>
     </g>
     <g id="text_3">
      <!-- Mar -->
      <g transform="translate(356.49803 397.462092) scale(0.2 -0.2)">
       <defs>
        <path id="DejaVuSans-4d" d="M 628 4666 
L 1569 4666 
L 2759 1491 
L 3956 4666 
L 4897 4666 
L 4897 0 
L 4281 0 
L 4281 4097 
L 3078 897 
L 2444 897 
L 1241 4097 
L 1241 0 
L 628 0 
L 628 4666 
z
" transform="scale(0.015625)"/>
        <path id="DejaVuSans-72" d="M 2631 2963 
Q 2534 3019 2420 3045 
Q 2306 3072 2169 3072 
Q 1681 3072 1420 2755 
Q 1159 2438 1159 1844 
L 1159 0 
L 581 0 
L 581 3500 
L 1159 3500 
L 1159 2956 
Q 1341 3275 1631 3429 
Q 1922 3584 2338 3584 
Q 2397 3584 2469 3576 
Q 2541 3569 2628 3553 
L 2631 2963 
z
" transform="scale(0.015625)"/>
       </defs>
       <use xlink:href="#DejaVuSans-4d"/>
       <use xlink:href="#DejaVuSans-61" transform="translate(86.279297 0)"/>
       <use xlink:href="#DejaVuSans-72" transform="translate(147.558594 0)"/>
      </g>
     </g>
    </g>
    <g id="xtick_4">
     <g id="line2d_4">
      <g>
       <use xlink:href="#m424d229e8a" x="500.713043" y="368.765217" style="stroke: #000000; stroke-width: 0.8"/>
      </g>
     </g>
     <g id="text_4">
      <!-- Apr -->
      <g transform="translate(483.413043 397.462092) scale(0.2 -0.2)">
       <defs>
        <path id="DejaVuSans-41" d="M 2188 4044 
L 1331 1722 
L 3047 1722 
L 2188 4044 
z
M 1831 4666 
L 2547 4666 
L 4325 0 
L 3669 0 
L 3244 1197 
L 1141 1197 
L 716 0 
L 50 0 
L 1831 4666 
z
" transform="scale(0.015625)"/>
        <path id="DejaVuSans-70" d="M 1159 525 
L 1159 -1331 
L 581 -1331 
L 581 3500 
L 1159 3500 
L 1159 2969 
Q 1341 3281 1617 3432 
Q 1894 3584 2278 3584 
Q 2916 3584 3314 3078 
Q 3713 2572 3713 1747 
Q 3713 922 3314 415 
Q 2916 -91 2278 -91 
Q 1894 -91 1617 61 
Q 1341 213 1159 525 
z
M 3116 1747 
Q 3116 2381 2855 2742 
Q 2594 3103 2138 3103 
Q 1681 3103 1420 2742 
Q 1159 2381 1159 1747 
Q 1159 1113 1420 752 
Q 1681 391 2138 391 
Q 2594 391 2855 752 
Q 3116 1113 3116 1747 
z
" transform="scale(0.015625)"/>
       </defs>
       <use xlink:href="#DejaVuSans-41"/>
       <use xlink:href="#DejaVuSans-70" transform="translate(68.408203 0)"/>
       <use xlink:href="#DejaVuSans-72" transform="translate(131.884766 0)"/>
      </g>
     </g>
    </g>
    <g id="text_5">
     <!-- Time -->
     <g transform="translate(294.289334 426.818342) scale(0.2 -0.2)">
      <defs>
       <path id="DejaVuSans-54" d="M -19 4666 
L 3928 4666 
L 3928 4134 
L 2272 4134 
L 2272 0 
L 1638 0 
L 1638 4134 
L -19 4134 
L -19 4666 
z
" transform="scale(0.015625)"/>
       <path id="DejaVuSans-69" d="M 603 3500 
L 1178 3500 
L 1178 0 
L 603 0 
L 603 3500 
z
M 603 4863 
L 1178 4863 
L 1178 4134 
L 603 4134 
L 603 4863 
z
" transform="scale(0.015625)"/>
       <path id="DejaVuSans-6d" d="M 3328 2828 
Q 3544 3216 3844 3400 
Q 4144 3584 4550 3584 
Q 5097 3584 5394 3201 
Q 5691 2819 5691 2113 
L 5691 0 
L 5113 0 
L 5113 2094 
Q 5113 2597 4934 2840 
Q 4756 3084 4391 3084 
Q 3944 3084 3684 2787 
Q 3425 2491 3425 1978 
L 3425 0 
L 2847 0 
L 2847 2094 
Q 2847 2600 2669 2842 
Q 2491 3084 2119 3084 
Q 1678 3084 1418 2786 
Q 1159 2488 1159 1978 
L 1159 0 
L 581 0 
L 581 3500 
L 1159 3500 
L 1159 2956 
Q 1356 3278 1631 3431 
Q 1906 3584 2284 3584 
Q 2666 3584 2933 3390 
Q 3200 3197 3328 2828 
z
" transform="scale(0.015625)"/>
      </defs>
      <use xlink:href="#DejaVuSans-54"/>
      <use xlink:href="#DejaVuSans-69" transform="translate(57.958984 0)"/>
      <use xlink:href="#DejaVuSans-6d" transform="translate(85.742188 0)"/>
      <use xlink:href="#DejaVuSans-65" transform="translate(183.154297 0)"/>
     </g>
    </g>
   </g>
   <g id="matplotlib.axis_2">
    <g id="ytick_1">
     <g id="line2d_5">
      <defs>
       <path id="mceb3236efb" d="M 0 0 
L -3.5 0 
" style="stroke: #000000; stroke-width: 0.8"/>
      </defs>
      <g>
       <use xlink:href="#mceb3236efb" x="136.8" y="368.765217" style="stroke: #000000; stroke-width: 0.8"/>
      </g>
     </g>
     <g id="text_6">
      <!-- 0 -->
      <g transform="translate(110.575 376.363655) scale(0.2 -0.2)">
       <defs>
        <path id="DejaVuSans-30" d="M 2034 4250 
Q 1547 4250 1301 3770 
Q 1056 3291 1056 2328 
Q 1056 1369 1301 889 
Q 1547 409 2034 409 
Q 2525 409 2770 889 
Q 3016 1369 3016 2328 
Q 3016 3291 2770 3770 
Q 2525 4250 2034 4250 
z
M 2034 4750 
Q 2819 4750 3233 4129 
Q 3647 3509 3647 2328 
Q 3647 1150 3233 529 
Q 2819 -91 2034 -91 
Q 1250 -91 836 529 
Q 422 1150 422 2328 
Q 422 3509 836 4129 
Q 1250 4750 2034 4750 
z
" transform="scale(0.015625)"/>
       </defs>
       <use xlink:href="#DejaVuSans-30"/>
      </g>
     </g>
    </g>
    <g id="ytick_2">
     <g id="line2d_6">
      <g>
       <use xlink:href="#mceb3236efb" x="136.8" y="296.452174" style="stroke: #000000; stroke-width: 0.8"/>
      </g>
     </g>
     <g id="text_7">
      <!-- 1000 -->
      <g transform="translate(72.4 304.050611) scale(0.2 -0.2)">
       <defs>
        <path id="DejaVuSans-31" d="M 794 531 
L 1825 531 
L 1825 4091 
L 703 3866 
L 703 4441 
L 1819 4666 
L 2450 4666 
L 2450 531 
L 3481 531 
L 3481 0 
L 794 0 
L 794 531 
z
" transform="scale(0.015625)"/>
       </defs>
       <use xlink:href="#DejaVuSans-31"/>
       <use xlink:href="#DejaVuSans-30" transform="translate(63.623047 0)"/>
       <use xlink:href="#DejaVuSans-30" transform="translate(127.246094 0)"/>
       <use xlink:href="#DejaVuSans-30" transform="translate(190.869141 0)"/>
      </g>
     </g>
    </g>
    <g id="ytick_3">
     <g id="line2d_7">
      <g>
       <use xlink:href="#mceb3236efb" x="136.8" y="224.13913" style="stroke: #000000; stroke-width: 0.8"/>
      </g>
     </g>
     <g id="text_8">
      <!-- 2000 -->
      <g transform="translate(72.4 231.737568) scale(0.2 -0.2)">
       <defs>
        <path id="DejaVuSans-32" d="M 1228 531 
L 3431 531 
L 3431 0 
L 469 0 
L 469 531 
Q 828 903 1448 1529 
Q 2069 2156 2228 2338 
Q 2531 2678 2651 2914 
Q 2772 3150 2772 3378 
Q 2772 3750 2511 3984 
Q 2250 4219 1831 4219 
Q 1534 4219 1204 4116 
Q 875 4013 500 3803 
L 500 4441 
Q 881 4594 1212 4672 
Q 1544 4750 1819 4750 
Q 2544 4750 2975 4387 
Q 3406 4025 3406 3419 
Q 3406 3131 3298 2873 
Q 3191 2616 2906 2266 
Q 2828 2175 2409 1742 
Q 1991 1309 1228 531 
z
" transform="scale(0.015625)"/>
       </defs>
       <use xlink:href="#DejaVuSans-32"/>
       <use xlink:href="#DejaVuSans-30" transform="translate(63.623047 0)"/>
       <use xlink:href="#DejaVuSans-30" transform="translate(127.246094 0)"/>
       <use xlink:href="#DejaVuSans-30" transform="translate(190.869141 0)"/>
      </g>
     </g>
    </g>
    <g id="ytick_4">
     <g id="line2d_8">
      <g>
       <use xlink:href="#mceb3236efb" x="136.8" y="151.826087" style="stroke: #000000; stroke-width: 0.8"/>
      </g>
     </g>
     <g id="text_9">
      <!-- 3000 -->
      <g transform="translate(72.4 159.424524) scale(0.2 -0.2)">
       <defs>
        <path id="DejaVuSans-33" d="M 2597 2516 
Q 3050 2419 3304 2112 
Q 3559 1806 3559 1356 
Q 3559 666 3084 287 
Q 2609 -91 1734 -91 
Q 1441 -91 1130 -33 
Q 819 25 488 141 
L 488 750 
Q 750 597 1062 519 
Q 1375 441 1716 441 
Q 2309 441 2620 675 
Q 2931 909 2931 1356 
Q 2931 1769 2642 2001 
Q 2353 2234 1838 2234 
L 1294 2234 
L 1294 2753 
L 1863 2753 
Q 2328 2753 2575 2939 
Q 2822 3125 2822 3475 
Q 2822 3834 2567 4026 
Q 2313 4219 1838 4219 
Q 1578 4219 1281 4162 
Q 984 4106 628 3988 
L 628 4550 
Q 988 4650 1302 4700 
Q 1616 4750 1894 4750 
Q 2613 4750 3031 4423 
Q 3450 4097 3450 3541 
Q 3450 3153 3228 2886 
Q 3006 2619 2597 2516 
z
" transform="scale(0.015625)"/>
       </defs>
       <use xlink:href="#DejaVuSans-33"/>
       <use xlink:href="#DejaVuSans-30" transform="translate(63.623047 0)"/>
       <use xlink:href="#DejaVuSans-30" transform="translate(127.246094 0)"/>
       <use xlink:href="#DejaVuSans-30" transform="translate(190.869141 0)"/>
      </g>
     </g>
    </g>
    <g id="ytick_5">
     <g id="line2d_9">
      <g>
       <use xlink:href="#mceb3236efb" x="136.8" y="79.513043" style="stroke: #000000; stroke-width: 0.8"/>
      </g>
     </g>
     <g id="text_10">
      <!-- 4000 -->
      <g transform="translate(72.4 87.111481) scale(0.2 -0.2)">
       <defs>
        <path id="DejaVuSans-34" d="M 2419 4116 
L 825 1625 
L 2419 1625 
L 2419 4116 
z
M 2253 4666 
L 3047 4666 
L 3047 1625 
L 3713 1625 
L 3713 1100 
L 3047 1100 
L 3047 0 
L 2419 0 
L 2419 1100 
L 313 1100 
L 313 1709 
L 2253 4666 
z
" transform="scale(0.015625)"/>
       </defs>
       <use xlink:href="#DejaVuSans-34"/>
       <use xlink:href="#DejaVuSans-30" transform="translate(63.623047 0)"/>
       <use xlink:href="#DejaVuSans-30" transform="translate(127.246094 0)"/>
       <use xlink:href="#DejaVuSans-30" transform="translate(190.869141 0)"/>
      </g>
     </g>
    </g>
    <g id="text_11">
     <!-- Count -->
     <g transform="translate(58.240625 217.679484) rotate(-90) scale(0.2 -0.2)">
      <defs>
       <path id="DejaVuSans-43" d="M 4122 4306 
L 4122 3641 
Q 3803 3938 3442 4084 
Q 3081 4231 2675 4231 
Q 1875 4231 1450 3742 
Q 1025 3253 1025 2328 
Q 1025 1406 1450 917 
Q 1875 428 2675 428 
Q 3081 428 3442 575 
Q 3803 722 4122 1019 
L 4122 359 
Q 3791 134 3420 21 
Q 3050 -91 2638 -91 
Q 1578 -91 968 557 
Q 359 1206 359 2328 
Q 359 3453 968 4101 
Q 1578 4750 2638 4750 
Q 3056 4750 3426 4639 
Q 3797 4528 4122 4306 
z
" transform="scale(0.015625)"/>
       <path id="DejaVuSans-6f" d="M 1959 3097 
Q 1497 3097 1228 2736 
Q 959 2375 959 1747 
Q 959 1119 1226 758 
Q 1494 397 1959 397 
Q 2419 397 2687 759 
Q 2956 1122 2956 1747 
Q 2956 2369 2687 2733 
Q 2419 3097 1959 3097 
z
M 1959 3584 
Q 2709 3584 3137 3096 
Q 3566 2609 3566 1747 
Q 3566 888 3137 398 
Q 2709 -91 1959 -91 
Q 1206 -91 779 398 
Q 353 888 353 1747 
Q 353 2609 779 3096 
Q 1206 3584 1959 3584 
z
" transform="scale(0.015625)"/>
       <path id="DejaVuSans-75" d="M 544 1381 
L 544 3500 
L 1119 3500 
L 1119 1403 
Q 1119 906 1312 657 
Q 1506 409 1894 409 
Q 2359 409 2629 706 
Q 2900 1003 2900 1516 
L 2900 3500 
L 3475 3500 
L 3475 0 
L 2900 0 
L 2900 538 
Q 2691 219 2414 64 
Q 2138 -91 1772 -91 
Q 1169 -91 856 284 
Q 544 659 544 1381 
z
M 1991 3584 
L 1991 3584 
z
" transform="scale(0.015625)"/>
       <path id="DejaVuSans-74" d="M 1172 4494 
L 1172 3500 
L 2356 3500 
L 2356 3053 
L 1172 3053 
L 1172 1153 
Q 1172 725 1289 603 
Q 1406 481 1766 481 
L 2356 481 
L 2356 0 
L 1766 0 
Q 1100 0 847 248 
Q 594 497 594 1153 
L 594 3053 
L 172 3053 
L 172 3500 
L 594 3500 
L 594 4494 
L 1172 4494 
z
" transform="scale(0.015625)"/>
      </defs>
      <use xlink:href="#DejaVuSans-43"/>
      <use xlink:href="#DejaVuSans-6f" transform="translate(69.824219 0)"/>
      <use xlink:href="#DejaVuSans-75" transform="translate(131.005859 0)"/>
      <use xlink:href="#DejaVuSans-6e" transform="translate(194.384766 0)"/>
      <use xlink:href="#DejaVuSans-74" transform="translate(257.763672 0)"/>
     </g>
    </g>
   </g>
   <g id="line2d_10">
    <path d="M 186.032737 368.475965 
L 196.572534 368.475965 
L 196.613285 367.680522 
L 196.739022 349.963826 
L 196.949742 347.939061 
L 197.386296 346.709739 
L 197.415802 346.709739 
L 197.549169 346.4928 
L 198.210433 346.203548 
L 198.421 345.986609 
L 198.491223 345.986609 
L 198.827979 345.625043 
L 198.989512 345.55273 
L 199.159351 345.480417 
L 199.364922 345.118852 
L 199.509841 344.974226 
L 200.171325 344.901913 
L 200.993166 344.178783 
L 202.029252 344.10647 
L 202.172521 344.034157 
L 203.475338 343.961843 
L 203.666078 343.88953 
L 204.321216 343.817217 
L 204.486209 343.744904 
L 204.940481 343.672591 
L 205.160165 343.527965 
L 207.756082 343.455652 
L 207.968084 343.311026 
L 208.066369 343.311026 
L 208.254729 343.1664 
L 208.866685 343.094087 
L 209.035114 343.021774 
L 211.059686 342.949461 
L 211.225367 342.804835 
L 211.489908 342.732522 
L 211.63584 342.660209 
L 213.182109 342.587896 
L 213.289228 342.515583 
L 228.588651 342.44327 
L 228.74707 342.298643 
L 240.754645 342.22633 
L 241.010801 342.081704 
L 247.349914 342.009391 
L 247.51187 341.937078 
L 253.681881 341.864765 
L 253.850347 341.792452 
L 257.121239 341.720139 
L 257.318191 341.647826 
L 257.771293 341.575513 
L 257.939084 341.5032 
L 263.664239 341.430887 
L 263.959124 341.286261 
L 265.932908 341.213948 
L 266.086626 341.141635 
L 268.887038 341.069322 
L 269.124781 340.997009 
L 276.998289 340.924696 
L 277.22198 340.852383 
L 293.821934 340.78007 
L 293.993607 340.707757 
L 294.229099 340.635443 
L 294.425632 340.56313 
L 296.762462 340.490817 
L 297.023034 340.273878 
L 297.865282 340.201565 
L 298.328595 339.84 
L 301.406681 339.767687 
L 301.599903 339.695374 
L 302.077239 339.695374 
L 302.251341 339.550748 
L 309.953591 339.478435 
L 310.12208 339.406122 
L 313.730332 339.333809 
L 313.958868 339.261496 
L 317.703594 339.189183 
L 317.914219 339.11687 
L 320.736224 339.044557 
L 320.918731 338.972243 
L 321.789217 338.89993 
L 321.915574 338.827617 
L 321.970403 326.679026 
L 322.165186 244.169843 
L 322.359353 230.141113 
L 322.634867 220.885043 
L 322.757974 219.077217 
L 322.909064 216.112383 
L 323.312904 214.37687 
L 323.39605 214.37687 
L 323.721932 213.509113 
L 324.046744 213.002922 
L 324.319624 210.255026 
L 324.382587 210.255026 
L 324.77969 205.1208 
L 325.030154 201.577461 
L 325.51628 197.021739 
L 325.795205 193.984591 
L 326.056459 191.8152 
L 326.5347 188.922678 
L 326.949204 187.693357 
L 327.886636 187.476417 
L 328.092636 187.187165 
L 328.335638 187.114852 
L 329.02299 185.234713 
L 329.391987 183.643826 
L 329.672549 183.137635 
L 330.236134 181.185183 
L 330.290997 181.11287 
L 330.507949 180.1728 
L 330.738221 179.738922 
L 330.849143 179.666609 
L 332.167794 179.088104 
L 332.371584 179.015791 
L 332.529684 178.798852 
L 332.834611 178.364974 
L 332.947103 178.364974 
L 333.180119 177.931096 
L 333.327586 177.424904 
L 333.827516 176.484835 
L 334.088133 175.834017 
L 334.71993 174.387757 
L 335.772885 174.315443 
L 336.057207 174.170817 
L 336.236335 174.098504 
L 336.422187 173.953878 
L 336.783754 173.592313 
L 336.913105 173.52 
L 337.479445 173.086122 
L 337.584047 173.013809 
L 338.061405 172.435304 
L 338.187458 172.146052 
L 338.426436 172.073739 
L 338.763377 171.422922 
L 338.931881 171.350609 
L 339.328334 171.205983 
L 339.675077 171.13367 
L 339.83904 171.061357 
L 340.251604 170.989043 
L 340.349881 170.91673 
L 340.513671 170.91673 
L 340.681874 170.627478 
L 340.785118 170.555165 
L 340.953618 170.338226 
L 341.353052 170.121287 
L 341.416922 170.121287 
L 341.523422 169.976661 
L 341.627525 169.976661 
L 341.813365 169.687409 
L 341.861228 169.687409 
L 342.178193 169.036591 
L 342.975348 168.024209 
L 343.115748 167.951896 
L 343.512041 167.662643 
L 344.39336 167.59033 
L 344.792618 167.373391 
L 344.997105 167.373391 
L 345.193334 167.156452 
L 345.502529 166.794887 
L 345.544624 166.794887 
L 346.011964 166.071757 
L 346.053531 166.071757 
L 346.221954 165.92713 
L 346.387037 164.842435 
L 346.513382 164.697809 
L 346.738017 164.046991 
L 347.023492 163.974678 
L 347.157522 163.902365 
L 348.433422 163.830052 
L 348.748898 162.962296 
L 349.335393 162.889983 
L 349.840857 161.805287 
L 350.093559 161.299096 
L 350.770725 160.865217 
L 351.212654 160.865217 
L 351.949703 160.575965 
L 352.379323 160.503652 
L 352.477246 160.431339 
L 352.747103 160.359026 
L 352.915546 160.142087 
L 353.159438 160.069774 
L 353.421011 159.563583 
L 353.589464 159.27433 
L 353.72987 158.912765 
L 353.819882 158.912765 
L 354.038733 158.189635 
L 354.161121 157.900383 
L 354.263395 157.82807 
L 354.494485 157.394191 
L 354.547824 157.394191 
L 354.740078 157.032626 
L 354.937301 157.032626 
L 355.1058 156.815687 
L 355.252682 156.671061 
L 356.01371 156.598748 
L 356.191091 156.526435 
L 356.857505 156.454122 
L 356.927651 156.381809 
L 357.063946 156.092557 
L 357.096113 156.092557 
L 357.208582 155.875617 
L 357.429404 155.658678 
L 357.801421 155.080174 
L 358.038329 154.718609 
L 358.208599 154.212417 
L 358.348966 154.140104 
L 358.980792 152.83847 
L 359.093105 152.766157 
L 359.294007 152.476904 
L 361.048321 151.970713 
L 361.251723 151.464522 
L 361.371427 151.392209 
L 362.518839 149.005878 
L 362.749505 147.63193 
L 363.336576 146.113357 
L 363.736067 145.96873 
L 364.61078 145.896417 
L 364.694986 145.824104 
L 364.877544 145.317913 
L 365.29636 144.667096 
L 365.893129 143.799339 
L 366.179782 142.786957 
L 366.179782 142.786957 
" clip-path="url(#pb60df7fd59)" style="fill: none; stroke: #005953; stroke-width: 2; stroke-linecap: square"/>
   </g>
   <g id="line2d_11">
    <path d="M 186.032737 368.692904 
L 196.85444 368.692904 
L 196.949742 368.042087 
L 197.191409 366.378887 
L 197.386296 366.089635 
L 198.252529 366.017322 
L 198.575461 365.655757 
L 198.757968 365.583443 
L 198.930336 365.366504 
L 199.044391 365.366504 
L 199.159351 365.077252 
L 199.308795 365.004939 
L 199.509841 364.788 
L 199.940176 364.715687 
L 200.171325 364.281809 
L 200.581955 363.992557 
L 200.653352 363.992557 
L 200.821825 363.703304 
L 200.892035 363.703304 
L 201.161821 363.1248 
L 201.837328 363.052487 
L 202.172521 362.980174 
L 202.871075 362.980174 
L 203.032954 362.835548 
L 204.826215 362.763235 
L 204.991665 362.690922 
L 205.128321 361.823165 
L 206.910166 361.750852 
L 207.055501 361.678539 
L 207.803643 361.606226 
L 207.968084 361.533913 
L 208.317596 361.4616 
L 208.469284 361.389287 
L 209.24896 361.316974 
L 209.417476 361.244661 
L 211.270491 361.244661 
L 211.435947 361.100035 
L 211.63584 361.027722 
L 211.847244 360.883096 
L 212.404723 360.810783 
L 212.573201 360.73847 
L 212.910159 360.666157 
L 213.123818 360.52153 
L 216.111209 360.449217 
L 216.279722 360.376904 
L 216.883425 360.376904 
L 216.998623 359.292209 
L 219.04556 359.219896 
L 219.207322 359.147583 
L 219.522899 359.147583 
L 219.649256 359.002957 
L 221.211245 358.930643 
L 221.37974 358.786017 
L 221.549396 358.352139 
L 224.970374 358.279826 
L 225.105512 357.845948 
L 225.377529 357.773635 
L 225.546031 357.701322 
L 228.924356 357.629009 
L 229.041937 357.556696 
L 229.392172 357.556696 
L 229.465976 357.41207 
L 230.431878 357.339757 
L 230.663996 357.19513 
L 231.487773 357.122817 
L 231.857856 356.905878 
L 233.239862 356.833565 
L 233.338107 356.761252 
L 233.509843 356.327374 
L 235.896344 356.255061 
L 236.107279 356.110435 
L 237.282692 356.038122 
L 237.385905 355.965809 
L 239.403358 355.893496 
L 239.57181 355.74887 
L 239.939851 355.676557 
L 240.203614 355.604243 
L 243.446794 355.53193 
L 243.741665 355.387304 
L 244.868468 355.314991 
L 245.061433 355.242678 
L 245.215826 355.242678 
L 245.322971 354.591861 
L 247.916879 354.519548 
L 248.032423 354.447235 
L 248.581295 354.374922 
L 248.758232 354.302609 
L 249.034711 354.302609 
L 249.26217 354.08567 
L 249.852313 354.013357 
L 250.115086 353.86873 
L 251.929708 353.796417 
L 252.07571 353.724104 
L 253.513394 353.651791 
L 253.681881 353.579478 
L 254.903365 353.507165 
L 255.099919 353.290226 
L 257.661763 353.217913 
L 257.771293 353.1456 
L 259.025827 353.073287 
L 259.143394 352.856348 
L 259.696561 352.784035 
L 259.873459 352.711722 
L 263.664239 352.639409 
L 263.835586 352.567096 
L 264.68039 352.494783 
L 264.863586 352.350157 
L 265.643841 352.277843 
L 265.783284 352.060904 
L 268.887038 351.988591 
L 269.124781 351.916278 
L 269.563976 351.843965 
L 269.733487 351.699339 
L 271.035163 351.699339 
L 271.203605 351.4824 
L 272.762057 351.410087 
L 272.955131 351.337774 
L 274.376499 351.265461 
L 274.978 351.193148 
L 275.078658 351.193148 
L 275.24711 350.686957 
L 280.756763 350.614643 
L 280.930195 350.54233 
L 282.031331 350.470017 
L 282.217701 350.108452 
L 287.273297 350.036139 
L 287.447717 349.891513 
L 293.821934 349.8192 
L 293.993607 349.746887 
L 296.433396 349.674574 
L 296.548935 349.602261 
L 300.397997 349.529948 
L 300.599086 349.385322 
L 303.382954 349.385322 
L 303.551445 349.09607 
L 305.376634 349.023757 
L 305.524112 348.951443 
L 309.827238 348.87913 
L 309.995733 348.806817 
L 310.164224 348.734504 
L 310.335878 348.662191 
L 316.153269 348.589878 
L 316.251551 348.300626 
L 317.432569 348.300626 
L 317.580314 348.156 
L 321.471979 348.083687 
L 321.690214 348.011374 
L 322.055471 347.939061 
L 322.224498 347.577496 
L 322.297895 347.577496 
L 322.421003 339.478435 
L 322.634867 332.174817 
L 322.909064 328.776104 
L 323.312904 327.763722 
L 323.904985 327.185217 
L 324.611234 321.906365 
L 325.07454 317.061391 
L 326.404802 308.673078 
L 326.688063 307.805322 
L 326.949204 307.154504 
L 327.481621 306.720626 
L 327.643816 306.720626 
L 327.812293 306.503687 
L 328.022912 306.503687 
L 328.391955 305.925183 
L 328.531321 305.85287 
L 329.391987 303.466539 
L 329.62977 302.743409 
L 329.973803 301.875652 
L 330.100814 301.803339 
L 330.384723 301.152522 
L 330.550088 282.278817 
L 330.816848 281.700313 
L 331.237053 281.628 
L 331.496597 281.411061 
L 332.197693 281.338748 
L 332.403332 281.194122 
L 332.594818 281.121809 
L 332.947103 280.68793 
L 333.754969 279.097043 
L 333.94772 278.446226 
L 334.035891 278.373913 
L 334.214485 277.867722 
L 334.280185 277.795409 
L 334.382941 277.506157 
L 334.556089 272.37193 
L 334.673431 272.299617 
L 335.028796 271.938052 
L 335.631221 271.721113 
L 336.236335 271.6488 
L 336.913105 271.070296 
L 336.989861 271.070296 
L 337.223747 270.636417 
L 337.479445 270.564104 
L 337.721198 270.419478 
L 337.765083 270.419478 
L 337.920996 270.057913 
L 337.991183 270.057913 
L 338.25794 269.551722 
L 338.426436 269.479409 
L 338.566847 269.190157 
L 338.641713 266.442261 
L 339.072287 266.369948 
L 339.942763 266.225322 
L 340.279693 266.153009 
L 340.785118 265.791443 
L 340.953618 265.71913 
L 342.178193 264.562122 
L 342.680509 262.175791 
L 342.919182 261.741913 
L 344.473801 261.6696 
L 344.608658 261.524974 
L 344.935259 261.452661 
L 345.077013 261.235722 
L 345.620738 261.235722 
L 345.843829 260.94647 
L 345.979889 260.874157 
L 346.221954 260.584904 
L 346.387037 258.777078 
L 346.513382 258.704765 
L 346.895889 258.270887 
L 348.493024 258.198574 
L 348.917233 257.62007 
L 349.040546 257.547757 
L 349.377538 257.113878 
L 349.54599 257.041565 
L 349.840857 256.390748 
L 349.92819 256.318435 
L 350.093559 256.101496 
L 350.223671 256.101496 
L 350.388373 255.884557 
L 350.602036 255.812243 
L 350.770725 255.73993 
L 351.212654 255.73993 
L 351.802786 255.522991 
L 352.915546 255.450678 
L 353.084045 255.306052 
L 353.332488 255.233739 
L 353.636888 254.944487 
L 354.102369 254.872174 
L 354.392707 254.438296 
L 354.431885 254.438296 
L 354.600358 254.29367 
L 354.708491 254.29367 
L 354.815823 254.004417 
L 355.1058 253.859791 
L 355.512951 253.715165 
L 356.11665 253.715165 
L 356.327262 253.498226 
L 356.608038 253.3536 
L 356.690057 253.3536 
L 356.927651 252.775096 
L 357.127538 252.702783 
L 357.328565 252.558157 
L 357.699224 252.196591 
L 357.759312 252.196591 
L 357.870321 251.907339 
L 358.090934 251.618087 
L 358.208599 251.401148 
L 358.408703 247.134678 
L 358.541809 247.062365 
L 358.688954 246.845426 
L 358.815294 246.773113 
L 359.149276 246.122296 
L 359.552563 246.049983 
L 359.892676 245.97767 
L 360.393404 245.905357 
L 360.567269 245.833043 
L 360.683113 245.833043 
L 360.834045 245.688417 
L 360.970861 245.616104 
L 361.251723 245.109913 
L 361.371427 245.109913 
L 362.396157 242.795896 
L 362.64387 241.855826 
L 362.799612 237.950922 
L 362.918171 237.806296 
L 363.169071 237.083165 
L 363.198483 237.083165 
L 363.5958 236.7216 
L 363.936854 236.649287 
L 364.61078 235.99847 
L 364.849456 235.926157 
L 365.013658 235.564591 
L 365.091577 235.492278 
L 365.183858 235.419965 
L 365.29636 234.986087 
L 365.414346 234.986087 
L 366.179782 233.539826 
L 366.179782 233.539826 
" clip-path="url(#pb60df7fd59)" style="fill: none; stroke: #69a3a2; stroke-width: 2; stroke-linecap: square"/>
   </g>
   <g id="LineCollection_1">
    <path d="M 136.8 368.765217 
L 1007.45 368.765217 
" clip-path="url(#pb60df7fd59)" style="fill: none; stroke: #d3d3d3; stroke-width: 0.5"/>
    <path d="M 136.8 296.452174 
L 1007.45 296.452174 
" clip-path="url(#pb60df7fd59)" style="fill: none; stroke: #d3d3d3; stroke-width: 0.5"/>
    <path d="M 136.8 224.13913 
L 1007.45 224.13913 
" clip-path="url(#pb60df7fd59)" style="fill: none; stroke: #d3d3d3; stroke-width: 0.5"/>
    <path d="M 136.8 151.826087 
L 1007.45 151.826087 
" clip-path="url(#pb60df7fd59)" style="fill: none; stroke: #d3d3d3; stroke-width: 0.5"/>
    <path d="M 136.8 79.513043 
L 1007.45 79.513043 
" clip-path="url(#pb60df7fd59)" style="fill: none; stroke: #d3d3d3; stroke-width: 0.5"/>
    <path d="M 136.8 7.2 
L 1007.45 7.2 
" clip-path="url(#pb60df7fd59)" style="fill: none; stroke: #d3d3d3; stroke-width: 0.5"/>
    <path clip-path="url(#pb60df7fd59)" style="fill: none; stroke: #d3d3d3; stroke-width: 0.5"/>
    <path clip-path="url(#pb60df7fd59)" style="fill: none; stroke: #d3d3d3; stroke-width: 0.5"/>
    <path clip-path="url(#pb60df7fd59)" style="fill: none; stroke: #d3d3d3; stroke-width: 0.5"/>
    <path clip-path="url(#pb60df7fd59)" style="fill: none; stroke: #d3d3d3; stroke-width: 0.5"/>
    <path clip-path="url(#pb60df7fd59)" style="fill: none; stroke: #d3d3d3; stroke-width: 0.5"/>
    <path clip-path="url(#pb60df7fd59)" style="fill: none; stroke: #d3d3d3; stroke-width: 0.5"/>
    <path clip-path="url(#pb60df7fd59)" style="fill: none; stroke: #d3d3d3; stroke-width: 0.5"/>
    <path clip-path="url(#pb60df7fd59)" style="fill: none; stroke: #d3d3d3; stroke-width: 0.5"/>
    <path clip-path="url(#pb60df7fd59)" style="fill: none; stroke: #d3d3d3; stroke-width: 0.5"/>
    <path clip-path="url(#pb60df7fd59)" style="fill: none; stroke: #d3d3d3; stroke-width: 0.5"/>
    <path clip-path="url(#pb60df7fd59)" style="fill: none; stroke: #d3d3d3; stroke-width: 0.5"/>
    <path clip-path="url(#pb60df7fd59)" style="fill: none; stroke: #d3d3d3; stroke-width: 0.5"/>
    <path clip-path="url(#pb60df7fd59)" style="fill: none; stroke: #d3d3d3; stroke-width: 0.5"/>
    <path clip-path="url(#pb60df7fd59)" style="fill: none; stroke: #d3d3d3; stroke-width: 0.5"/>
    <path clip-path="url(#pb60df7fd59)" style="fill: none; stroke: #d3d3d3; stroke-width: 0.5"/>
    <path clip-path="url(#pb60df7fd59)" style="fill: none; stroke: #d3d3d3; stroke-width: 0.5"/>
    <path clip-path="url(#pb60df7fd59)" style="fill: none; stroke: #d3d3d3; stroke-width: 0.5"/>
    <path clip-path="url(#pb60df7fd59)" style="fill: none; stroke: #d3d3d3; stroke-width: 0.5"/>
    <path clip-path="url(#pb60df7fd59)" style="fill: none; stroke: #d3d3d3; stroke-width: 0.5"/>
    <path clip-path="url(#pb60df7fd59)" style="fill: none; stroke: #d3d3d3; stroke-width: 0.5"/>
    <path clip-path="url(#pb60df7fd59)" style="fill: none; stroke: #d3d3d3; stroke-width: 0.5"/>
    <path clip-path="url(#pb60df7fd59)" style="fill: none; stroke: #d3d3d3; stroke-width: 0.5"/>
    <path clip-path="url(#pb60df7fd59)" style="fill: none; stroke: #d3d3d3; stroke-width: 0.5"/>
    <path clip-path="url(#pb60df7fd59)" style="fill: none; stroke: #d3d3d3; stroke-width: 0.5"/>
    <path clip-path="url(#pb60df7fd59)" style="fill: none; stroke: #d3d3d3; stroke-width: 0.5"/>
    <path clip-path="url(#pb60df7fd59)" style="fill: none; stroke: #d3d3d3; stroke-width: 0.5"/>
    <path clip-path="url(#pb60df7fd59)" style="fill: none; stroke: #d3d3d3; stroke-width: 0.5"/>
    <path clip-path="url(#pb60df7fd59)" style="fill: none; stroke: #d3d3d3; stroke-width: 0.5"/>
    <path clip-path="url(#pb60df7fd59)" style="fill: none; stroke: #d3d3d3; stroke-width: 0.5"/>
    <path clip-path="url(#pb60df7fd59)" style="fill: none; stroke: #d3d3d3; stroke-width: 0.5"/>
    <path clip-path="url(#pb60df7fd59)" style="fill: none; stroke: #d3d3d3; stroke-width: 0.5"/>
    <path clip-path="url(#pb60df7fd59)" style="fill: none; stroke: #d3d3d3; stroke-width: 0.5"/>
    <path clip-path="url(#pb60df7fd59)" style="fill: none; stroke: #d3d3d3; stroke-width: 0.5"/>
    <path clip-path="url(#pb60df7fd59)" style="fill: none; stroke: #d3d3d3; stroke-width: 0.5"/>
    <path clip-path="url(#pb60df7fd59)" style="fill: none; stroke: #d3d3d3; stroke-width: 0.5"/>
    <path clip-path="url(#pb60df7fd59)" style="fill: none; stroke: #d3d3d3; stroke-width: 0.5"/>
    <path clip-path="url(#pb60df7fd59)" style="fill: none; stroke: #d3d3d3; stroke-width: 0.5"/>
    <path clip-path="url(#pb60df7fd59)" style="fill: none; stroke: #d3d3d3; stroke-width: 0.5"/>
    <path clip-path="url(#pb60df7fd59)" style="fill: none; stroke: #d3d3d3; stroke-width: 0.5"/>
    <path clip-path="url(#pb60df7fd59)" style="fill: none; stroke: #d3d3d3; stroke-width: 0.5"/>
    <path clip-path="url(#pb60df7fd59)" style="fill: none; stroke: #d3d3d3; stroke-width: 0.5"/>
    <path clip-path="url(#pb60df7fd59)" style="fill: none; stroke: #d3d3d3; stroke-width: 0.5"/>
    <path clip-path="url(#pb60df7fd59)" style="fill: none; stroke: #d3d3d3; stroke-width: 0.5"/>
    <path clip-path="url(#pb60df7fd59)" style="fill: none; stroke: #d3d3d3; stroke-width: 0.5"/>
   </g>
   <g id="patch_3">
    <path d="M 136.8 368.765217 
L 136.8 7.2 
" style="fill: none; stroke: #000000; stroke-width: 0.8; stroke-linejoin: miter; stroke-linecap: square"/>
   </g>
   <g id="patch_4">
    <path d="M 500.713043 368.765217 
L 500.713043 7.2 
" style="fill: none; stroke: #000000; stroke-width: 0.8; stroke-linejoin: miter; stroke-linecap: square"/>
   </g>
   <g id="patch_5">
    <path d="M 136.8 368.765217 
L 500.713043 368.765217 
" style="fill: none; stroke: #000000; stroke-width: 0.8; stroke-linejoin: miter; stroke-linecap: square"/>
   </g>
   <g id="patch_6">
    <path d="M 136.8 7.2 
L 500.713043 7.2 
" style="fill: none; stroke: #000000; stroke-width: 0.8; stroke-linejoin: miter; stroke-linecap: square"/>
   </g>
   <g id="text_12">
    <!-- 3125 total regs, out of which 1870 paid at least partially. -->
    <g transform="translate(138.619565 366.957391) scale(0.066667 -0.066667)">
     <defs>
      <path id="DejaVuSans-35" d="M 691 4666 
L 3169 4666 
L 3169 4134 
L 1269 4134 
L 1269 2991 
Q 1406 3038 1543 3061 
Q 1681 3084 1819 3084 
Q 2600 3084 3056 2656 
Q 3513 2228 3513 1497 
Q 3513 744 3044 326 
Q 2575 -91 1722 -91 
Q 1428 -91 1123 -41 
Q 819 9 494 109 
L 494 744 
Q 775 591 1075 516 
Q 1375 441 1709 441 
Q 2250 441 2565 725 
Q 2881 1009 2881 1497 
Q 2881 1984 2565 2268 
Q 2250 2553 1709 2553 
Q 1456 2553 1204 2497 
Q 953 2441 691 2322 
L 691 4666 
z
" transform="scale(0.015625)"/>
      <path id="DejaVuSans-20" transform="scale(0.015625)"/>
      <path id="DejaVuSans-6c" d="M 603 4863 
L 1178 4863 
L 1178 0 
L 603 0 
L 603 4863 
z
" transform="scale(0.015625)"/>
      <path id="DejaVuSans-67" d="M 2906 1791 
Q 2906 2416 2648 2759 
Q 2391 3103 1925 3103 
Q 1463 3103 1205 2759 
Q 947 2416 947 1791 
Q 947 1169 1205 825 
Q 1463 481 1925 481 
Q 2391 481 2648 825 
Q 2906 1169 2906 1791 
z
M 3481 434 
Q 3481 -459 3084 -895 
Q 2688 -1331 1869 -1331 
Q 1566 -1331 1297 -1286 
Q 1028 -1241 775 -1147 
L 775 -588 
Q 1028 -725 1275 -790 
Q 1522 -856 1778 -856 
Q 2344 -856 2625 -561 
Q 2906 -266 2906 331 
L 2906 616 
Q 2728 306 2450 153 
Q 2172 0 1784 0 
Q 1141 0 747 490 
Q 353 981 353 1791 
Q 353 2603 747 3093 
Q 1141 3584 1784 3584 
Q 2172 3584 2450 3431 
Q 2728 3278 2906 2969 
L 2906 3500 
L 3481 3500 
L 3481 434 
z
" transform="scale(0.015625)"/>
      <path id="DejaVuSans-73" d="M 2834 3397 
L 2834 2853 
Q 2591 2978 2328 3040 
Q 2066 3103 1784 3103 
Q 1356 3103 1142 2972 
Q 928 2841 928 2578 
Q 928 2378 1081 2264 
Q 1234 2150 1697 2047 
L 1894 2003 
Q 2506 1872 2764 1633 
Q 3022 1394 3022 966 
Q 3022 478 2636 193 
Q 2250 -91 1575 -91 
Q 1294 -91 989 -36 
Q 684 19 347 128 
L 347 722 
Q 666 556 975 473 
Q 1284 391 1588 391 
Q 1994 391 2212 530 
Q 2431 669 2431 922 
Q 2431 1156 2273 1281 
Q 2116 1406 1581 1522 
L 1381 1569 
Q 847 1681 609 1914 
Q 372 2147 372 2553 
Q 372 3047 722 3315 
Q 1072 3584 1716 3584 
Q 2034 3584 2315 3537 
Q 2597 3491 2834 3397 
z
" transform="scale(0.015625)"/>
      <path id="DejaVuSans-2c" d="M 750 794 
L 1409 794 
L 1409 256 
L 897 -744 
L 494 -744 
L 750 256 
L 750 794 
z
" transform="scale(0.015625)"/>
      <path id="DejaVuSans-66" d="M 2375 4863 
L 2375 4384 
L 1825 4384 
Q 1516 4384 1395 4259 
Q 1275 4134 1275 3809 
L 1275 3500 
L 2222 3500 
L 2222 3053 
L 1275 3053 
L 1275 0 
L 697 0 
L 697 3053 
L 147 3053 
L 147 3500 
L 697 3500 
L 697 3744 
Q 697 4328 969 4595 
Q 1241 4863 1831 4863 
L 2375 4863 
z
" transform="scale(0.015625)"/>
      <path id="DejaVuSans-77" d="M 269 3500 
L 844 3500 
L 1563 769 
L 2278 3500 
L 2956 3500 
L 3675 769 
L 4391 3500 
L 4966 3500 
L 4050 0 
L 3372 0 
L 2619 2869 
L 1863 0 
L 1184 0 
L 269 3500 
z
" transform="scale(0.015625)"/>
      <path id="DejaVuSans-68" d="M 3513 2113 
L 3513 0 
L 2938 0 
L 2938 2094 
Q 2938 2591 2744 2837 
Q 2550 3084 2163 3084 
Q 1697 3084 1428 2787 
Q 1159 2491 1159 1978 
L 1159 0 
L 581 0 
L 581 4863 
L 1159 4863 
L 1159 2956 
Q 1366 3272 1645 3428 
Q 1925 3584 2291 3584 
Q 2894 3584 3203 3211 
Q 3513 2838 3513 2113 
z
" transform="scale(0.015625)"/>
      <path id="DejaVuSans-63" d="M 3122 3366 
L 3122 2828 
Q 2878 2963 2633 3030 
Q 2388 3097 2138 3097 
Q 1578 3097 1268 2742 
Q 959 2388 959 1747 
Q 959 1106 1268 751 
Q 1578 397 2138 397 
Q 2388 397 2633 464 
Q 2878 531 3122 666 
L 3122 134 
Q 2881 22 2623 -34 
Q 2366 -91 2075 -91 
Q 1284 -91 818 406 
Q 353 903 353 1747 
Q 353 2603 823 3093 
Q 1294 3584 2113 3584 
Q 2378 3584 2631 3529 
Q 2884 3475 3122 3366 
z
" transform="scale(0.015625)"/>
      <path id="DejaVuSans-38" d="M 2034 2216 
Q 1584 2216 1326 1975 
Q 1069 1734 1069 1313 
Q 1069 891 1326 650 
Q 1584 409 2034 409 
Q 2484 409 2743 651 
Q 3003 894 3003 1313 
Q 3003 1734 2745 1975 
Q 2488 2216 2034 2216 
z
M 1403 2484 
Q 997 2584 770 2862 
Q 544 3141 544 3541 
Q 544 4100 942 4425 
Q 1341 4750 2034 4750 
Q 2731 4750 3128 4425 
Q 3525 4100 3525 3541 
Q 3525 3141 3298 2862 
Q 3072 2584 2669 2484 
Q 3125 2378 3379 2068 
Q 3634 1759 3634 1313 
Q 3634 634 3220 271 
Q 2806 -91 2034 -91 
Q 1263 -91 848 271 
Q 434 634 434 1313 
Q 434 1759 690 2068 
Q 947 2378 1403 2484 
z
M 1172 3481 
Q 1172 3119 1398 2916 
Q 1625 2713 2034 2713 
Q 2441 2713 2670 2916 
Q 2900 3119 2900 3481 
Q 2900 3844 2670 4047 
Q 2441 4250 2034 4250 
Q 1625 4250 1398 4047 
Q 1172 3844 1172 3481 
z
" transform="scale(0.015625)"/>
      <path id="DejaVuSans-37" d="M 525 4666 
L 3525 4666 
L 3525 4397 
L 1831 0 
L 1172 0 
L 2766 4134 
L 525 4134 
L 525 4666 
z
" transform="scale(0.015625)"/>
      <path id="DejaVuSans-64" d="M 2906 2969 
L 2906 4863 
L 3481 4863 
L 3481 0 
L 2906 0 
L 2906 525 
Q 2725 213 2448 61 
Q 2172 -91 1784 -91 
Q 1150 -91 751 415 
Q 353 922 353 1747 
Q 353 2572 751 3078 
Q 1150 3584 1784 3584 
Q 2172 3584 2448 3432 
Q 2725 3281 2906 2969 
z
M 947 1747 
Q 947 1113 1208 752 
Q 1469 391 1925 391 
Q 2381 391 2643 752 
Q 2906 1113 2906 1747 
Q 2906 2381 2643 2742 
Q 2381 3103 1925 3103 
Q 1469 3103 1208 2742 
Q 947 2381 947 1747 
z
" transform="scale(0.015625)"/>
      <path id="DejaVuSans-79" d="M 2059 -325 
Q 1816 -950 1584 -1140 
Q 1353 -1331 966 -1331 
L 506 -1331 
L 506 -850 
L 844 -850 
Q 1081 -850 1212 -737 
Q 1344 -625 1503 -206 
L 1606 56 
L 191 3500 
L 800 3500 
L 1894 763 
L 2988 3500 
L 3597 3500 
L 2059 -325 
z
" transform="scale(0.015625)"/>
      <path id="DejaVuSans-2e" d="M 684 794 
L 1344 794 
L 1344 0 
L 684 0 
L 684 794 
z
" transform="scale(0.015625)"/>
     </defs>
     <use xlink:href="#DejaVuSans-33"/>
     <use xlink:href="#DejaVuSans-31" transform="translate(63.623047 0)"/>
     <use xlink:href="#DejaVuSans-32" transform="translate(127.246094 0)"/>
     <use xlink:href="#DejaVuSans-35" transform="translate(190.869141 0)"/>
     <use xlink:href="#DejaVuSans-20" transform="translate(254.492188 0)"/>
     <use xlink:href="#DejaVuSans-74" transform="translate(286.279297 0)"/>
     <use xlink:href="#DejaVuSans-6f" transform="translate(325.488281 0)"/>
     <use xlink:href="#DejaVuSans-74" transform="translate(386.669922 0)"/>
     <use xlink:href="#DejaVuSans-61" transform="translate(425.878906 0)"/>
     <use xlink:href="#DejaVuSans-6c" transform="translate(487.158203 0)"/>
     <use xlink:href="#DejaVuSans-20" transform="translate(514.941406 0)"/>
     <use xlink:href="#DejaVuSans-72" transform="translate(546.728516 0)"/>
     <use xlink:href="#DejaVuSans-65" transform="translate(585.591797 0)"/>
     <use xlink:href="#DejaVuSans-67" transform="translate(647.115234 0)"/>
     <use xlink:href="#DejaVuSans-73" transform="translate(710.591797 0)"/>
     <use xlink:href="#DejaVuSans-2c" transform="translate(762.691406 0)"/>
     <use xlink:href="#DejaVuSans-20" transform="translate(794.478516 0)"/>
     <use xlink:href="#DejaVuSans-6f" transform="translate(826.265625 0)"/>
     <use xlink:href="#DejaVuSans-75" transform="translate(887.447266 0)"/>
     <use xlink:href="#DejaVuSans-74" transform="translate(950.826172 0)"/>
     <use xlink:href="#DejaVuSans-20" transform="translate(990.035156 0)"/>
     <use xlink:href="#DejaVuSans-6f" transform="translate(1021.822266 0)"/>
     <use xlink:href="#DejaVuSans-66" transform="translate(1083.003906 0)"/>
     <use xlink:href="#DejaVuSans-20" transform="translate(1118.208984 0)"/>
     <use xlink:href="#DejaVuSans-77" transform="translate(1149.996094 0)"/>
     <use xlink:href="#DejaVuSans-68" transform="translate(1231.783203 0)"/>
     <use xlink:href="#DejaVuSans-69" transform="translate(1295.162109 0)"/>
     <use xlink:href="#DejaVuSans-63" transform="translate(1322.945312 0)"/>
     <use xlink:href="#DejaVuSans-68" transform="translate(1377.925781 0)"/>
     <use xlink:href="#DejaVuSans-20" transform="translate(1441.304688 0)"/>
     <use xlink:href="#DejaVuSans-31" transform="translate(1473.091797 0)"/>
     <use xlink:href="#DejaVuSans-38" transform="translate(1536.714844 0)"/>
     <use xlink:href="#DejaVuSans-37" transform="translate(1600.337891 0)"/>
     <use xlink:href="#DejaVuSans-30" transform="translate(1663.960938 0)"/>
     <use xlink:href="#DejaVuSans-20" transform="translate(1727.583984 0)"/>
     <use xlink:href="#DejaVuSans-70" transform="translate(1759.371094 0)"/>
     <use xlink:href="#DejaVuSans-61" transform="translate(1822.847656 0)"/>
     <use xlink:href="#DejaVuSans-69" transform="translate(1884.126953 0)"/>
     <use xlink:href="#DejaVuSans-64" transform="translate(1911.910156 0)"/>
     <use xlink:href="#DejaVuSans-20" transform="translate(1975.386719 0)"/>
     <use xlink:href="#DejaVuSans-61" transform="translate(2007.173828 0)"/>
     <use xlink:href="#DejaVuSans-74" transform="translate(2068.453125 0)"/>
     <use xlink:href="#DejaVuSans-20" transform="translate(2107.662109 0)"/>
     <use xlink:href="#DejaVuSans-6c" transform="translate(2139.449219 0)"/>
     <use xlink:href="#DejaVuSans-65" transform="translate(2167.232422 0)"/>
     <use xlink:href="#DejaVuSans-61" transform="translate(2228.755859 0)"/>
     <use xlink:href="#DejaVuSans-73" transform="translate(2290.035156 0)"/>
     <use xlink:href="#DejaVuSans-74" transform="translate(2342.134766 0)"/>
     <use xlink:href="#DejaVuSans-20" transform="translate(2381.34375 0)"/>
     <use xlink:href="#DejaVuSans-70" transform="translate(2413.130859 0)"/>
     <use xlink:href="#DejaVuSans-61" transform="translate(2476.607422 0)"/>
     <use xlink:href="#DejaVuSans-72" transform="translate(2537.886719 0)"/>
     <use xlink:href="#DejaVuSans-74" transform="translate(2579 0)"/>
     <use xlink:href="#DejaVuSans-69" transform="translate(2618.208984 0)"/>
     <use xlink:href="#DejaVuSans-61" transform="translate(2645.992188 0)"/>
     <use xlink:href="#DejaVuSans-6c" transform="translate(2707.271484 0)"/>
     <use xlink:href="#DejaVuSans-6c" transform="translate(2735.054688 0)"/>
     <use xlink:href="#DejaVuSans-79" transform="translate(2762.837891 0)"/>
     <use xlink:href="#DejaVuSans-2e" transform="translate(2807.767578 0)"/>
    </g>
   </g>
   <g id="legend_1">
    <g id="line2d_12">
     <path d="M 178.42449 26.847656 
L 193.42449 26.847656 
L 208.42449 26.847656 
" style="fill: none; stroke: #005953; stroke-width: 2; stroke-linecap: square"/>
    </g>
    <g id="text_13">
     <!-- Total -->
     <g transform="translate(220.42449 32.097656) scale(0.15 -0.15)">
      <use xlink:href="#DejaVuSans-54"/>
      <use xlink:href="#DejaVuSans-6f" transform="translate(44.083984 0)"/>
      <use xlink:href="#DejaVuSans-74" transform="translate(105.265625 0)"/>
      <use xlink:href="#DejaVuSans-61" transform="translate(144.474609 0)"/>
      <use xlink:href="#DejaVuSans-6c" transform="translate(205.753906 0)"/>
     </g>
    </g>
    <g id="line2d_13">
     <path d="M 285.454178 26.847656 
L 300.454178 26.847656 
L 315.454178 26.847656 
" style="fill: none; stroke: #69a3a2; stroke-width: 2; stroke-linecap: square"/>
    </g>
    <g id="text_14">
     <!-- Paid (incl. partial) -->
     <g transform="translate(327.454178 32.097656) scale(0.15 -0.15)">
      <defs>
       <path id="DejaVuSans-50" d="M 1259 4147 
L 1259 2394 
L 2053 2394 
Q 2494 2394 2734 2622 
Q 2975 2850 2975 3272 
Q 2975 3691 2734 3919 
Q 2494 4147 2053 4147 
L 1259 4147 
z
M 628 4666 
L 2053 4666 
Q 2838 4666 3239 4311 
Q 3641 3956 3641 3272 
Q 3641 2581 3239 2228 
Q 2838 1875 2053 1875 
L 1259 1875 
L 1259 0 
L 628 0 
L 628 4666 
z
" transform="scale(0.015625)"/>
       <path id="DejaVuSans-28" d="M 1984 4856 
Q 1566 4138 1362 3434 
Q 1159 2731 1159 2009 
Q 1159 1288 1364 580 
Q 1569 -128 1984 -844 
L 1484 -844 
Q 1016 -109 783 600 
Q 550 1309 550 2009 
Q 550 2706 781 3412 
Q 1013 4119 1484 4856 
L 1984 4856 
z
" transform="scale(0.015625)"/>
       <path id="DejaVuSans-29" d="M 513 4856 
L 1013 4856 
Q 1481 4119 1714 3412 
Q 1947 2706 1947 2009 
Q 1947 1309 1714 600 
Q 1481 -109 1013 -844 
L 513 -844 
Q 928 -128 1133 580 
Q 1338 1288 1338 2009 
Q 1338 2731 1133 3434 
Q 928 4138 513 4856 
z
" transform="scale(0.015625)"/>
      </defs>
      <use xlink:href="#DejaVuSans-50"/>
      <use xlink:href="#DejaVuSans-61" transform="translate(55.802734 0)"/>
      <use xlink:href="#DejaVuSans-69" transform="translate(117.082031 0)"/>
      <use xlink:href="#DejaVuSans-64" transform="translate(144.865234 0)"/>
      <use xlink:href="#DejaVuSans-20" transform="translate(208.341797 0)"/>
      <use xlink:href="#DejaVuSans-28" transform="translate(240.128906 0)"/>
      <use xlink:href="#DejaVuSans-69" transform="translate(279.142578 0)"/>
      <use xlink:href="#DejaVuSans-6e" transform="translate(306.925781 0)"/>
      <use xlink:href="#DejaVuSans-63" transform="translate(370.304688 0)"/>
      <use xlink:href="#DejaVuSans-6c" transform="translate(425.285156 0)"/>
      <use xlink:href="#DejaVuSans-2e" transform="translate(453.068359 0)"/>
      <use xlink:href="#DejaVuSans-20" transform="translate(484.855469 0)"/>
      <use xlink:href="#DejaVuSans-70" transform="translate(516.642578 0)"/>
      <use xlink:href="#DejaVuSans-61" transform="translate(580.119141 0)"/>
      <use xlink:href="#DejaVuSans-72" transform="translate(641.398438 0)"/>
      <use xlink:href="#DejaVuSans-74" transform="translate(682.511719 0)"/>
      <use xlink:href="#DejaVuSans-69" transform="translate(721.720703 0)"/>
      <use xlink:href="#DejaVuSans-61" transform="translate(749.503906 0)"/>
      <use xlink:href="#DejaVuSans-6c" transform="translate(810.783203 0)"/>
      <use xlink:href="#DejaVuSans-29" transform="translate(838.566406 0)"/>
     </g>
    </g>
   </g>
  </g>
  <g id="axes_2">
   <g id="patch_7">
    <path d="M 609.886957 368.765217 
L 973.8 368.765217 
L 973.8 7.2 
L 609.886957 7.2 
z
" style="fill: #ffffff"/>
   </g>
   <g id="patch_8">
    <path d="M 609.886957 236.191304 
L 767.679652 236.191304 
L 767.679652 139.773913 
L 609.886957 139.773913 
z
" clip-path="url(#p272b514822)" style="fill: #a2c5c4"/>
   </g>
   <g id="patch_9">
    <path d="M 767.679652 236.191304 
L 802.906435 236.191304 
L 802.906435 139.773913 
L 767.679652 139.773913 
z
" clip-path="url(#p272b514822)" style="fill: #69a3a2"/>
   </g>
   <g id="patch_10">
    <path d="M 802.906435 236.191304 
L 835.221913 236.191304 
L 835.221913 139.773913 
L 802.906435 139.773913 
z
" clip-path="url(#p272b514822)" style="fill: #005953"/>
   </g>
   <g id="matplotlib.axis_3">
    <g id="xtick_5">
     <g id="line2d_14">
      <g>
       <use xlink:href="#m424d229e8a" x="609.886957" y="368.765217" style="stroke: #000000; stroke-width: 0.8"/>
      </g>
     </g>
     <g id="text_15">
      <!-- 0 -->
      <g transform="translate(603.524457 397.462092) scale(0.2 -0.2)">
       <use xlink:href="#DejaVuSans-30"/>
      </g>
     </g>
    </g>
    <g id="xtick_6">
     <g id="line2d_15">
      <g>
       <use xlink:href="#m424d229e8a" x="682.669565" y="368.765217" style="stroke: #000000; stroke-width: 0.8"/>
      </g>
     </g>
     <g id="text_16">
      <!-- 1000 -->
      <g transform="translate(657.219565 397.462092) scale(0.2 -0.2)">
       <use xlink:href="#DejaVuSans-31"/>
       <use xlink:href="#DejaVuSans-30" transform="translate(63.623047 0)"/>
       <use xlink:href="#DejaVuSans-30" transform="translate(127.246094 0)"/>
       <use xlink:href="#DejaVuSans-30" transform="translate(190.869141 0)"/>
      </g>
     </g>
    </g>
    <g id="xtick_7">
     <g id="line2d_16">
      <g>
       <use xlink:href="#m424d229e8a" x="755.452174" y="368.765217" style="stroke: #000000; stroke-width: 0.8"/>
      </g>
     </g>
     <g id="text_17">
      <!-- 2000 -->
      <g transform="translate(730.002174 397.462092) scale(0.2 -0.2)">
       <use xlink:href="#DejaVuSans-32"/>
       <use xlink:href="#DejaVuSans-30" transform="translate(63.623047 0)"/>
       <use xlink:href="#DejaVuSans-30" transform="translate(127.246094 0)"/>
       <use xlink:href="#DejaVuSans-30" transform="translate(190.869141 0)"/>
      </g>
     </g>
    </g>
    <g id="xtick_8">
     <g id="line2d_17">
      <g>
       <use xlink:href="#m424d229e8a" x="828.234783" y="368.765217" style="stroke: #000000; stroke-width: 0.8"/>
      </g>
     </g>
     <g id="text_18">
      <!-- 3000 -->
      <g transform="translate(802.784783 397.462092) scale(0.2 -0.2)">
       <use xlink:href="#DejaVuSans-33"/>
       <use xlink:href="#DejaVuSans-30" transform="translate(63.623047 0)"/>
       <use xlink:href="#DejaVuSans-30" transform="translate(127.246094 0)"/>
       <use xlink:href="#DejaVuSans-30" transform="translate(190.869141 0)"/>
      </g>
     </g>
    </g>
    <g id="xtick_9">
     <g id="line2d_18">
      <g>
       <use xlink:href="#m424d229e8a" x="901.017391" y="368.765217" style="stroke: #000000; stroke-width: 0.8"/>
      </g>
     </g>
     <g id="text_19">
      <!-- 4000 -->
      <g transform="translate(875.567391 397.462092) scale(0.2 -0.2)">
       <use xlink:href="#DejaVuSans-34"/>
       <use xlink:href="#DejaVuSans-30" transform="translate(63.623047 0)"/>
       <use xlink:href="#DejaVuSans-30" transform="translate(127.246094 0)"/>
       <use xlink:href="#DejaVuSans-30" transform="translate(190.869141 0)"/>
      </g>
     </g>
    </g>
    <g id="xtick_10">
     <g id="line2d_19">
      <g>
       <use xlink:href="#m424d229e8a" x="973.8" y="368.765217" style="stroke: #000000; stroke-width: 0.8"/>
      </g>
     </g>
     <g id="text_20">
      <!-- 5000 -->
      <g transform="translate(948.35 397.462092) scale(0.2 -0.2)">
       <use xlink:href="#DejaVuSans-35"/>
       <use xlink:href="#DejaVuSans-30" transform="translate(63.623047 0)"/>
       <use xlink:href="#DejaVuSans-30" transform="translate(127.246094 0)"/>
       <use xlink:href="#DejaVuSans-30" transform="translate(190.869141 0)"/>
      </g>
     </g>
    </g>
    <g id="text_21">
     <!-- Count -->
     <g transform="translate(762.146603 426.818342) scale(0.2 -0.2)">
      <use xlink:href="#DejaVuSans-43"/>
      <use xlink:href="#DejaVuSans-6f" transform="translate(69.824219 0)"/>
      <use xlink:href="#DejaVuSans-75" transform="translate(131.005859 0)"/>
      <use xlink:href="#DejaVuSans-6e" transform="translate(194.384766 0)"/>
      <use xlink:href="#DejaVuSans-74" transform="translate(257.763672 0)"/>
     </g>
    </g>
   </g>
   <g id="matplotlib.axis_4"/>
   <g id="patch_11">
    <path d="M 609.886957 368.765217 
L 609.886957 7.2 
" style="fill: none; stroke: #000000; stroke-width: 0.8; stroke-linejoin: miter; stroke-linecap: square"/>
   </g>
   <g id="patch_12">
    <path d="M 973.8 368.765217 
L 973.8 7.2 
" style="fill: none; stroke: #000000; stroke-width: 0.8; stroke-linejoin: miter; stroke-linecap: square"/>
   </g>
   <g id="patch_13">
    <path d="M 609.886957 368.765217 
L 973.8 368.765217 
" style="fill: none; stroke: #000000; stroke-width: 0.8; stroke-linejoin: miter; stroke-linecap: square"/>
   </g>
   <g id="patch_14">
    <path d="M 609.886957 7.2 
L 973.8 7.2 
" style="fill: none; stroke: #000000; stroke-width: 0.8; stroke-linejoin: miter; stroke-linecap: square"/>
   </g>
   <g id="text_22">
    <!-- 3096 total regs (2168 normal, 484 sponsors, 444 supersponsors). -->
    <g transform="translate(611.706522 366.957391) scale(0.066667 -0.066667)">
     <defs>
      <path id="DejaVuSans-39" d="M 703 97 
L 703 672 
Q 941 559 1184 500 
Q 1428 441 1663 441 
Q 2288 441 2617 861 
Q 2947 1281 2994 2138 
Q 2813 1869 2534 1725 
Q 2256 1581 1919 1581 
Q 1219 1581 811 2004 
Q 403 2428 403 3163 
Q 403 3881 828 4315 
Q 1253 4750 1959 4750 
Q 2769 4750 3195 4129 
Q 3622 3509 3622 2328 
Q 3622 1225 3098 567 
Q 2575 -91 1691 -91 
Q 1453 -91 1209 -44 
Q 966 3 703 97 
z
M 1959 2075 
Q 2384 2075 2632 2365 
Q 2881 2656 2881 3163 
Q 2881 3666 2632 3958 
Q 2384 4250 1959 4250 
Q 1534 4250 1286 3958 
Q 1038 3666 1038 3163 
Q 1038 2656 1286 2365 
Q 1534 2075 1959 2075 
z
" transform="scale(0.015625)"/>
      <path id="DejaVuSans-36" d="M 2113 2584 
Q 1688 2584 1439 2293 
Q 1191 2003 1191 1497 
Q 1191 994 1439 701 
Q 1688 409 2113 409 
Q 2538 409 2786 701 
Q 3034 994 3034 1497 
Q 3034 2003 2786 2293 
Q 2538 2584 2113 2584 
z
M 3366 4563 
L 3366 3988 
Q 3128 4100 2886 4159 
Q 2644 4219 2406 4219 
Q 1781 4219 1451 3797 
Q 1122 3375 1075 2522 
Q 1259 2794 1537 2939 
Q 1816 3084 2150 3084 
Q 2853 3084 3261 2657 
Q 3669 2231 3669 1497 
Q 3669 778 3244 343 
Q 2819 -91 2113 -91 
Q 1303 -91 875 529 
Q 447 1150 447 2328 
Q 447 3434 972 4092 
Q 1497 4750 2381 4750 
Q 2619 4750 2861 4703 
Q 3103 4656 3366 4563 
z
" transform="scale(0.015625)"/>
     </defs>
     <use xlink:href="#DejaVuSans-33"/>
     <use xlink:href="#DejaVuSans-30" transform="translate(63.623047 0)"/>
     <use xlink:href="#DejaVuSans-39" transform="translate(127.246094 0)"/>
     <use xlink:href="#DejaVuSans-36" transform="translate(190.869141 0)"/>
     <use xlink:href="#DejaVuSans-20" transform="translate(254.492188 0)"/>
     <use xlink:href="#DejaVuSans-74" transform="translate(286.279297 0)"/>
     <use xlink:href="#DejaVuSans-6f" transform="translate(325.488281 0)"/>
     <use xlink:href="#DejaVuSans-74" transform="translate(386.669922 0)"/>
     <use xlink:href="#DejaVuSans-61" transform="translate(425.878906 0)"/>
     <use xlink:href="#DejaVuSans-6c" transform="translate(487.158203 0)"/>
     <use xlink:href="#DejaVuSans-20" transform="translate(514.941406 0)"/>
     <use xlink:href="#DejaVuSans-72" transform="translate(546.728516 0)"/>
     <use xlink:href="#DejaVuSans-65" transform="translate(585.591797 0)"/>
     <use xlink:href="#DejaVuSans-67" transform="translate(647.115234 0)"/>
     <use xlink:href="#DejaVuSans-73" transform="translate(710.591797 0)"/>
     <use xlink:href="#DejaVuSans-20" transform="translate(762.691406 0)"/>
     <use xlink:href="#DejaVuSans-28" transform="translate(794.478516 0)"/>
     <use xlink:href="#DejaVuSans-32" transform="translate(833.492188 0)"/>
     <use xlink:href="#DejaVuSans-31" transform="translate(897.115234 0)"/>
     <use xlink:href="#DejaVuSans-36" transform="translate(960.738281 0)"/>
     <use xlink:href="#DejaVuSans-38" transform="translate(1024.361328 0)"/>
     <use xlink:href="#DejaVuSans-20" transform="translate(1087.984375 0)"/>
     <use xlink:href="#DejaVuSans-6e" transform="translate(1119.771484 0)"/>
     <use xlink:href="#DejaVuSans-6f" transform="translate(1183.150391 0)"/>
     <use xlink:href="#DejaVuSans-72" transform="translate(1244.332031 0)"/>
     <use xlink:href="#DejaVuSans-6d" transform="translate(1283.695312 0)"/>
     <use xlink:href="#DejaVuSans-61" transform="translate(1381.107422 0)"/>
     <use xlink:href="#DejaVuSans-6c" transform="translate(1442.386719 0)"/>
     <use xlink:href="#DejaVuSans-2c" transform="translate(1470.169922 0)"/>
     <use xlink:href="#DejaVuSans-20" transform="translate(1501.957031 0)"/>
     <use xlink:href="#DejaVuSans-34" transform="translate(1533.744141 0)"/>
     <use xlink:href="#DejaVuSans-38" transform="translate(1597.367188 0)"/>
     <use xlink:href="#DejaVuSans-34" transform="translate(1660.990234 0)"/>
     <use xlink:href="#DejaVuSans-20" transform="translate(1724.613281 0)"/>
     <use xlink:href="#DejaVuSans-73" transform="translate(1756.400391 0)"/>
     <use xlink:href="#DejaVuSans-70" transform="translate(1808.5 0)"/>
     <use xlink:href="#DejaVuSans-6f" transform="translate(1871.976562 0)"/>
     <use xlink:href="#DejaVuSans-6e" transform="translate(1933.158203 0)"/>
     <use xlink:href="#DejaVuSans-73" transform="translate(1996.537109 0)"/>
     <use xlink:href="#DejaVuSans-6f" transform="translate(2048.636719 0)"/>
     <use xlink:href="#DejaVuSans-72" transform="translate(2109.818359 0)"/>
     <use xlink:href="#DejaVuSans-73" transform="translate(2150.931641 0)"/>
     <use xlink:href="#DejaVuSans-2c" transform="translate(2203.03125 0)"/>
     <use xlink:href="#DejaVuSans-20" transform="translate(2234.818359 0)"/>
     <use xlink:href="#DejaVuSans-34" transform="translate(2266.605469 0)"/>
     <use xlink:href="#DejaVuSans-34" transform="translate(2330.228516 0)"/>
     <use xlink:href="#DejaVuSans-34" transform="translate(2393.851562 0)"/>
     <use xlink:href="#DejaVuSans-20" transform="translate(2457.474609 0)"/>
     <use xlink:href="#DejaVuSans-73" transform="translate(2489.261719 0)"/>
     <use xlink:href="#DejaVuSans-75" transform="translate(2541.361328 0)"/>
     <use xlink:href="#DejaVuSans-70" transform="translate(2604.740234 0)"/>
     <use xlink:href="#DejaVuSans-65" transform="translate(2668.216797 0)"/>
     <use xlink:href="#DejaVuSans-72" transform="translate(2729.740234 0)"/>
     <use xlink:href="#DejaVuSans-73" transform="translate(2770.853516 0)"/>
     <use xlink:href="#DejaVuSans-70" transform="translate(2822.953125 0)"/>
     <use xlink:href="#DejaVuSans-6f" transform="translate(2886.429688 0)"/>
     <use xlink:href="#DejaVuSans-6e" transform="translate(2947.611328 0)"/>
     <use xlink:href="#DejaVuSans-73" transform="translate(3010.990234 0)"/>
     <use xlink:href="#DejaVuSans-6f" transform="translate(3063.089844 0)"/>
     <use xlink:href="#DejaVuSans-72" transform="translate(3124.271484 0)"/>
     <use xlink:href="#DejaVuSans-73" transform="translate(3165.384766 0)"/>
     <use xlink:href="#DejaVuSans-29" transform="translate(3217.484375 0)"/>
     <use xlink:href="#DejaVuSans-2e" transform="translate(3256.498047 0)"/>
    </g>
   </g>
   <g id="legend_2">
    <g id="patch_15">
     <path d="M 652.835666 32.097656 
L 682.835666 32.097656 
L 682.835666 21.597656 
L 652.835666 21.597656 
z
" style="fill: #a2c5c4"/>
    </g>
    <g id="text_23">
     <!-- Normal -->
     <g transform="translate(694.835666 32.097656) scale(0.15 -0.15)">
      <defs>
       <path id="DejaVuSans-4e" d="M 628 4666 
L 1478 4666 
L 3547 763 
L 3547 4666 
L 4159 4666 
L 4159 0 
L 3309 0 
L 1241 3903 
L 1241 0 
L 628 0 
L 628 4666 
z
" transform="scale(0.015625)"/>
      </defs>
      <use xlink:href="#DejaVuSans-4e"/>
      <use xlink:href="#DejaVuSans-6f" transform="translate(74.804688 0)"/>
      <use xlink:href="#DejaVuSans-72" transform="translate(135.986328 0)"/>
      <use xlink:href="#DejaVuSans-6d" transform="translate(175.349609 0)"/>
      <use xlink:href="#DejaVuSans-61" transform="translate(272.761719 0)"/>
      <use xlink:href="#DejaVuSans-6c" transform="translate(334.041016 0)"/>
     </g>
    </g>
    <g id="patch_16">
     <path d="M 652.835666 54.114844 
L 682.835666 54.114844 
L 682.835666 43.614844 
L 652.835666 43.614844 
z
" style="fill: #69a3a2"/>
    </g>
    <g id="text_24">
     <!-- Sponsor -->
     <g transform="translate(694.835666 54.114844) scale(0.15 -0.15)">
      <defs>
       <path id="DejaVuSans-53" d="M 3425 4513 
L 3425 3897 
Q 3066 4069 2747 4153 
Q 2428 4238 2131 4238 
Q 1616 4238 1336 4038 
Q 1056 3838 1056 3469 
Q 1056 3159 1242 3001 
Q 1428 2844 1947 2747 
L 2328 2669 
Q 3034 2534 3370 2195 
Q 3706 1856 3706 1288 
Q 3706 609 3251 259 
Q 2797 -91 1919 -91 
Q 1588 -91 1214 -16 
Q 841 59 441 206 
L 441 856 
Q 825 641 1194 531 
Q 1563 422 1919 422 
Q 2459 422 2753 634 
Q 3047 847 3047 1241 
Q 3047 1584 2836 1778 
Q 2625 1972 2144 2069 
L 1759 2144 
Q 1053 2284 737 2584 
Q 422 2884 422 3419 
Q 422 4038 858 4394 
Q 1294 4750 2059 4750 
Q 2388 4750 2728 4690 
Q 3069 4631 3425 4513 
z
" transform="scale(0.015625)"/>
      </defs>
      <use xlink:href="#DejaVuSans-53"/>
      <use xlink:href="#DejaVuSans-70" transform="translate(63.476562 0)"/>
      <use xlink:href="#DejaVuSans-6f" transform="translate(126.953125 0)"/>
      <use xlink:href="#DejaVuSans-6e" transform="translate(188.134766 0)"/>
      <use xlink:href="#DejaVuSans-73" transform="translate(251.513672 0)"/>
      <use xlink:href="#DejaVuSans-6f" transform="translate(303.613281 0)"/>
      <use xlink:href="#DejaVuSans-72" transform="translate(364.794922 0)"/>
     </g>
    </g>
    <g id="patch_17">
     <path d="M 785.723947 32.097656 
L 815.723947 32.097656 
L 815.723947 21.597656 
L 785.723947 21.597656 
z
" style="fill: #005953"/>
    </g>
    <g id="text_25">
     <!-- Supersponsor -->
     <g transform="translate(827.723947 32.097656) scale(0.15 -0.15)">
      <use xlink:href="#DejaVuSans-53"/>
      <use xlink:href="#DejaVuSans-75" transform="translate(63.476562 0)"/>
      <use xlink:href="#DejaVuSans-70" transform="translate(126.855469 0)"/>
      <use xlink:href="#DejaVuSans-65" transform="translate(190.332031 0)"/>
      <use xlink:href="#DejaVuSans-72" transform="translate(251.855469 0)"/>
      <use xlink:href="#DejaVuSans-73" transform="translate(292.96875 0)"/>
      <use xlink:href="#DejaVuSans-70" transform="translate(345.068359 0)"/>
      <use xlink:href="#DejaVuSans-6f" transform="translate(408.544922 0)"/>
      <use xlink:href="#DejaVuSans-6e" transform="translate(469.726562 0)"/>
      <use xlink:href="#DejaVuSans-73" transform="translate(533.105469 0)"/>
      <use xlink:href="#DejaVuSans-6f" transform="translate(585.205078 0)"/>
      <use xlink:href="#DejaVuSans-72" transform="translate(646.386719 0)"/>
     </g>
    </g>
   </g>
  </g>
  <g id="axes_3">
   <g id="patch_18">
    <path d="M 136.8 838.8 
L 500.713043 838.8 
L 500.713043 477.234783 
L 136.8 477.234783 
z
" style="fill: #ffffff"/>
   </g>
   <g id="matplotlib.axis_5">
    <g id="xtick_11">
     <g id="line2d_20">
      <g>
       <use xlink:href="#m424d229e8a" x="143.93555" y="838.8" style="stroke: #000000; stroke-width: 0.8"/>
      </g>
     </g>
     <g id="text_26">
      <!-- 0 -->
      <g transform="translate(137.57305 867.496875) scale(0.2 -0.2)">
       <use xlink:href="#DejaVuSans-30"/>
      </g>
     </g>
    </g>
    <g id="xtick_12">
     <g id="line2d_21">
      <g>
       <use xlink:href="#m424d229e8a" x="215.291049" y="838.8" style="stroke: #000000; stroke-width: 0.8"/>
      </g>
     </g>
     <g id="text_27">
      <!-- 50 -->
      <g transform="translate(202.566049 867.496875) scale(0.2 -0.2)">
       <use xlink:href="#DejaVuSans-35"/>
       <use xlink:href="#DejaVuSans-30" transform="translate(63.623047 0)"/>
      </g>
     </g>
    </g>
    <g id="xtick_13">
     <g id="line2d_22">
      <g>
       <use xlink:href="#m424d229e8a" x="286.646547" y="838.8" style="stroke: #000000; stroke-width: 0.8"/>
      </g>
     </g>
     <g id="text_28">
      <!-- 100 -->
      <g transform="translate(267.559047 867.496875) scale(0.2 -0.2)">
       <use xlink:href="#DejaVuSans-31"/>
       <use xlink:href="#DejaVuSans-30" transform="translate(63.623047 0)"/>
       <use xlink:href="#DejaVuSans-30" transform="translate(127.246094 0)"/>
      </g>
     </g>
    </g>
    <g id="xtick_14">
     <g id="line2d_23">
      <g>
       <use xlink:href="#m424d229e8a" x="358.002046" y="838.8" style="stroke: #000000; stroke-width: 0.8"/>
      </g>
     </g>
     <g id="text_29">
      <!-- 150 -->
      <g transform="translate(338.914546 867.496875) scale(0.2 -0.2)">
       <use xlink:href="#DejaVuSans-31"/>
       <use xlink:href="#DejaVuSans-35" transform="translate(63.623047 0)"/>
       <use xlink:href="#DejaVuSans-30" transform="translate(127.246094 0)"/>
      </g>
     </g>
    </g>
    <g id="xtick_15">
     <g id="line2d_24">
      <g>
       <use xlink:href="#m424d229e8a" x="429.357545" y="838.8" style="stroke: #000000; stroke-width: 0.8"/>
      </g>
     </g>
     <g id="text_30">
      <!-- 200 -->
      <g transform="translate(410.270045 867.496875) scale(0.2 -0.2)">
       <use xlink:href="#DejaVuSans-32"/>
       <use xlink:href="#DejaVuSans-30" transform="translate(63.623047 0)"/>
       <use xlink:href="#DejaVuSans-30" transform="translate(127.246094 0)"/>
      </g>
     </g>
    </g>
    <g id="xtick_16">
     <g id="line2d_25">
      <g>
       <use xlink:href="#m424d229e8a" x="500.713043" y="838.8" style="stroke: #000000; stroke-width: 0.8"/>
      </g>
     </g>
     <g id="text_31">
      <!-- 250 -->
      <g transform="translate(481.625543 867.496875) scale(0.2 -0.2)">
       <use xlink:href="#DejaVuSans-32"/>
       <use xlink:href="#DejaVuSans-35" transform="translate(63.623047 0)"/>
       <use xlink:href="#DejaVuSans-30" transform="translate(127.246094 0)"/>
      </g>
     </g>
    </g>
    <g id="text_32">
     <!-- Day After Reg Opening -->
     <g transform="translate(204.292459 896.853125) scale(0.2 -0.2)">
      <defs>
       <path id="DejaVuSans-44" d="M 1259 4147 
L 1259 519 
L 2022 519 
Q 2988 519 3436 956 
Q 3884 1394 3884 2338 
Q 3884 3275 3436 3711 
Q 2988 4147 2022 4147 
L 1259 4147 
z
M 628 4666 
L 1925 4666 
Q 3281 4666 3915 4102 
Q 4550 3538 4550 2338 
Q 4550 1131 3912 565 
Q 3275 0 1925 0 
L 628 0 
L 628 4666 
z
" transform="scale(0.015625)"/>
       <path id="DejaVuSans-52" d="M 2841 2188 
Q 3044 2119 3236 1894 
Q 3428 1669 3622 1275 
L 4263 0 
L 3584 0 
L 2988 1197 
Q 2756 1666 2539 1819 
Q 2322 1972 1947 1972 
L 1259 1972 
L 1259 0 
L 628 0 
L 628 4666 
L 2053 4666 
Q 2853 4666 3247 4331 
Q 3641 3997 3641 3322 
Q 3641 2881 3436 2590 
Q 3231 2300 2841 2188 
z
M 1259 4147 
L 1259 2491 
L 2053 2491 
Q 2509 2491 2742 2702 
Q 2975 2913 2975 3322 
Q 2975 3731 2742 3939 
Q 2509 4147 2053 4147 
L 1259 4147 
z
" transform="scale(0.015625)"/>
       <path id="DejaVuSans-4f" d="M 2522 4238 
Q 1834 4238 1429 3725 
Q 1025 3213 1025 2328 
Q 1025 1447 1429 934 
Q 1834 422 2522 422 
Q 3209 422 3611 934 
Q 4013 1447 4013 2328 
Q 4013 3213 3611 3725 
Q 3209 4238 2522 4238 
z
M 2522 4750 
Q 3503 4750 4090 4092 
Q 4678 3434 4678 2328 
Q 4678 1225 4090 567 
Q 3503 -91 2522 -91 
Q 1538 -91 948 565 
Q 359 1222 359 2328 
Q 359 3434 948 4092 
Q 1538 4750 2522 4750 
z
" transform="scale(0.015625)"/>
      </defs>
      <use xlink:href="#DejaVuSans-44"/>
      <use xlink:href="#DejaVuSans-61" transform="translate(77.001953 0)"/>
      <use xlink:href="#DejaVuSans-79" transform="translate(138.28125 0)"/>
      <use xlink:href="#DejaVuSans-20" transform="translate(197.460938 0)"/>
      <use xlink:href="#DejaVuSans-41" transform="translate(229.248047 0)"/>
      <use xlink:href="#DejaVuSans-66" transform="translate(294.03125 0)"/>
      <use xlink:href="#DejaVuSans-74" transform="translate(327.486328 0)"/>
      <use xlink:href="#DejaVuSans-65" transform="translate(366.695312 0)"/>
      <use xlink:href="#DejaVuSans-72" transform="translate(428.21875 0)"/>
      <use xlink:href="#DejaVuSans-20" transform="translate(469.332031 0)"/>
      <use xlink:href="#DejaVuSans-52" transform="translate(501.119141 0)"/>
      <use xlink:href="#DejaVuSans-65" transform="translate(566.101562 0)"/>
      <use xlink:href="#DejaVuSans-67" transform="translate(627.625 0)"/>
      <use xlink:href="#DejaVuSans-20" transform="translate(691.101562 0)"/>
      <use xlink:href="#DejaVuSans-4f" transform="translate(722.888672 0)"/>
      <use xlink:href="#DejaVuSans-70" transform="translate(801.599609 0)"/>
      <use xlink:href="#DejaVuSans-65" transform="translate(865.076172 0)"/>
      <use xlink:href="#DejaVuSans-6e" transform="translate(926.599609 0)"/>
      <use xlink:href="#DejaVuSans-69" transform="translate(989.978516 0)"/>
      <use xlink:href="#DejaVuSans-6e" transform="translate(1017.761719 0)"/>
      <use xlink:href="#DejaVuSans-67" transform="translate(1081.140625 0)"/>
     </g>
    </g>
   </g>
   <g id="matplotlib.axis_6">
    <g id="ytick_6">
     <g id="line2d_26">
      <g>
       <use xlink:href="#mceb3236efb" x="136.8" y="838.8" style="stroke: #000000; stroke-width: 0.8"/>
      </g>
     </g>
     <g id="text_33">
      <!-- 0 -->
      <g transform="translate(110.575 846.398438) scale(0.2 -0.2)">
       <use xlink:href="#DejaVuSans-30"/>
      </g>
     </g>
    </g>
    <g id="ytick_7">
     <g id="line2d_27">
      <g>
       <use xlink:href="#mceb3236efb" x="136.8" y="778.53913" style="stroke: #000000; stroke-width: 0.8"/>
      </g>
     </g>
     <g id="text_34">
      <!-- 1000 -->
      <g transform="translate(72.4 786.137568) scale(0.2 -0.2)">
       <use xlink:href="#DejaVuSans-31"/>
       <use xlink:href="#DejaVuSans-30" transform="translate(63.623047 0)"/>
       <use xlink:href="#DejaVuSans-30" transform="translate(127.246094 0)"/>
       <use xlink:href="#DejaVuSans-30" transform="translate(190.869141 0)"/>
      </g>
     </g>
    </g>
    <g id="ytick_8">
     <g id="line2d_28">
      <g>
       <use xlink:href="#mceb3236efb" x="136.8" y="718.278261" style="stroke: #000000; stroke-width: 0.8"/>
      </g>
     </g>
     <g id="text_35">
      <!-- 2000 -->
      <g transform="translate(72.4 725.876698) scale(0.2 -0.2)">
       <use xlink:href="#DejaVuSans-32"/>
       <use xlink:href="#DejaVuSans-30" transform="translate(63.623047 0)"/>
       <use xlink:href="#DejaVuSans-30" transform="translate(127.246094 0)"/>
       <use xlink:href="#DejaVuSans-30" transform="translate(190.869141 0)"/>
      </g>
     </g>
    </g>
    <g id="ytick_9">
     <g id="line2d_29">
      <g>
       <use xlink:href="#mceb3236efb" x="136.8" y="658.017391" style="stroke: #000000; stroke-width: 0.8"/>
      </g>
     </g>
     <g id="text_36">
      <!-- 3000 -->
      <g transform="translate(72.4 665.615829) scale(0.2 -0.2)">
       <use xlink:href="#DejaVuSans-33"/>
       <use xlink:href="#DejaVuSans-30" transform="translate(63.623047 0)"/>
       <use xlink:href="#DejaVuSans-30" transform="translate(127.246094 0)"/>
       <use xlink:href="#DejaVuSans-30" transform="translate(190.869141 0)"/>
      </g>
     </g>
    </g>
    <g id="ytick_10">
     <g id="line2d_30">
      <g>
       <use xlink:href="#mceb3236efb" x="136.8" y="597.756522" style="stroke: #000000; stroke-width: 0.8"/>
      </g>
     </g>
     <g id="text_37">
      <!-- 4000 -->
      <g transform="translate(72.4 605.354959) scale(0.2 -0.2)">
       <use xlink:href="#DejaVuSans-34"/>
       <use xlink:href="#DejaVuSans-30" transform="translate(63.623047 0)"/>
       <use xlink:href="#DejaVuSans-30" transform="translate(127.246094 0)"/>
       <use xlink:href="#DejaVuSans-30" transform="translate(190.869141 0)"/>
      </g>
     </g>
    </g>
    <g id="ytick_11">
     <g id="line2d_31">
      <g>
       <use xlink:href="#mceb3236efb" x="136.8" y="537.495652" style="stroke: #000000; stroke-width: 0.8"/>
      </g>
     </g>
     <g id="text_38">
      <!-- 5000 -->
      <g transform="translate(72.4 545.09409) scale(0.2 -0.2)">
       <use xlink:href="#DejaVuSans-35"/>
       <use xlink:href="#DejaVuSans-30" transform="translate(63.623047 0)"/>
       <use xlink:href="#DejaVuSans-30" transform="translate(127.246094 0)"/>
       <use xlink:href="#DejaVuSans-30" transform="translate(190.869141 0)"/>
      </g>
     </g>
    </g>
    <g id="ytick_12">
     <g id="line2d_32">
      <g>
       <use xlink:href="#mceb3236efb" x="136.8" y="477.234783" style="stroke: #000000; stroke-width: 0.8"/>
      </g>
     </g>
     <g id="text_39">
      <!-- 6000 -->
      <g transform="translate(72.4 484.83322) scale(0.2 -0.2)">
       <use xlink:href="#DejaVuSans-36"/>
       <use xlink:href="#DejaVuSans-30" transform="translate(63.623047 0)"/>
       <use xlink:href="#DejaVuSans-30" transform="translate(127.246094 0)"/>
       <use xlink:href="#DejaVuSans-30" transform="translate(190.869141 0)"/>
      </g>
     </g>
    </g>
    <g id="text_40">
     <!-- Total Regs -->
     <g transform="translate(58.240625 708.758016) rotate(-90) scale(0.2 -0.2)">
      <use xlink:href="#DejaVuSans-54"/>
      <use xlink:href="#DejaVuSans-6f" transform="translate(44.083984 0)"/>
      <use xlink:href="#DejaVuSans-74" transform="translate(105.265625 0)"/>
      <use xlink:href="#DejaVuSans-61" transform="translate(144.474609 0)"/>
      <use xlink:href="#DejaVuSans-6c" transform="translate(205.753906 0)"/>
      <use xlink:href="#DejaVuSans-20" transform="translate(233.537109 0)"/>
      <use xlink:href="#DejaVuSans-52" transform="translate(265.324219 0)"/>
      <use xlink:href="#DejaVuSans-65" transform="translate(330.306641 0)"/>
      <use xlink:href="#DejaVuSans-67" transform="translate(391.830078 0)"/>
      <use xlink:href="#DejaVuSans-73" transform="translate(455.306641 0)"/>
     </g>
    </g>
   </g>
   <g id="line2d_33">
    <path d="M 139.65422 825.482348 
L 141.08133 823.975826 
L 142.50844 821.806435 
L 143.93555 740.213217 
L 145.36266 724.304348 
L 146.78977 718.579565 
L 148.21688 714.120261 
L 149.64399 710.203304 
L 152.49821 705.563217 
L 153.92532 702.730957 
L 155.35243 700.682087 
L 156.77954 698.874261 
L 158.20665 695.680435 
L 159.63376 693.209739 
L 163.91509 688.268348 
L 165.342199 687.183652 
L 166.769309 686.279739 
L 168.196419 684.893739 
L 169.623529 683.025652 
L 171.050639 680.735739 
L 172.477749 679.470261 
L 175.331969 675.794348 
L 176.759079 674.649391 
L 178.186189 672.178696 
L 181.040409 664.585826 
L 182.467519 658.017391 
L 183.894629 647.351217 
L 185.321739 645.543391 
L 188.175959 642.831652 
L 189.603069 648.19487 
L 192.457289 646.025478 
L 193.884399 645.362609 
L 195.311509 644.458696 
L 196.738619 643.072696 
L 198.165729 642.470087 
L 199.592839 642.891913 
L 202.447059 641.32513 
L 205.301279 640.722522 
L 208.155499 639.095478 
L 209.582609 639.396783 
L 211.009719 639.276261 
L 215.291049 638.191565 
L 216.718159 637.408174 
L 218.145269 636.805565 
L 219.572379 638.673652 
L 222.426598 637.287652 
L 223.853708 636.865826 
L 225.280818 636.323478 
L 228.135038 634.696435 
L 229.562148 633.551478 
L 230.989258 633.611739 
L 232.416368 633.250174 
L 235.270588 632.105217 
L 236.697698 631.743652 
L 238.124808 630.839739 
L 239.551918 631.201304 
L 240.979028 630.719217 
L 242.406138 630.478174 
L 243.833248 629.935826 
L 245.260358 629.514 
L 246.687468 628.549826 
L 248.114578 628.489565 
L 249.541688 628.308783 
L 250.968798 628.007478 
L 252.395908 627.585652 
L 253.823018 627.40487 
L 255.250128 626.681739 
L 256.677238 626.259913 
L 258.104348 626.01887 
L 259.531458 626.259913 
L 260.958568 625.295739 
L 263.812788 624.271304 
L 266.667008 623.487913 
L 268.094118 623.126348 
L 269.521228 623.789217 
L 270.948338 623.487913 
L 273.802558 622.342957 
L 275.229668 621.378783 
L 276.656777 620.595391 
L 278.083887 620.113304 
L 279.510997 619.390174 
L 280.938107 618.124696 
L 283.792327 617.100261 
L 285.219437 616.678435 
L 286.646547 616.497652 
L 288.073657 615.834783 
L 289.500767 615.834783 
L 290.927877 615.051391 
L 292.354987 614.810348 
L 293.782097 614.448783 
L 295.209207 613.966696 
L 296.636317 613.60513 
L 298.063427 612.821739 
L 299.490537 611.857565 
L 303.771867 609.627913 
L 306.626087 607.699565 
L 308.053197 605.952 
L 309.480307 604.626261 
L 310.907417 603.722348 
L 312.334527 602.45687 
L 315.188747 593.538261 
L 316.615857 592.75487 
L 318.042967 592.152261 
L 319.470077 591.971478 
L 322.324297 591.188087 
L 323.751407 591.007304 
L 325.178517 590.585478 
L 326.605627 590.344435 
L 328.032737 589.561043 
L 329.459847 589.561043 
L 330.886957 589.018696 
L 332.314066 588.777652 
L 333.741176 587.934 
L 335.168286 587.331391 
L 336.595396 587.090348 
L 338.022506 586.728783 
L 339.449616 586.728783 
L 340.876726 586.427478 
L 342.303836 586.306957 
L 343.730946 585.88513 
L 345.158056 585.222261 
L 348.012276 584.318348 
L 349.439386 584.679913 
L 350.866496 583.956783 
L 352.293606 583.05287 
L 353.720716 582.992609 
L 356.574936 581.787391 
L 359.429156 581.064261 
L 360.856266 580.220609 
L 362.283376 578.89487 
L 366.564706 576.484435 
L 372.273146 573.712435 
L 373.700256 573.049565 
L 375.127366 572.688 
L 376.554476 572.205913 
L 377.981586 571.362261 
L 379.408696 570.819913 
L 380.835806 570.57887 
L 382.262916 570.096783 
L 383.690026 569.313391 
L 386.544246 568.53 
L 387.971355 567.80687 
L 389.398465 568.53 
L 392.252685 567.264522 
L 395.106905 566.661913 
L 396.534015 566.48113 
L 397.961125 565.818261 
L 399.388235 565.516957 
L 400.815345 564.191217 
L 402.242455 563.287304 
L 403.669565 562.805217 
L 405.096675 561.901304 
L 407.950895 560.515304 
L 409.378005 559.310087 
L 410.805115 558.767739 
L 419.367775 554.911043 
L 420.794885 554.549478 
L 422.221995 553.705826 
L 423.649105 553.103217 
L 425.076215 552.259565 
L 426.503325 551.837739 
L 427.930435 550.873565 
L 429.357545 550.090174 
L 430.784655 548.40287 
L 432.211765 547.981043 
L 433.638875 547.438696 
L 435.065985 546.655304 
L 436.493095 546.354 
L 437.920205 545.811652 
L 439.347315 545.510348 
L 440.774425 545.028261 
L 442.201535 543.943565 
L 445.055754 542.196 
L 447.909974 539.303478 
L 449.337084 538.580348 
L 453.618414 534.482609 
L 456.472634 533.15687 
L 459.326854 531.469565 
L 460.753964 530.806696 
L 462.181074 529.722 
L 463.608184 528.396261 
L 465.035294 527.552609 
L 467.889514 524.780609 
L 469.316624 523.394609 
L 470.743734 521.104696 
L 472.170844 517.006957 
L 475.025064 511.884783 
L 476.452174 509.293565 
L 477.879284 509.293565 
L 479.306394 511.161652 
L 480.733504 511.161652 
L 480.733504 511.161652 
" clip-path="url(#p571897c03b)" style="fill: none; stroke: #69a3a2; stroke-width: 2; stroke-linecap: square"/>
   </g>
   <g id="LineCollection_2">
    <path d="M 429.357545 838.8 
L 429.357545 236.191304 
" clip-path="url(#p571897c03b)" style="fill: none; stroke-dasharray: 1.5,2.475; stroke-dashoffset: 0; stroke: #808080; stroke-width: 1.5"/>
   </g>
   <g id="patch_19">
    <path d="M 136.8 838.8 
L 136.8 477.234783 
" style="fill: none; stroke: #000000; stroke-width: 0.8; stroke-linejoin: miter; stroke-linecap: square"/>
   </g>
   <g id="patch_20">
    <path d="M 500.713043 838.8 
L 500.713043 477.234783 
" style="fill: none; stroke: #000000; stroke-width: 0.8; stroke-linejoin: miter; stroke-linecap: square"/>
   </g>
   <g id="patch_21">
    <path d="M 136.8 838.8 
L 500.713043 838.8 
" style="fill: none; stroke: #000000; stroke-width: 0.8; stroke-linejoin: miter; stroke-linecap: square"/>
   </g>
   <g id="patch_22">
    <path d="M 136.8 477.234783 
L 500.713043 477.234783 
" style="fill: none; stroke: #000000; stroke-width: 0.8; stroke-linejoin: miter; stroke-linecap: square"/>
   </g>
   <g id="text_41">
    <!-- Last update 2025-02-26 17:28:47 (UTC). -->
    <g transform="translate(5.4 947.92125) scale(0.066667 -0.066667)">
     <defs>
      <path id="DejaVuSans-4c" d="M 628 4666 
L 1259 4666 
L 1259 531 
L 3531 531 
L 3531 0 
L 628 0 
L 628 4666 
z
" transform="scale(0.015625)"/>
      <path id="DejaVuSans-2d" d="M 313 2009 
L 1997 2009 
L 1997 1497 
L 313 1497 
L 313 2009 
z
" transform="scale(0.015625)"/>
      <path id="DejaVuSans-3a" d="M 750 794 
L 1409 794 
L 1409 0 
L 750 0 
L 750 794 
z
M 750 3309 
L 1409 3309 
L 1409 2516 
L 750 2516 
L 750 3309 
z
" transform="scale(0.015625)"/>
      <path id="DejaVuSans-55" d="M 556 4666 
L 1191 4666 
L 1191 1831 
Q 1191 1081 1462 751 
Q 1734 422 2344 422 
Q 2950 422 3222 751 
Q 3494 1081 3494 1831 
L 3494 4666 
L 4128 4666 
L 4128 1753 
Q 4128 841 3676 375 
Q 3225 -91 2344 -91 
Q 1459 -91 1007 375 
Q 556 841 556 1753 
L 556 4666 
z
" transform="scale(0.015625)"/>
     </defs>
     <use xlink:href="#DejaVuSans-4c"/>
     <use xlink:href="#DejaVuSans-61" transform="translate(55.712891 0)"/>
     <use xlink:href="#DejaVuSans-73" transform="translate(116.992188 0)"/>
     <use xlink:href="#DejaVuSans-74" transform="translate(169.091797 0)"/>
     <use xlink:href="#DejaVuSans-20" transform="translate(208.300781 0)"/>
     <use xlink:href="#DejaVuSans-75" transform="translate(240.087891 0)"/>
     <use xlink:href="#DejaVuSans-70" transform="translate(303.466797 0)"/>
     <use xlink:href="#DejaVuSans-64" transform="translate(366.943359 0)"/>
     <use xlink:href="#DejaVuSans-61" transform="translate(430.419922 0)"/>
     <use xlink:href="#DejaVuSans-74" transform="translate(491.699219 0)"/>
     <use xlink:href="#DejaVuSans-65" transform="translate(530.908203 0)"/>
     <use xlink:href="#DejaVuSans-20" transform="translate(592.431641 0)"/>
     <use xlink:href="#DejaVuSans-32" transform="translate(624.21875 0)"/>
     <use xlink:href="#DejaVuSans-30" transform="translate(687.841797 0)"/>
     <use xlink:href="#DejaVuSans-32" transform="translate(751.464844 0)"/>
     <use xlink:href="#DejaVuSans-35" transform="translate(815.087891 0)"/>
     <use xlink:href="#DejaVuSans-2d" transform="translate(878.710938 0)"/>
     <use xlink:href="#DejaVuSans-30" transform="translate(914.794922 0)"/>
     <use xlink:href="#DejaVuSans-32" transform="translate(978.417969 0)"/>
     <use xlink:href="#DejaVuSans-2d" transform="translate(1042.041016 0)"/>
     <use xlink:href="#DejaVuSans-32" transform="translate(1078.125 0)"/>
     <use xlink:href="#DejaVuSans-36" transform="translate(1141.748047 0)"/>
     <use xlink:href="#DejaVuSans-20" transform="translate(1205.371094 0)"/>
     <use xlink:href="#DejaVuSans-31" transform="translate(1237.158203 0)"/>
     <use xlink:href="#DejaVuSans-37" transform="translate(1300.78125 0)"/>
     <use xlink:href="#DejaVuSans-3a" transform="translate(1364.404297 0)"/>
     <use xlink:href="#DejaVuSans-32" transform="translate(1398.095703 0)"/>
     <use xlink:href="#DejaVuSans-38" transform="translate(1461.71875 0)"/>
     <use xlink:href="#DejaVuSans-3a" transform="translate(1525.341797 0)"/>
     <use xlink:href="#DejaVuSans-34" transform="translate(1559.033203 0)"/>
     <use xlink:href="#DejaVuSans-37" transform="translate(1622.65625 0)"/>
     <use xlink:href="#DejaVuSans-20" transform="translate(1686.279297 0)"/>
     <use xlink:href="#DejaVuSans-28" transform="translate(1718.066406 0)"/>
     <use xlink:href="#DejaVuSans-55" transform="translate(1757.080078 0)"/>
     <use xlink:href="#DejaVuSans-54" transform="translate(1830.273438 0)"/>
     <use xlink:href="#DejaVuSans-43" transform="translate(1885.482422 0)"/>
     <use xlink:href="#DejaVuSans-29" transform="translate(1955.306641 0)"/>
     <use xlink:href="#DejaVuSans-2e" transform="translate(1994.320312 0)"/>
    </g>
    <!-- For questions, contact @GermanCoyote. -->
    <g transform="translate(5.4 955.386458) scale(0.066667 -0.066667)">
     <defs>
      <path id="DejaVuSans-71" d="M 947 1747 
Q 947 1113 1208 752 
Q 1469 391 1925 391 
Q 2381 391 2643 752 
Q 2906 1113 2906 1747 
Q 2906 2381 2643 2742 
Q 2381 3103 1925 3103 
Q 1469 3103 1208 2742 
Q 947 2381 947 1747 
z
M 2906 525 
Q 2725 213 2448 61 
Q 2172 -91 1784 -91 
Q 1150 -91 751 415 
Q 353 922 353 1747 
Q 353 2572 751 3078 
Q 1150 3584 1784 3584 
Q 2172 3584 2448 3432 
Q 2725 3281 2906 2969 
L 2906 3500 
L 3481 3500 
L 3481 -1331 
L 2906 -1331 
L 2906 525 
z
" transform="scale(0.015625)"/>
      <path id="DejaVuSans-40" d="M 2381 1678 
Q 2381 1231 2603 976 
Q 2825 722 3213 722 
Q 3597 722 3817 978 
Q 4038 1234 4038 1678 
Q 4038 2116 3813 2373 
Q 3588 2631 3206 2631 
Q 2828 2631 2604 2375 
Q 2381 2119 2381 1678 
z
M 4084 744 
Q 3897 503 3655 389 
Q 3413 275 3091 275 
Q 2553 275 2217 664 
Q 1881 1053 1881 1678 
Q 1881 2303 2218 2693 
Q 2556 3084 3091 3084 
Q 3413 3084 3656 2967 
Q 3900 2850 4084 2613 
L 4084 3022 
L 4531 3022 
L 4531 722 
Q 4988 791 5245 1139 
Q 5503 1488 5503 2041 
Q 5503 2375 5404 2669 
Q 5306 2963 5106 3213 
Q 4781 3622 4314 3839 
Q 3847 4056 3297 4056 
Q 2913 4056 2559 3954 
Q 2206 3853 1906 3653 
Q 1416 3334 1139 2817 
Q 863 2300 863 1697 
Q 863 1200 1042 765 
Q 1222 331 1563 0 
Q 1891 -325 2322 -495 
Q 2753 -666 3244 -666 
Q 3647 -666 4036 -530 
Q 4425 -394 4750 -141 
L 5031 -488 
Q 4641 -791 4180 -952 
Q 3719 -1113 3244 -1113 
Q 2666 -1113 2153 -908 
Q 1641 -703 1241 -313 
Q 841 78 631 592 
Q 422 1106 422 1697 
Q 422 2266 634 2781 
Q 847 3297 1241 3688 
Q 1644 4084 2172 4295 
Q 2700 4506 3291 4506 
Q 3953 4506 4520 4234 
Q 5088 3963 5472 3463 
Q 5706 3156 5829 2797 
Q 5953 2438 5953 2053 
Q 5953 1231 5456 756 
Q 4959 281 4084 263 
L 4084 744 
z
" transform="scale(0.015625)"/>
      <path id="DejaVuSans-47" d="M 3809 666 
L 3809 1919 
L 2778 1919 
L 2778 2438 
L 4434 2438 
L 4434 434 
Q 4069 175 3628 42 
Q 3188 -91 2688 -91 
Q 1594 -91 976 548 
Q 359 1188 359 2328 
Q 359 3472 976 4111 
Q 1594 4750 2688 4750 
Q 3144 4750 3555 4637 
Q 3966 4525 4313 4306 
L 4313 3634 
Q 3963 3931 3569 4081 
Q 3175 4231 2741 4231 
Q 1884 4231 1454 3753 
Q 1025 3275 1025 2328 
Q 1025 1384 1454 906 
Q 1884 428 2741 428 
Q 3075 428 3337 486 
Q 3600 544 3809 666 
z
" transform="scale(0.015625)"/>
     </defs>
     <use xlink:href="#DejaVuSans-46"/>
     <use xlink:href="#DejaVuSans-6f" transform="translate(53.894531 0)"/>
     <use xlink:href="#DejaVuSans-72" transform="translate(115.076172 0)"/>
     <use xlink:href="#DejaVuSans-20" transform="translate(156.189453 0)"/>
     <use xlink:href="#DejaVuSans-71" transform="translate(187.976562 0)"/>
     <use xlink:href="#DejaVuSans-75" transform="translate(251.453125 0)"/>
     <use xlink:href="#DejaVuSans-65" transform="translate(314.832031 0)"/>
     <use xlink:href="#DejaVuSans-73" transform="translate(376.355469 0)"/>
     <use xlink:href="#DejaVuSans-74" transform="translate(428.455078 0)"/>
     <use xlink:href="#DejaVuSans-69" transform="translate(467.664062 0)"/>
     <use xlink:href="#DejaVuSans-6f" transform="translate(495.447266 0)"/>
     <use xlink:href="#DejaVuSans-6e" transform="translate(556.628906 0)"/>
     <use xlink:href="#DejaVuSans-73" transform="translate(620.007812 0)"/>
     <use xlink:href="#DejaVuSans-2c" transform="translate(672.107422 0)"/>
     <use xlink:href="#DejaVuSans-20" transform="translate(703.894531 0)"/>
     <use xlink:href="#DejaVuSans-63" transform="translate(735.681641 0)"/>
     <use xlink:href="#DejaVuSans-6f" transform="translate(790.662109 0)"/>
     <use xlink:href="#DejaVuSans-6e" transform="translate(851.84375 0)"/>
     <use xlink:href="#DejaVuSans-74" transform="translate(915.222656 0)"/>
     <use xlink:href="#DejaVuSans-61" transform="translate(954.431641 0)"/>
     <use xlink:href="#DejaVuSans-63" transform="translate(1015.710938 0)"/>
     <use xlink:href="#DejaVuSans-74" transform="translate(1070.691406 0)"/>
     <use xlink:href="#DejaVuSans-20" transform="translate(1109.900391 0)"/>
     <use xlink:href="#DejaVuSans-40" transform="translate(1141.6875 0)"/>
     <use xlink:href="#DejaVuSans-47" transform="translate(1241.6875 0)"/>
     <use xlink:href="#DejaVuSans-65" transform="translate(1319.177734 0)"/>
     <use xlink:href="#DejaVuSans-72" transform="translate(1380.701172 0)"/>
     <use xlink:href="#DejaVuSans-6d" transform="translate(1420.064453 0)"/>
     <use xlink:href="#DejaVuSans-61" transform="translate(1517.476562 0)"/>
     <use xlink:href="#DejaVuSans-6e" transform="translate(1578.755859 0)"/>
     <use xlink:href="#DejaVuSans-43" transform="translate(1642.134766 0)"/>
     <use xlink:href="#DejaVuSans-6f" transform="translate(1711.958984 0)"/>
     <use xlink:href="#DejaVuSans-79" transform="translate(1773.140625 0)"/>
     <use xlink:href="#DejaVuSans-6f" transform="translate(1832.320312 0)"/>
     <use xlink:href="#DejaVuSans-74" transform="translate(1893.501953 0)"/>
     <use xlink:href="#DejaVuSans-65" transform="translate(1932.710938 0)"/>
     <use xlink:href="#DejaVuSans-2e" transform="translate(1994.234375 0)"/>
    </g>
   </g>
   <g id="legend_3">
    <g id="line2d_34">
     <path d="M 150.3 496.882439 
L 165.3 496.882439 
L 180.3 496.882439 
" style="fill: none; stroke: #005953; stroke-width: 2; stroke-linecap: square"/>
    </g>
    <g id="text_42">
     <!-- 2025 -->
     <g transform="translate(192.3 502.132439) scale(0.15 -0.15)">
      <use xlink:href="#DejaVuSans-32"/>
      <use xlink:href="#DejaVuSans-30" transform="translate(63.623047 0)"/>
      <use xlink:href="#DejaVuSans-32" transform="translate(127.246094 0)"/>
      <use xlink:href="#DejaVuSans-35" transform="translate(190.869141 0)"/>
     </g>
    </g>
    <g id="line2d_35">
     <path d="M 150.3 518.899626 
L 165.3 518.899626 
L 180.3 518.899626 
" style="fill: none; stroke: #69a3a2; stroke-width: 2; stroke-linecap: square"/>
    </g>
    <g id="text_43">
     <!-- 2024 -->
     <g transform="translate(192.3 524.149626) scale(0.15 -0.15)">
      <use xlink:href="#DejaVuSans-32"/>
      <use xlink:href="#DejaVuSans-30" transform="translate(63.623047 0)"/>
      <use xlink:href="#DejaVuSans-32" transform="translate(127.246094 0)"/>
      <use xlink:href="#DejaVuSans-34" transform="translate(190.869141 0)"/>
     </g>
    </g>
    <g id="line2d_36">
     <path d="M 150.3 540.916814 
L 180.3 540.916814 
" style="fill: none; stroke-dasharray: 1.5,2.475; stroke-dashoffset: 0; stroke: #808080; stroke-width: 1.5"/>
    </g>
    <g id="text_44">
     <!-- EF 2025 Begins -->
     <g transform="translate(192.3 546.166814) scale(0.15 -0.15)">
      <defs>
       <path id="DejaVuSans-45" d="M 628 4666 
L 3578 4666 
L 3578 4134 
L 1259 4134 
L 1259 2753 
L 3481 2753 
L 3481 2222 
L 1259 2222 
L 1259 531 
L 3634 531 
L 3634 0 
L 628 0 
L 628 4666 
z
" transform="scale(0.015625)"/>
       <path id="DejaVuSans-42" d="M 1259 2228 
L 1259 519 
L 2272 519 
Q 2781 519 3026 730 
Q 3272 941 3272 1375 
Q 3272 1813 3026 2020 
Q 2781 2228 2272 2228 
L 1259 2228 
z
M 1259 4147 
L 1259 2741 
L 2194 2741 
Q 2656 2741 2882 2914 
Q 3109 3088 3109 3444 
Q 3109 3797 2882 3972 
Q 2656 4147 2194 4147 
L 1259 4147 
z
M 628 4666 
L 2241 4666 
Q 2963 4666 3353 4366 
Q 3744 4066 3744 3513 
Q 3744 3084 3544 2831 
Q 3344 2578 2956 2516 
Q 3422 2416 3680 2098 
Q 3938 1781 3938 1306 
Q 3938 681 3513 340 
Q 3088 0 2303 0 
L 628 0 
L 628 4666 
z
" transform="scale(0.015625)"/>
      </defs>
      <use xlink:href="#DejaVuSans-45"/>
      <use xlink:href="#DejaVuSans-46" transform="translate(63.183594 0)"/>
      <use xlink:href="#DejaVuSans-20" transform="translate(120.703125 0)"/>
      <use xlink:href="#DejaVuSans-32" transform="translate(152.490234 0)"/>
      <use xlink:href="#DejaVuSans-30" transform="translate(216.113281 0)"/>
      <use xlink:href="#DejaVuSans-32" transform="translate(279.736328 0)"/>
      <use xlink:href="#DejaVuSans-35" transform="translate(343.359375 0)"/>
      <use xlink:href="#DejaVuSans-20" transform="translate(406.982422 0)"/>
      <use xlink:href="#DejaVuSans-42" transform="translate(438.769531 0)"/>
      <use xlink:href="#DejaVuSans-65" transform="translate(507.373047 0)"/>
      <use xlink:href="#DejaVuSans-67" transform="translate(568.896484 0)"/>
      <use xlink:href="#DejaVuSans-69" transform="translate(632.373047 0)"/>
      <use xlink:href="#DejaVuSans-6e" transform="translate(660.15625 0)"/>
      <use xlink:href="#DejaVuSans-73" transform="translate(723.535156 0)"/>
     </g>
    </g>
   </g>
   <g id="line2d_37">
    <path d="M 96.840921 838.558957 
L 98.268031 838.558957 
L 99.695141 820.420435 
L 101.122251 818.251043 
L 102.549361 817.768957 
L 103.976471 817.34713 
L 105.403581 816.925304 
L 106.830691 816.865043 
L 108.257801 816.865043 
L 109.68491 816.865043 
L 111.11202 816.744522 
L 112.53913 816.744522 
L 113.96624 816.684261 
L 115.39335 816.503478 
L 116.82046 816.503478 
L 118.24757 816.382957 
L 119.67468 816.322696 
L 121.10179 816.081652 
L 122.5289 816.081652 
L 123.95601 815.780348 
L 125.38312 815.659826 
L 126.81023 815.599565 
L 128.23734 815.539304 
L 129.66445 815.539304 
L 131.09156 815.539304 
L 132.51867 815.539304 
L 133.94578 815.298261 
L 135.37289 814.695652 
L 136.8 814.454609 
L 138.22711 814.394348 
L 139.65422 814.273826 
L 141.08133 814.153304 
L 142.50844 814.093043 
L 143.93555 714.06 
L 145.36266 688.027304 
L 146.78977 681.217826 
L 148.21688 676.818783 
L 149.64399 674.287826 
L 151.0711 671.515826 
L 152.49821 668.141217 
L 153.92532 665.55 
L 155.35243 662.175391 
L 156.77954 658.680261 
L 158.20665 653.317043 
L 159.63376 650.484783 
" clip-path="url(#p571897c03b)" style="fill: none; stroke: #005953; stroke-width: 2; stroke-linecap: square"/>
   </g>
  </g>
 </g>
 <defs>
  <clipPath id="pb60df7fd59">
   <rect x="136.8" y="7.2" width="363.913043" height="361.565217"/>
  </clipPath>
  <clipPath id="p272b514822">
   <rect x="609.886957" y="7.2" width="363.913043" height="361.565217"/>
  </clipPath>
  <clipPath id="p571897c03b">
   <rect x="136.8" y="477.234783" width="363.913043" height="361.565217"/>
  </clipPath>
 </defs>
</svg>
