<?xml version="1.0" encoding="utf-8" standalone="no"?>
<!DOCTYPE svg PUBLIC "-//W3C//DTD SVG 1.1//EN"
  "http://www.w3.org/Graphics/SVG/1.1/DTD/svg11.dtd">
<svg xmlns:xlink="http://www.w3.org/1999/xlink" width="1006.45pt" height="968.384896pt" viewBox="0 0 1006.45 968.384896" xmlns="http://www.w3.org/2000/svg" version="1.1">
 <metadata>
  <rdf:RDF xmlns:dc="http://purl.org/dc/elements/1.1/" xmlns:cc="http://creativecommons.org/ns#" xmlns:rdf="http://www.w3.org/1999/02/22-rdf-syntax-ns#">
   <cc:Work>
    <dc:type rdf:resource="http://purl.org/dc/dcmitype/StillImage"/>
    <dc:date>2025-02-26T22:45:43.117087</dc:date>
    <dc:format>image/svg+xml</dc:format>
    <dc:creator>
     <cc:Agent>
      <dc:title>Matplotlib v3.10.0, https://matplotlib.org/</dc:title>
     </cc:Agent>
    </dc:creator>
   </cc:Work>
  </rdf:RDF>
 </metadata>
 <defs>
  <style type="text/css">*{stroke-linejoin: round; stroke-linecap: butt}</style>
 </defs>
 <g id="figure_1">
  <g id="patch_1">
   <path d="M 0 968.384896 
L 1006.45 968.384896 
L 1006.45 0 
L 0 0 
z
" style="fill: #ffffff"/>
  </g>
  <g id="axes_1">
   <g id="patch_2">
    <path d="M 136.8 376.363655 
L 500.713043 376.363655 
L 500.713043 14.798438 
L 136.8 14.798438 
z
" style="fill: #ffffff"/>
   </g>
   <g id="matplotlib.axis_1">
    <g id="xtick_1">
     <g id="line2d_1">
      <defs>
       <path id="mcdf7b55379" d="M 0 0 
L 0 3.5 
" style="stroke: #000000; stroke-width: 0.8"/>
      </defs>
      <g>
       <use xlink:href="#mcdf7b55379" x="136.8" y="376.363655" style="stroke: #000000; stroke-width: 0.8"/>
      </g>
     </g>
     <g id="text_1">
      <!-- Jan -->
      <g transform="translate(121.384375 405.06053) scale(0.2 -0.2)">
       <defs>
        <path id="DejaVuSans-4a" d="M 628 4666 
L 1259 4666 
L 1259 325 
Q 1259 -519 939 -900 
Q 619 -1281 -91 -1281 
L -331 -1281 
L -331 -750 
L -134 -750 
Q 284 -750 456 -515 
Q 628 -281 628 325 
L 628 4666 
z
" transform="scale(0.015625)"/>
        <path id="DejaVuSans-61" d="M 2194 1759 
Q 1497 1759 1228 1600 
Q 959 1441 959 1056 
Q 959 750 1161 570 
Q 1363 391 1709 391 
Q 2188 391 2477 730 
Q 2766 1069 2766 1631 
L 2766 1759 
L 2194 1759 
z
M 3341 1997 
L 3341 0 
L 2766 0 
L 2766 531 
Q 2569 213 2275 61 
Q 1981 -91 1556 -91 
Q 1019 -91 701 211 
Q 384 513 384 1019 
Q 384 1609 779 1909 
Q 1175 2209 1959 2209 
L 2766 2209 
L 2766 2266 
Q 2766 2663 2505 2880 
Q 2244 3097 1772 3097 
Q 1472 3097 1187 3025 
Q 903 2953 641 2809 
L 641 3341 
Q 956 3463 1253 3523 
Q 1550 3584 1831 3584 
Q 2591 3584 2966 3190 
Q 3341 2797 3341 1997 
z
" transform="scale(0.015625)"/>
        <path id="DejaVuSans-6e" d="M 3513 2113 
L 3513 0 
L 2938 0 
L 2938 2094 
Q 2938 2591 2744 2837 
Q 2550 3084 2163 3084 
Q 1697 3084 1428 2787 
Q 1159 2491 1159 1978 
L 1159 0 
L 581 0 
L 581 3500 
L 1159 3500 
L 1159 2956 
Q 1366 3272 1645 3428 
Q 1925 3584 2291 3584 
Q 2894 3584 3203 3211 
Q 3513 2838 3513 2113 
z
" transform="scale(0.015625)"/>
       </defs>
       <use xlink:href="#DejaVuSans-4a"/>
       <use xlink:href="#DejaVuSans-61" transform="translate(29.492188 0)"/>
       <use xlink:href="#DejaVuSans-6e" transform="translate(90.771484 0)"/>
      </g>
     </g>
    </g>
    <g id="xtick_2">
     <g id="line2d_2">
      <g>
       <use xlink:href="#mcdf7b55379" x="262.147826" y="376.363655" style="stroke: #000000; stroke-width: 0.8"/>
      </g>
     </g>
     <g id="text_2">
      <!-- Feb -->
      <g transform="translate(244.444701 405.06053) scale(0.2 -0.2)">
       <defs>
        <path id="DejaVuSans-46" d="M 628 4666 
L 3309 4666 
L 3309 4134 
L 1259 4134 
L 1259 2759 
L 3109 2759 
L 3109 2228 
L 1259 2228 
L 1259 0 
L 628 0 
L 628 4666 
z
" transform="scale(0.015625)"/>
        <path id="DejaVuSans-65" d="M 3597 1894 
L 3597 1613 
L 953 1613 
Q 991 1019 1311 708 
Q 1631 397 2203 397 
Q 2534 397 2845 478 
Q 3156 559 3463 722 
L 3463 178 
Q 3153 47 2828 -22 
Q 2503 -91 2169 -91 
Q 1331 -91 842 396 
Q 353 884 353 1716 
Q 353 2575 817 3079 
Q 1281 3584 2069 3584 
Q 2775 3584 3186 3129 
Q 3597 2675 3597 1894 
z
M 3022 2063 
Q 3016 2534 2758 2815 
Q 2500 3097 2075 3097 
Q 1594 3097 1305 2825 
Q 1016 2553 972 2059 
L 3022 2063 
z
" transform="scale(0.015625)"/>
        <path id="DejaVuSans-62" d="M 3116 1747 
Q 3116 2381 2855 2742 
Q 2594 3103 2138 3103 
Q 1681 3103 1420 2742 
Q 1159 2381 1159 1747 
Q 1159 1113 1420 752 
Q 1681 391 2138 391 
Q 2594 391 2855 752 
Q 3116 1113 3116 1747 
z
M 1159 2969 
Q 1341 3281 1617 3432 
Q 1894 3584 2278 3584 
Q 2916 3584 3314 3078 
Q 3713 2572 3713 1747 
Q 3713 922 3314 415 
Q 2916 -91 2278 -91 
Q 1894 -91 1617 61 
Q 1341 213 1159 525 
L 1159 0 
L 581 0 
L 581 4863 
L 1159 4863 
L 1159 2969 
z
" transform="scale(0.015625)"/>
       </defs>
       <use xlink:href="#DejaVuSans-46"/>
       <use xlink:href="#DejaVuSans-65" transform="translate(52.019531 0)"/>
       <use xlink:href="#DejaVuSans-62" transform="translate(113.542969 0)"/>
      </g>
     </g>
    </g>
    <g id="xtick_3">
     <g id="line2d_3">
      <g>
       <use xlink:href="#mcdf7b55379" x="375.365217" y="376.363655" style="stroke: #000000; stroke-width: 0.8"/>
      </g>
     </g>
     <g id="text_3">
      <!-- Mar -->
      <g transform="translate(356.49803 405.06053) scale(0.2 -0.2)">
       <defs>
        <path id="DejaVuSans-4d" d="M 628 4666 
L 1569 4666 
L 2759 1491 
L 3956 4666 
L 4897 4666 
L 4897 0 
L 4281 0 
L 4281 4097 
L 3078 897 
L 2444 897 
L 1241 4097 
L 1241 0 
L 628 0 
L 628 4666 
z
" transform="scale(0.015625)"/>
        <path id="DejaVuSans-72" d="M 2631 2963 
Q 2534 3019 2420 3045 
Q 2306 3072 2169 3072 
Q 1681 3072 1420 2755 
Q 1159 2438 1159 1844 
L 1159 0 
L 581 0 
L 581 3500 
L 1159 3500 
L 1159 2956 
Q 1341 3275 1631 3429 
Q 1922 3584 2338 3584 
Q 2397 3584 2469 3576 
Q 2541 3569 2628 3553 
L 2631 2963 
z
" transform="scale(0.015625)"/>
       </defs>
       <use xlink:href="#DejaVuSans-4d"/>
       <use xlink:href="#DejaVuSans-61" transform="translate(86.279297 0)"/>
       <use xlink:href="#DejaVuSans-72" transform="translate(147.558594 0)"/>
      </g>
     </g>
    </g>
    <g id="xtick_4">
     <g id="line2d_4">
      <g>
       <use xlink:href="#mcdf7b55379" x="500.713043" y="376.363655" style="stroke: #000000; stroke-width: 0.8"/>
      </g>
     </g>
     <g id="text_4">
      <!-- Apr -->
      <g transform="translate(483.413043 405.06053) scale(0.2 -0.2)">
       <defs>
        <path id="DejaVuSans-41" d="M 2188 4044 
L 1331 1722 
L 3047 1722 
L 2188 4044 
z
M 1831 4666 
L 2547 4666 
L 4325 0 
L 3669 0 
L 3244 1197 
L 1141 1197 
L 716 0 
L 50 0 
L 1831 4666 
z
" transform="scale(0.015625)"/>
        <path id="DejaVuSans-70" d="M 1159 525 
L 1159 -1331 
L 581 -1331 
L 581 3500 
L 1159 3500 
L 1159 2969 
Q 1341 3281 1617 3432 
Q 1894 3584 2278 3584 
Q 2916 3584 3314 3078 
Q 3713 2572 3713 1747 
Q 3713 922 3314 415 
Q 2916 -91 2278 -91 
Q 1894 -91 1617 61 
Q 1341 213 1159 525 
z
M 3116 1747 
Q 3116 2381 2855 2742 
Q 2594 3103 2138 3103 
Q 1681 3103 1420 2742 
Q 1159 2381 1159 1747 
Q 1159 1113 1420 752 
Q 1681 391 2138 391 
Q 2594 391 2855 752 
Q 3116 1113 3116 1747 
z
" transform="scale(0.015625)"/>
       </defs>
       <use xlink:href="#DejaVuSans-41"/>
       <use xlink:href="#DejaVuSans-70" transform="translate(68.408203 0)"/>
       <use xlink:href="#DejaVuSans-72" transform="translate(131.884766 0)"/>
      </g>
     </g>
    </g>
    <g id="text_5">
     <!-- Time -->
     <g transform="translate(294.289334 434.41678) scale(0.2 -0.2)">
      <defs>
       <path id="DejaVuSans-54" d="M -19 4666 
L 3928 4666 
L 3928 4134 
L 2272 4134 
L 2272 0 
L 1638 0 
L 1638 4134 
L -19 4134 
L -19 4666 
z
" transform="scale(0.015625)"/>
       <path id="DejaVuSans-69" d="M 603 3500 
L 1178 3500 
L 1178 0 
L 603 0 
L 603 3500 
z
M 603 4863 
L 1178 4863 
L 1178 4134 
L 603 4134 
L 603 4863 
z
" transform="scale(0.015625)"/>
       <path id="DejaVuSans-6d" d="M 3328 2828 
Q 3544 3216 3844 3400 
Q 4144 3584 4550 3584 
Q 5097 3584 5394 3201 
Q 5691 2819 5691 2113 
L 5691 0 
L 5113 0 
L 5113 2094 
Q 5113 2597 4934 2840 
Q 4756 3084 4391 3084 
Q 3944 3084 3684 2787 
Q 3425 2491 3425 1978 
L 3425 0 
L 2847 0 
L 2847 2094 
Q 2847 2600 2669 2842 
Q 2491 3084 2119 3084 
Q 1678 3084 1418 2786 
Q 1159 2488 1159 1978 
L 1159 0 
L 581 0 
L 581 3500 
L 1159 3500 
L 1159 2956 
Q 1356 3278 1631 3431 
Q 1906 3584 2284 3584 
Q 2666 3584 2933 3390 
Q 3200 3197 3328 2828 
z
" transform="scale(0.015625)"/>
      </defs>
      <use xlink:href="#DejaVuSans-54"/>
      <use xlink:href="#DejaVuSans-69" transform="translate(57.958984 0)"/>
      <use xlink:href="#DejaVuSans-6d" transform="translate(85.742188 0)"/>
      <use xlink:href="#DejaVuSans-65" transform="translate(183.154297 0)"/>
     </g>
    </g>
   </g>
   <g id="matplotlib.axis_2">
    <g id="ytick_1">
     <g id="line2d_5">
      <defs>
       <path id="ma4fed31f18" d="M 0 0 
L -3.5 0 
" style="stroke: #000000; stroke-width: 0.8"/>
      </defs>
      <g>
       <use xlink:href="#ma4fed31f18" x="136.8" y="376.363655" style="stroke: #000000; stroke-width: 0.8"/>
      </g>
     </g>
     <g id="text_6">
      <!-- 0 -->
      <g transform="translate(110.575 383.962092) scale(0.2 -0.2)">
       <defs>
        <path id="DejaVuSans-30" d="M 2034 4250 
Q 1547 4250 1301 3770 
Q 1056 3291 1056 2328 
Q 1056 1369 1301 889 
Q 1547 409 2034 409 
Q 2525 409 2770 889 
Q 3016 1369 3016 2328 
Q 3016 3291 2770 3770 
Q 2525 4250 2034 4250 
z
M 2034 4750 
Q 2819 4750 3233 4129 
Q 3647 3509 3647 2328 
Q 3647 1150 3233 529 
Q 2819 -91 2034 -91 
Q 1250 -91 836 529 
Q 422 1150 422 2328 
Q 422 3509 836 4129 
Q 1250 4750 2034 4750 
z
" transform="scale(0.015625)"/>
       </defs>
       <use xlink:href="#DejaVuSans-30"/>
      </g>
     </g>
    </g>
    <g id="ytick_2">
     <g id="line2d_6">
      <g>
       <use xlink:href="#ma4fed31f18" x="136.8" y="304.050611" style="stroke: #000000; stroke-width: 0.8"/>
      </g>
     </g>
     <g id="text_7">
      <!-- 1000 -->
      <g transform="translate(72.4 311.649049) scale(0.2 -0.2)">
       <defs>
        <path id="DejaVuSans-31" d="M 794 531 
L 1825 531 
L 1825 4091 
L 703 3866 
L 703 4441 
L 1819 4666 
L 2450 4666 
L 2450 531 
L 3481 531 
L 3481 0 
L 794 0 
L 794 531 
z
" transform="scale(0.015625)"/>
       </defs>
       <use xlink:href="#DejaVuSans-31"/>
       <use xlink:href="#DejaVuSans-30" transform="translate(63.623047 0)"/>
       <use xlink:href="#DejaVuSans-30" transform="translate(127.246094 0)"/>
       <use xlink:href="#DejaVuSans-30" transform="translate(190.869141 0)"/>
      </g>
     </g>
    </g>
    <g id="ytick_3">
     <g id="line2d_7">
      <g>
       <use xlink:href="#ma4fed31f18" x="136.8" y="231.737568" style="stroke: #000000; stroke-width: 0.8"/>
      </g>
     </g>
     <g id="text_8">
      <!-- 2000 -->
      <g transform="translate(72.4 239.336005) scale(0.2 -0.2)">
       <defs>
        <path id="DejaVuSans-32" d="M 1228 531 
L 3431 531 
L 3431 0 
L 469 0 
L 469 531 
Q 828 903 1448 1529 
Q 2069 2156 2228 2338 
Q 2531 2678 2651 2914 
Q 2772 3150 2772 3378 
Q 2772 3750 2511 3984 
Q 2250 4219 1831 4219 
Q 1534 4219 1204 4116 
Q 875 4013 500 3803 
L 500 4441 
Q 881 4594 1212 4672 
Q 1544 4750 1819 4750 
Q 2544 4750 2975 4387 
Q 3406 4025 3406 3419 
Q 3406 3131 3298 2873 
Q 3191 2616 2906 2266 
Q 2828 2175 2409 1742 
Q 1991 1309 1228 531 
z
" transform="scale(0.015625)"/>
       </defs>
       <use xlink:href="#DejaVuSans-32"/>
       <use xlink:href="#DejaVuSans-30" transform="translate(63.623047 0)"/>
       <use xlink:href="#DejaVuSans-30" transform="translate(127.246094 0)"/>
       <use xlink:href="#DejaVuSans-30" transform="translate(190.869141 0)"/>
      </g>
     </g>
    </g>
    <g id="ytick_4">
     <g id="line2d_8">
      <g>
       <use xlink:href="#ma4fed31f18" x="136.8" y="159.424524" style="stroke: #000000; stroke-width: 0.8"/>
      </g>
     </g>
     <g id="text_9">
      <!-- 3000 -->
      <g transform="translate(72.4 167.022962) scale(0.2 -0.2)">
       <defs>
        <path id="DejaVuSans-33" d="M 2597 2516 
Q 3050 2419 3304 2112 
Q 3559 1806 3559 1356 
Q 3559 666 3084 287 
Q 2609 -91 1734 -91 
Q 1441 -91 1130 -33 
Q 819 25 488 141 
L 488 750 
Q 750 597 1062 519 
Q 1375 441 1716 441 
Q 2309 441 2620 675 
Q 2931 909 2931 1356 
Q 2931 1769 2642 2001 
Q 2353 2234 1838 2234 
L 1294 2234 
L 1294 2753 
L 1863 2753 
Q 2328 2753 2575 2939 
Q 2822 3125 2822 3475 
Q 2822 3834 2567 4026 
Q 2313 4219 1838 4219 
Q 1578 4219 1281 4162 
Q 984 4106 628 3988 
L 628 4550 
Q 988 4650 1302 4700 
Q 1616 4750 1894 4750 
Q 2613 4750 3031 4423 
Q 3450 4097 3450 3541 
Q 3450 3153 3228 2886 
Q 3006 2619 2597 2516 
z
" transform="scale(0.015625)"/>
       </defs>
       <use xlink:href="#DejaVuSans-33"/>
       <use xlink:href="#DejaVuSans-30" transform="translate(63.623047 0)"/>
       <use xlink:href="#DejaVuSans-30" transform="translate(127.246094 0)"/>
       <use xlink:href="#DejaVuSans-30" transform="translate(190.869141 0)"/>
      </g>
     </g>
    </g>
    <g id="ytick_5">
     <g id="line2d_9">
      <g>
       <use xlink:href="#ma4fed31f18" x="136.8" y="87.111481" style="stroke: #000000; stroke-width: 0.8"/>
      </g>
     </g>
     <g id="text_10">
      <!-- 4000 -->
      <g transform="translate(72.4 94.709918) scale(0.2 -0.2)">
       <defs>
        <path id="DejaVuSans-34" d="M 2419 4116 
L 825 1625 
L 2419 1625 
L 2419 4116 
z
M 2253 4666 
L 3047 4666 
L 3047 1625 
L 3713 1625 
L 3713 1100 
L 3047 1100 
L 3047 0 
L 2419 0 
L 2419 1100 
L 313 1100 
L 313 1709 
L 2253 4666 
z
" transform="scale(0.015625)"/>
       </defs>
       <use xlink:href="#DejaVuSans-34"/>
       <use xlink:href="#DejaVuSans-30" transform="translate(63.623047 0)"/>
       <use xlink:href="#DejaVuSans-30" transform="translate(127.246094 0)"/>
       <use xlink:href="#DejaVuSans-30" transform="translate(190.869141 0)"/>
      </g>
     </g>
    </g>
    <g id="ytick_6">
     <g id="line2d_10">
      <g>
       <use xlink:href="#ma4fed31f18" x="136.8" y="14.798438" style="stroke: #000000; stroke-width: 0.8"/>
      </g>
     </g>
     <g id="text_11">
      <!-- 5000 -->
      <g transform="translate(72.4 22.396875) scale(0.2 -0.2)">
       <defs>
        <path id="DejaVuSans-35" d="M 691 4666 
L 3169 4666 
L 3169 4134 
L 1269 4134 
L 1269 2991 
Q 1406 3038 1543 3061 
Q 1681 3084 1819 3084 
Q 2600 3084 3056 2656 
Q 3513 2228 3513 1497 
Q 3513 744 3044 326 
Q 2575 -91 1722 -91 
Q 1428 -91 1123 -41 
Q 819 9 494 109 
L 494 744 
Q 775 591 1075 516 
Q 1375 441 1709 441 
Q 2250 441 2565 725 
Q 2881 1009 2881 1497 
Q 2881 1984 2565 2268 
Q 2250 2553 1709 2553 
Q 1456 2553 1204 2497 
Q 953 2441 691 2322 
L 691 4666 
z
" transform="scale(0.015625)"/>
       </defs>
       <use xlink:href="#DejaVuSans-35"/>
       <use xlink:href="#DejaVuSans-30" transform="translate(63.623047 0)"/>
       <use xlink:href="#DejaVuSans-30" transform="translate(127.246094 0)"/>
       <use xlink:href="#DejaVuSans-30" transform="translate(190.869141 0)"/>
      </g>
     </g>
    </g>
    <g id="text_12">
     <!-- Count -->
     <g transform="translate(58.240625 225.277921) rotate(-90) scale(0.2 -0.2)">
      <defs>
       <path id="DejaVuSans-43" d="M 4122 4306 
L 4122 3641 
Q 3803 3938 3442 4084 
Q 3081 4231 2675 4231 
Q 1875 4231 1450 3742 
Q 1025 3253 1025 2328 
Q 1025 1406 1450 917 
Q 1875 428 2675 428 
Q 3081 428 3442 575 
Q 3803 722 4122 1019 
L 4122 359 
Q 3791 134 3420 21 
Q 3050 -91 2638 -91 
Q 1578 -91 968 557 
Q 359 1206 359 2328 
Q 359 3453 968 4101 
Q 1578 4750 2638 4750 
Q 3056 4750 3426 4639 
Q 3797 4528 4122 4306 
z
" transform="scale(0.015625)"/>
       <path id="DejaVuSans-6f" d="M 1959 3097 
Q 1497 3097 1228 2736 
Q 959 2375 959 1747 
Q 959 1119 1226 758 
Q 1494 397 1959 397 
Q 2419 397 2687 759 
Q 2956 1122 2956 1747 
Q 2956 2369 2687 2733 
Q 2419 3097 1959 3097 
z
M 1959 3584 
Q 2709 3584 3137 3096 
Q 3566 2609 3566 1747 
Q 3566 888 3137 398 
Q 2709 -91 1959 -91 
Q 1206 -91 779 398 
Q 353 888 353 1747 
Q 353 2609 779 3096 
Q 1206 3584 1959 3584 
z
" transform="scale(0.015625)"/>
       <path id="DejaVuSans-75" d="M 544 1381 
L 544 3500 
L 1119 3500 
L 1119 1403 
Q 1119 906 1312 657 
Q 1506 409 1894 409 
Q 2359 409 2629 706 
Q 2900 1003 2900 1516 
L 2900 3500 
L 3475 3500 
L 3475 0 
L 2900 0 
L 2900 538 
Q 2691 219 2414 64 
Q 2138 -91 1772 -91 
Q 1169 -91 856 284 
Q 544 659 544 1381 
z
M 1991 3584 
L 1991 3584 
z
" transform="scale(0.015625)"/>
       <path id="DejaVuSans-74" d="M 1172 4494 
L 1172 3500 
L 2356 3500 
L 2356 3053 
L 1172 3053 
L 1172 1153 
Q 1172 725 1289 603 
Q 1406 481 1766 481 
L 2356 481 
L 2356 0 
L 1766 0 
Q 1100 0 847 248 
Q 594 497 594 1153 
L 594 3053 
L 172 3053 
L 172 3500 
L 594 3500 
L 594 4494 
L 1172 4494 
z
" transform="scale(0.015625)"/>
      </defs>
      <use xlink:href="#DejaVuSans-43"/>
      <use xlink:href="#DejaVuSans-6f" transform="translate(69.824219 0)"/>
      <use xlink:href="#DejaVuSans-75" transform="translate(131.005859 0)"/>
      <use xlink:href="#DejaVuSans-6e" transform="translate(194.384766 0)"/>
      <use xlink:href="#DejaVuSans-74" transform="translate(257.763672 0)"/>
     </g>
    </g>
   </g>
   <g id="line2d_11">
    <path d="M 186.032737 376.074403 
L 196.572534 376.074403 
L 196.613285 375.278959 
L 196.739022 357.562264 
L 196.949742 355.537498 
L 197.386296 354.308177 
L 197.415802 354.308177 
L 197.549169 354.091238 
L 198.210433 353.801985 
L 198.421 353.585046 
L 198.491223 353.585046 
L 198.827979 353.223481 
L 198.989512 353.151168 
L 199.159351 353.078855 
L 199.364922 352.71729 
L 199.509841 352.572664 
L 200.171325 352.500351 
L 200.993166 351.77722 
L 202.029252 351.704907 
L 202.172521 351.632594 
L 203.475338 351.560281 
L 203.666078 351.487968 
L 204.321216 351.415655 
L 204.486209 351.343342 
L 204.940481 351.271029 
L 205.160165 351.126403 
L 207.756082 351.05409 
L 207.968084 350.909464 
L 208.066369 350.909464 
L 208.254729 350.764837 
L 208.866685 350.692524 
L 209.035114 350.620211 
L 211.059686 350.547898 
L 211.225367 350.403272 
L 211.489908 350.330959 
L 211.63584 350.258646 
L 213.182109 350.186333 
L 213.289228 350.11402 
L 228.588651 350.041707 
L 228.74707 349.897081 
L 240.754645 349.824768 
L 241.010801 349.680142 
L 247.349914 349.607829 
L 247.51187 349.535516 
L 253.681881 349.463203 
L 253.850347 349.39089 
L 257.121239 349.318577 
L 257.318191 349.246264 
L 257.771293 349.173951 
L 257.939084 349.101637 
L 263.664239 349.029324 
L 263.959124 348.884698 
L 265.932908 348.812385 
L 266.086626 348.740072 
L 268.887038 348.667759 
L 269.124781 348.595446 
L 276.998289 348.523133 
L 277.22198 348.45082 
L 293.821934 348.378507 
L 293.993607 348.306194 
L 294.229099 348.233881 
L 294.425632 348.161568 
L 296.762462 348.089255 
L 297.023034 347.872316 
L 297.865282 347.800003 
L 298.328595 347.438438 
L 301.406681 347.366124 
L 301.599903 347.293811 
L 302.077239 347.293811 
L 302.251341 347.149185 
L 309.953591 347.076872 
L 310.12208 347.004559 
L 313.730332 346.932246 
L 313.958868 346.859933 
L 317.703594 346.78762 
L 317.914219 346.715307 
L 320.736224 346.642994 
L 320.918731 346.570681 
L 321.789217 346.498368 
L 321.915574 346.426055 
L 321.970403 334.277464 
L 322.165186 251.768281 
L 322.359353 237.739551 
L 322.634867 228.483481 
L 322.757974 226.675655 
L 322.909064 223.71082 
L 323.312904 221.975307 
L 323.39605 221.975307 
L 323.721932 221.107551 
L 324.046744 220.601359 
L 324.319624 217.853464 
L 324.382587 217.853464 
L 324.77969 212.719238 
L 325.030154 209.175898 
L 325.51628 204.620177 
L 325.795205 201.583029 
L 326.056459 199.413638 
L 326.5347 196.521116 
L 326.949204 195.291794 
L 327.886636 195.074855 
L 328.092636 194.785603 
L 328.335638 194.71329 
L 329.02299 192.833151 
L 329.391987 191.242264 
L 329.672549 190.736072 
L 330.236134 188.78362 
L 330.290997 188.711307 
L 330.507949 187.771238 
L 330.738221 187.337359 
L 330.849143 187.265046 
L 332.167794 186.686542 
L 332.371584 186.614229 
L 332.529684 186.39729 
L 332.834611 185.963411 
L 332.947103 185.963411 
L 333.180119 185.529533 
L 333.327586 185.023342 
L 333.827516 184.083272 
L 334.088133 183.432455 
L 334.71993 181.986194 
L 335.772885 181.913881 
L 336.057207 181.769255 
L 336.236335 181.696942 
L 336.422187 181.552316 
L 336.783754 181.190751 
L 336.913105 181.118438 
L 337.479445 180.684559 
L 337.584047 180.612246 
L 338.061405 180.033742 
L 338.187458 179.74449 
L 338.426436 179.672177 
L 338.763377 179.021359 
L 338.931881 178.949046 
L 339.328334 178.80442 
L 339.675077 178.732107 
L 339.83904 178.659794 
L 340.251604 178.587481 
L 340.349881 178.515168 
L 340.513671 178.515168 
L 340.681874 178.225916 
L 340.785118 178.153603 
L 340.953618 177.936664 
L 341.353052 177.719724 
L 341.416922 177.719724 
L 341.523422 177.575098 
L 341.627525 177.575098 
L 341.813365 177.285846 
L 341.861228 177.285846 
L 342.178193 176.635029 
L 342.975348 175.622646 
L 343.115748 175.550333 
L 343.512041 175.261081 
L 344.39336 175.188768 
L 344.792618 174.971829 
L 344.997105 174.971829 
L 345.193334 174.75489 
L 345.502529 174.393324 
L 345.544624 174.393324 
L 346.011964 173.670194 
L 346.053531 173.670194 
L 346.221954 173.525568 
L 346.387037 172.440872 
L 346.513382 172.296246 
L 346.738017 171.645429 
L 347.023492 171.573116 
L 347.157522 171.500803 
L 348.433422 171.42849 
L 348.748898 170.560733 
L 349.335393 170.48842 
L 349.840857 169.403724 
L 350.093559 168.897533 
L 350.770725 168.463655 
L 351.212654 168.463655 
L 351.949703 168.174403 
L 352.379323 168.10209 
L 352.477246 168.029777 
L 352.747103 167.957464 
L 352.915546 167.740524 
L 353.159438 167.668211 
L 353.421011 167.16202 
L 353.589464 166.872768 
L 353.72987 166.511203 
L 353.819882 166.511203 
L 354.038733 165.788072 
L 354.161121 165.49882 
L 354.263395 165.426507 
L 354.494485 164.992629 
L 354.547824 164.992629 
L 354.740078 164.631064 
L 354.937301 164.631064 
L 355.1058 164.414124 
L 355.252682 164.269498 
L 356.01371 164.197185 
L 356.191091 164.124872 
L 356.857505 164.052559 
L 356.927651 163.980246 
L 357.063946 163.690994 
L 357.096113 163.690994 
L 357.208582 163.474055 
L 357.429404 163.257116 
L 357.801421 162.678611 
L 358.038329 162.317046 
L 358.208599 161.810855 
L 358.348966 161.738542 
L 358.980792 160.436907 
L 359.093105 160.364594 
L 359.294007 160.075342 
L 361.048321 159.569151 
L 361.251723 159.062959 
L 361.371427 158.990646 
L 362.518839 156.604316 
L 362.749505 155.230368 
L 363.336576 153.711794 
L 363.736067 153.567168 
L 364.61078 153.494855 
L 364.694986 153.422542 
L 364.877544 152.916351 
L 365.29636 152.265533 
L 365.893129 151.397777 
L 366.843104 148.432942 
L 366.899271 148.432942 
L 367.067726 147.999064 
L 367.067726 147.999064 
" clip-path="url(#p98ac7907cc)" style="fill: none; stroke: #005953; stroke-width: 2; stroke-linecap: square"/>
   </g>
   <g id="line2d_12">
    <path d="M 186.032737 376.291342 
L 196.85444 376.291342 
L 196.949742 375.640524 
L 197.191409 373.977324 
L 197.386296 373.688072 
L 198.252529 373.615759 
L 198.575461 373.254194 
L 198.757968 373.181881 
L 198.930336 372.964942 
L 199.044391 372.964942 
L 199.159351 372.67569 
L 199.308795 372.603377 
L 199.509841 372.386437 
L 199.940176 372.314124 
L 200.171325 371.880246 
L 200.581955 371.590994 
L 200.653352 371.590994 
L 200.821825 371.301742 
L 200.892035 371.301742 
L 201.161821 370.723237 
L 201.837328 370.650924 
L 202.172521 370.578611 
L 202.871075 370.578611 
L 203.032954 370.433985 
L 204.826215 370.361672 
L 204.991665 370.289359 
L 205.128321 369.421603 
L 206.910166 369.34929 
L 207.055501 369.276977 
L 207.803643 369.204664 
L 207.968084 369.132351 
L 208.317596 369.060038 
L 208.469284 368.987724 
L 209.24896 368.915411 
L 209.417476 368.843098 
L 211.270491 368.843098 
L 211.435947 368.698472 
L 211.63584 368.626159 
L 211.847244 368.481533 
L 212.404723 368.40922 
L 212.573201 368.336907 
L 212.910159 368.264594 
L 213.123818 368.119968 
L 216.111209 368.047655 
L 216.279722 367.975342 
L 216.883425 367.975342 
L 216.998623 366.890646 
L 219.04556 366.818333 
L 219.207322 366.74602 
L 219.522899 366.74602 
L 219.649256 366.601394 
L 221.211245 366.529081 
L 221.37974 366.384455 
L 221.549396 365.950577 
L 224.970374 365.878264 
L 225.105512 365.444385 
L 225.377529 365.372072 
L 225.546031 365.299759 
L 228.924356 365.227446 
L 229.041937 365.155133 
L 229.392172 365.155133 
L 229.465976 365.010507 
L 230.431878 364.938194 
L 230.663996 364.793568 
L 231.487773 364.721255 
L 231.857856 364.504316 
L 233.239862 364.432003 
L 233.338107 364.35969 
L 233.509843 363.925811 
L 235.896344 363.853498 
L 236.107279 363.708872 
L 237.282692 363.636559 
L 237.385905 363.564246 
L 239.403358 363.491933 
L 239.57181 363.347307 
L 239.939851 363.274994 
L 240.203614 363.202681 
L 243.446794 363.130368 
L 243.741665 362.985742 
L 244.868468 362.913429 
L 245.061433 362.841116 
L 245.215826 362.841116 
L 245.322971 362.190298 
L 247.916879 362.117985 
L 248.032423 362.045672 
L 248.581295 361.973359 
L 248.758232 361.901046 
L 249.034711 361.901046 
L 249.26217 361.684107 
L 249.852313 361.611794 
L 250.115086 361.467168 
L 251.929708 361.394855 
L 252.07571 361.322542 
L 253.513394 361.250229 
L 253.681881 361.177916 
L 254.903365 361.105603 
L 255.099919 360.888664 
L 257.661763 360.816351 
L 257.771293 360.744037 
L 259.025827 360.671724 
L 259.143394 360.454785 
L 259.696561 360.382472 
L 259.873459 360.310159 
L 263.664239 360.237846 
L 263.835586 360.165533 
L 264.68039 360.09322 
L 264.863586 359.948594 
L 265.643841 359.876281 
L 265.783284 359.659342 
L 268.887038 359.587029 
L 269.124781 359.514716 
L 269.563976 359.442403 
L 269.733487 359.297777 
L 271.035163 359.297777 
L 271.203605 359.080838 
L 272.762057 359.008524 
L 272.955131 358.936211 
L 274.376499 358.863898 
L 274.978 358.791585 
L 275.078658 358.791585 
L 275.24711 358.285394 
L 280.756763 358.213081 
L 280.930195 358.140768 
L 282.031331 358.068455 
L 282.217701 357.70689 
L 287.273297 357.634577 
L 287.447717 357.489951 
L 293.821934 357.417638 
L 293.993607 357.345324 
L 296.433396 357.273011 
L 296.548935 357.200698 
L 300.397997 357.128385 
L 300.599086 356.983759 
L 303.382954 356.983759 
L 303.551445 356.694507 
L 305.376634 356.622194 
L 305.524112 356.549881 
L 309.827238 356.477568 
L 309.995733 356.405255 
L 310.164224 356.332942 
L 310.335878 356.260629 
L 316.153269 356.188316 
L 316.251551 355.899064 
L 317.432569 355.899064 
L 317.580314 355.754437 
L 321.471979 355.682124 
L 321.690214 355.609811 
L 322.055471 355.537498 
L 322.224498 355.175933 
L 322.297895 355.175933 
L 322.421003 347.076872 
L 322.634867 339.773255 
L 322.909064 336.374542 
L 323.312904 335.362159 
L 323.904985 334.783655 
L 324.611234 329.504803 
L 325.07454 324.659829 
L 326.404802 316.271516 
L 326.688063 315.403759 
L 326.949204 314.752942 
L 327.481621 314.319064 
L 327.643816 314.319064 
L 327.812293 314.102124 
L 328.022912 314.102124 
L 328.391955 313.52362 
L 328.531321 313.451307 
L 329.391987 311.064977 
L 329.62977 310.341846 
L 329.973803 309.47409 
L 330.100814 309.401777 
L 330.384723 308.750959 
L 330.550088 289.877255 
L 330.816848 289.298751 
L 331.237053 289.226438 
L 331.496597 289.009498 
L 332.197693 288.937185 
L 332.403332 288.792559 
L 332.594818 288.720246 
L 332.947103 288.286368 
L 333.754969 286.695481 
L 333.94772 286.044664 
L 334.035891 285.972351 
L 334.214485 285.466159 
L 334.280185 285.393846 
L 334.382941 285.104594 
L 334.556089 279.970368 
L 334.673431 279.898055 
L 335.028796 279.53649 
L 335.631221 279.319551 
L 336.236335 279.247238 
L 336.913105 278.668733 
L 336.989861 278.668733 
L 337.223747 278.234855 
L 337.479445 278.162542 
L 337.721198 278.017916 
L 337.765083 278.017916 
L 337.920996 277.656351 
L 337.991183 277.656351 
L 338.25794 277.150159 
L 338.426436 277.077846 
L 338.566847 276.788594 
L 338.641713 274.040698 
L 339.072287 273.968385 
L 339.942763 273.823759 
L 340.279693 273.751446 
L 340.785118 273.389881 
L 340.953618 273.317568 
L 342.178193 272.160559 
L 342.680509 269.774229 
L 342.919182 269.340351 
L 344.473801 269.268037 
L 344.608658 269.123411 
L 344.935259 269.051098 
L 345.077013 268.834159 
L 345.620738 268.834159 
L 345.843829 268.544907 
L 345.979889 268.472594 
L 346.221954 268.183342 
L 346.387037 266.375516 
L 346.513382 266.303203 
L 346.895889 265.869324 
L 348.493024 265.797011 
L 348.917233 265.218507 
L 349.040546 265.146194 
L 349.377538 264.712316 
L 349.54599 264.640003 
L 349.840857 263.989185 
L 349.92819 263.916872 
L 350.093559 263.699933 
L 350.223671 263.699933 
L 350.388373 263.482994 
L 350.602036 263.410681 
L 350.770725 263.338368 
L 351.212654 263.338368 
L 351.802786 263.121429 
L 352.915546 263.049116 
L 353.084045 262.90449 
L 353.332488 262.832177 
L 353.636888 262.542924 
L 354.102369 262.470611 
L 354.392707 262.036733 
L 354.431885 262.036733 
L 354.600358 261.892107 
L 354.708491 261.892107 
L 354.815823 261.602855 
L 355.1058 261.458229 
L 355.512951 261.313603 
L 356.11665 261.313603 
L 356.327262 261.096664 
L 356.608038 260.952038 
L 356.690057 260.952038 
L 356.927651 260.373533 
L 357.127538 260.30122 
L 357.328565 260.156594 
L 357.699224 259.795029 
L 357.759312 259.795029 
L 357.870321 259.505777 
L 358.090934 259.216524 
L 358.208599 258.999585 
L 358.408703 254.733116 
L 358.541809 254.660803 
L 358.688954 254.443864 
L 358.815294 254.371551 
L 359.149276 253.720733 
L 359.552563 253.64842 
L 359.892676 253.576107 
L 360.393404 253.503794 
L 360.567269 253.431481 
L 360.683113 253.431481 
L 360.834045 253.286855 
L 360.970861 253.214542 
L 361.251723 252.708351 
L 361.371427 252.708351 
L 362.396157 250.394333 
L 362.64387 249.454264 
L 362.799612 245.549359 
L 362.918171 245.404733 
L 363.169071 244.681603 
L 363.198483 244.681603 
L 363.5958 244.320038 
L 363.936854 244.247724 
L 364.61078 243.596907 
L 364.849456 243.524594 
L 365.013658 243.163029 
L 365.091577 243.090716 
L 365.183858 243.018403 
L 365.29636 242.584524 
L 365.414346 242.584524 
L 366.407849 240.198194 
L 366.449985 239.981255 
L 366.562286 235.787098 
L 366.686701 235.714785 
L 366.899271 235.136281 
L 367.025461 235.136281 
L 367.067726 234.919342 
L 367.067726 234.919342 
" clip-path="url(#p98ac7907cc)" style="fill: none; stroke: #69a3a2; stroke-width: 2; stroke-linecap: square"/>
   </g>
   <g id="LineCollection_1">
    <path d="M 136.8 376.363655 
L 1007.45 376.363655 
" clip-path="url(#p98ac7907cc)" style="fill: none; stroke: #d3d3d3; stroke-width: 0.5"/>
    <path d="M 136.8 304.050611 
L 1007.45 304.050611 
" clip-path="url(#p98ac7907cc)" style="fill: none; stroke: #d3d3d3; stroke-width: 0.5"/>
    <path d="M 136.8 231.737568 
L 1007.45 231.737568 
" clip-path="url(#p98ac7907cc)" style="fill: none; stroke: #d3d3d3; stroke-width: 0.5"/>
    <path d="M 136.8 159.424524 
L 1007.45 159.424524 
" clip-path="url(#p98ac7907cc)" style="fill: none; stroke: #d3d3d3; stroke-width: 0.5"/>
    <path d="M 136.8 87.111481 
L 1007.45 87.111481 
" clip-path="url(#p98ac7907cc)" style="fill: none; stroke: #d3d3d3; stroke-width: 0.5"/>
    <path d="M 136.8 14.798438 
L 1007.45 14.798438 
" clip-path="url(#p98ac7907cc)" style="fill: none; stroke: #d3d3d3; stroke-width: 0.5"/>
    <path clip-path="url(#p98ac7907cc)" style="fill: none; stroke: #d3d3d3; stroke-width: 0.5"/>
    <path clip-path="url(#p98ac7907cc)" style="fill: none; stroke: #d3d3d3; stroke-width: 0.5"/>
    <path clip-path="url(#p98ac7907cc)" style="fill: none; stroke: #d3d3d3; stroke-width: 0.5"/>
    <path clip-path="url(#p98ac7907cc)" style="fill: none; stroke: #d3d3d3; stroke-width: 0.5"/>
    <path clip-path="url(#p98ac7907cc)" style="fill: none; stroke: #d3d3d3; stroke-width: 0.5"/>
    <path clip-path="url(#p98ac7907cc)" style="fill: none; stroke: #d3d3d3; stroke-width: 0.5"/>
    <path clip-path="url(#p98ac7907cc)" style="fill: none; stroke: #d3d3d3; stroke-width: 0.5"/>
    <path clip-path="url(#p98ac7907cc)" style="fill: none; stroke: #d3d3d3; stroke-width: 0.5"/>
    <path clip-path="url(#p98ac7907cc)" style="fill: none; stroke: #d3d3d3; stroke-width: 0.5"/>
    <path clip-path="url(#p98ac7907cc)" style="fill: none; stroke: #d3d3d3; stroke-width: 0.5"/>
    <path clip-path="url(#p98ac7907cc)" style="fill: none; stroke: #d3d3d3; stroke-width: 0.5"/>
    <path clip-path="url(#p98ac7907cc)" style="fill: none; stroke: #d3d3d3; stroke-width: 0.5"/>
    <path clip-path="url(#p98ac7907cc)" style="fill: none; stroke: #d3d3d3; stroke-width: 0.5"/>
    <path clip-path="url(#p98ac7907cc)" style="fill: none; stroke: #d3d3d3; stroke-width: 0.5"/>
    <path clip-path="url(#p98ac7907cc)" style="fill: none; stroke: #d3d3d3; stroke-width: 0.5"/>
    <path clip-path="url(#p98ac7907cc)" style="fill: none; stroke: #d3d3d3; stroke-width: 0.5"/>
    <path clip-path="url(#p98ac7907cc)" style="fill: none; stroke: #d3d3d3; stroke-width: 0.5"/>
    <path clip-path="url(#p98ac7907cc)" style="fill: none; stroke: #d3d3d3; stroke-width: 0.5"/>
    <path clip-path="url(#p98ac7907cc)" style="fill: none; stroke: #d3d3d3; stroke-width: 0.5"/>
    <path clip-path="url(#p98ac7907cc)" style="fill: none; stroke: #d3d3d3; stroke-width: 0.5"/>
    <path clip-path="url(#p98ac7907cc)" style="fill: none; stroke: #d3d3d3; stroke-width: 0.5"/>
    <path clip-path="url(#p98ac7907cc)" style="fill: none; stroke: #d3d3d3; stroke-width: 0.5"/>
    <path clip-path="url(#p98ac7907cc)" style="fill: none; stroke: #d3d3d3; stroke-width: 0.5"/>
    <path clip-path="url(#p98ac7907cc)" style="fill: none; stroke: #d3d3d3; stroke-width: 0.5"/>
    <path clip-path="url(#p98ac7907cc)" style="fill: none; stroke: #d3d3d3; stroke-width: 0.5"/>
    <path clip-path="url(#p98ac7907cc)" style="fill: none; stroke: #d3d3d3; stroke-width: 0.5"/>
    <path clip-path="url(#p98ac7907cc)" style="fill: none; stroke: #d3d3d3; stroke-width: 0.5"/>
    <path clip-path="url(#p98ac7907cc)" style="fill: none; stroke: #d3d3d3; stroke-width: 0.5"/>
    <path clip-path="url(#p98ac7907cc)" style="fill: none; stroke: #d3d3d3; stroke-width: 0.5"/>
    <path clip-path="url(#p98ac7907cc)" style="fill: none; stroke: #d3d3d3; stroke-width: 0.5"/>
    <path clip-path="url(#p98ac7907cc)" style="fill: none; stroke: #d3d3d3; stroke-width: 0.5"/>
    <path clip-path="url(#p98ac7907cc)" style="fill: none; stroke: #d3d3d3; stroke-width: 0.5"/>
    <path clip-path="url(#p98ac7907cc)" style="fill: none; stroke: #d3d3d3; stroke-width: 0.5"/>
    <path clip-path="url(#p98ac7907cc)" style="fill: none; stroke: #d3d3d3; stroke-width: 0.5"/>
    <path clip-path="url(#p98ac7907cc)" style="fill: none; stroke: #d3d3d3; stroke-width: 0.5"/>
    <path clip-path="url(#p98ac7907cc)" style="fill: none; stroke: #d3d3d3; stroke-width: 0.5"/>
    <path clip-path="url(#p98ac7907cc)" style="fill: none; stroke: #d3d3d3; stroke-width: 0.5"/>
    <path clip-path="url(#p98ac7907cc)" style="fill: none; stroke: #d3d3d3; stroke-width: 0.5"/>
    <path clip-path="url(#p98ac7907cc)" style="fill: none; stroke: #d3d3d3; stroke-width: 0.5"/>
    <path clip-path="url(#p98ac7907cc)" style="fill: none; stroke: #d3d3d3; stroke-width: 0.5"/>
    <path clip-path="url(#p98ac7907cc)" style="fill: none; stroke: #d3d3d3; stroke-width: 0.5"/>
    <path clip-path="url(#p98ac7907cc)" style="fill: none; stroke: #d3d3d3; stroke-width: 0.5"/>
    <path clip-path="url(#p98ac7907cc)" style="fill: none; stroke: #d3d3d3; stroke-width: 0.5"/>
    <path clip-path="url(#p98ac7907cc)" style="fill: none; stroke: #d3d3d3; stroke-width: 0.5"/>
   </g>
   <g id="patch_3">
    <path d="M 136.8 376.363655 
L 136.8 14.798438 
" style="fill: none; stroke: #000000; stroke-width: 0.8; stroke-linejoin: miter; stroke-linecap: square"/>
   </g>
   <g id="patch_4">
    <path d="M 500.713043 376.363655 
L 500.713043 14.798438 
" style="fill: none; stroke: #000000; stroke-width: 0.8; stroke-linejoin: miter; stroke-linecap: square"/>
   </g>
   <g id="patch_5">
    <path d="M 136.8 376.363655 
L 500.713043 376.363655 
" style="fill: none; stroke: #000000; stroke-width: 0.8; stroke-linejoin: miter; stroke-linecap: square"/>
   </g>
   <g id="patch_6">
    <path d="M 136.8 14.798438 
L 500.713043 14.798438 
" style="fill: none; stroke: #000000; stroke-width: 0.8; stroke-linejoin: miter; stroke-linecap: square"/>
   </g>
   <g id="text_13">
    <!-- 3158 total regs, out of which 1956 paid at least partially. -->
    <g transform="translate(138.619565 374.555829) scale(0.066667 -0.066667)">
     <defs>
      <path id="DejaVuSans-38" d="M 2034 2216 
Q 1584 2216 1326 1975 
Q 1069 1734 1069 1313 
Q 1069 891 1326 650 
Q 1584 409 2034 409 
Q 2484 409 2743 651 
Q 3003 894 3003 1313 
Q 3003 1734 2745 1975 
Q 2488 2216 2034 2216 
z
M 1403 2484 
Q 997 2584 770 2862 
Q 544 3141 544 3541 
Q 544 4100 942 4425 
Q 1341 4750 2034 4750 
Q 2731 4750 3128 4425 
Q 3525 4100 3525 3541 
Q 3525 3141 3298 2862 
Q 3072 2584 2669 2484 
Q 3125 2378 3379 2068 
Q 3634 1759 3634 1313 
Q 3634 634 3220 271 
Q 2806 -91 2034 -91 
Q 1263 -91 848 271 
Q 434 634 434 1313 
Q 434 1759 690 2068 
Q 947 2378 1403 2484 
z
M 1172 3481 
Q 1172 3119 1398 2916 
Q 1625 2713 2034 2713 
Q 2441 2713 2670 2916 
Q 2900 3119 2900 3481 
Q 2900 3844 2670 4047 
Q 2441 4250 2034 4250 
Q 1625 4250 1398 4047 
Q 1172 3844 1172 3481 
z
" transform="scale(0.015625)"/>
      <path id="DejaVuSans-20" transform="scale(0.015625)"/>
      <path id="DejaVuSans-6c" d="M 603 4863 
L 1178 4863 
L 1178 0 
L 603 0 
L 603 4863 
z
" transform="scale(0.015625)"/>
      <path id="DejaVuSans-67" d="M 2906 1791 
Q 2906 2416 2648 2759 
Q 2391 3103 1925 3103 
Q 1463 3103 1205 2759 
Q 947 2416 947 1791 
Q 947 1169 1205 825 
Q 1463 481 1925 481 
Q 2391 481 2648 825 
Q 2906 1169 2906 1791 
z
M 3481 434 
Q 3481 -459 3084 -895 
Q 2688 -1331 1869 -1331 
Q 1566 -1331 1297 -1286 
Q 1028 -1241 775 -1147 
L 775 -588 
Q 1028 -725 1275 -790 
Q 1522 -856 1778 -856 
Q 2344 -856 2625 -561 
Q 2906 -266 2906 331 
L 2906 616 
Q 2728 306 2450 153 
Q 2172 0 1784 0 
Q 1141 0 747 490 
Q 353 981 353 1791 
Q 353 2603 747 3093 
Q 1141 3584 1784 3584 
Q 2172 3584 2450 3431 
Q 2728 3278 2906 2969 
L 2906 3500 
L 3481 3500 
L 3481 434 
z
" transform="scale(0.015625)"/>
      <path id="DejaVuSans-73" d="M 2834 3397 
L 2834 2853 
Q 2591 2978 2328 3040 
Q 2066 3103 1784 3103 
Q 1356 3103 1142 2972 
Q 928 2841 928 2578 
Q 928 2378 1081 2264 
Q 1234 2150 1697 2047 
L 1894 2003 
Q 2506 1872 2764 1633 
Q 3022 1394 3022 966 
Q 3022 478 2636 193 
Q 2250 -91 1575 -91 
Q 1294 -91 989 -36 
Q 684 19 347 128 
L 347 722 
Q 666 556 975 473 
Q 1284 391 1588 391 
Q 1994 391 2212 530 
Q 2431 669 2431 922 
Q 2431 1156 2273 1281 
Q 2116 1406 1581 1522 
L 1381 1569 
Q 847 1681 609 1914 
Q 372 2147 372 2553 
Q 372 3047 722 3315 
Q 1072 3584 1716 3584 
Q 2034 3584 2315 3537 
Q 2597 3491 2834 3397 
z
" transform="scale(0.015625)"/>
      <path id="DejaVuSans-2c" d="M 750 794 
L 1409 794 
L 1409 256 
L 897 -744 
L 494 -744 
L 750 256 
L 750 794 
z
" transform="scale(0.015625)"/>
      <path id="DejaVuSans-66" d="M 2375 4863 
L 2375 4384 
L 1825 4384 
Q 1516 4384 1395 4259 
Q 1275 4134 1275 3809 
L 1275 3500 
L 2222 3500 
L 2222 3053 
L 1275 3053 
L 1275 0 
L 697 0 
L 697 3053 
L 147 3053 
L 147 3500 
L 697 3500 
L 697 3744 
Q 697 4328 969 4595 
Q 1241 4863 1831 4863 
L 2375 4863 
z
" transform="scale(0.015625)"/>
      <path id="DejaVuSans-77" d="M 269 3500 
L 844 3500 
L 1563 769 
L 2278 3500 
L 2956 3500 
L 3675 769 
L 4391 3500 
L 4966 3500 
L 4050 0 
L 3372 0 
L 2619 2869 
L 1863 0 
L 1184 0 
L 269 3500 
z
" transform="scale(0.015625)"/>
      <path id="DejaVuSans-68" d="M 3513 2113 
L 3513 0 
L 2938 0 
L 2938 2094 
Q 2938 2591 2744 2837 
Q 2550 3084 2163 3084 
Q 1697 3084 1428 2787 
Q 1159 2491 1159 1978 
L 1159 0 
L 581 0 
L 581 4863 
L 1159 4863 
L 1159 2956 
Q 1366 3272 1645 3428 
Q 1925 3584 2291 3584 
Q 2894 3584 3203 3211 
Q 3513 2838 3513 2113 
z
" transform="scale(0.015625)"/>
      <path id="DejaVuSans-63" d="M 3122 3366 
L 3122 2828 
Q 2878 2963 2633 3030 
Q 2388 3097 2138 3097 
Q 1578 3097 1268 2742 
Q 959 2388 959 1747 
Q 959 1106 1268 751 
Q 1578 397 2138 397 
Q 2388 397 2633 464 
Q 2878 531 3122 666 
L 3122 134 
Q 2881 22 2623 -34 
Q 2366 -91 2075 -91 
Q 1284 -91 818 406 
Q 353 903 353 1747 
Q 353 2603 823 3093 
Q 1294 3584 2113 3584 
Q 2378 3584 2631 3529 
Q 2884 3475 3122 3366 
z
" transform="scale(0.015625)"/>
      <path id="DejaVuSans-39" d="M 703 97 
L 703 672 
Q 941 559 1184 500 
Q 1428 441 1663 441 
Q 2288 441 2617 861 
Q 2947 1281 2994 2138 
Q 2813 1869 2534 1725 
Q 2256 1581 1919 1581 
Q 1219 1581 811 2004 
Q 403 2428 403 3163 
Q 403 3881 828 4315 
Q 1253 4750 1959 4750 
Q 2769 4750 3195 4129 
Q 3622 3509 3622 2328 
Q 3622 1225 3098 567 
Q 2575 -91 1691 -91 
Q 1453 -91 1209 -44 
Q 966 3 703 97 
z
M 1959 2075 
Q 2384 2075 2632 2365 
Q 2881 2656 2881 3163 
Q 2881 3666 2632 3958 
Q 2384 4250 1959 4250 
Q 1534 4250 1286 3958 
Q 1038 3666 1038 3163 
Q 1038 2656 1286 2365 
Q 1534 2075 1959 2075 
z
" transform="scale(0.015625)"/>
      <path id="DejaVuSans-36" d="M 2113 2584 
Q 1688 2584 1439 2293 
Q 1191 2003 1191 1497 
Q 1191 994 1439 701 
Q 1688 409 2113 409 
Q 2538 409 2786 701 
Q 3034 994 3034 1497 
Q 3034 2003 2786 2293 
Q 2538 2584 2113 2584 
z
M 3366 4563 
L 3366 3988 
Q 3128 4100 2886 4159 
Q 2644 4219 2406 4219 
Q 1781 4219 1451 3797 
Q 1122 3375 1075 2522 
Q 1259 2794 1537 2939 
Q 1816 3084 2150 3084 
Q 2853 3084 3261 2657 
Q 3669 2231 3669 1497 
Q 3669 778 3244 343 
Q 2819 -91 2113 -91 
Q 1303 -91 875 529 
Q 447 1150 447 2328 
Q 447 3434 972 4092 
Q 1497 4750 2381 4750 
Q 2619 4750 2861 4703 
Q 3103 4656 3366 4563 
z
" transform="scale(0.015625)"/>
      <path id="DejaVuSans-64" d="M 2906 2969 
L 2906 4863 
L 3481 4863 
L 3481 0 
L 2906 0 
L 2906 525 
Q 2725 213 2448 61 
Q 2172 -91 1784 -91 
Q 1150 -91 751 415 
Q 353 922 353 1747 
Q 353 2572 751 3078 
Q 1150 3584 1784 3584 
Q 2172 3584 2448 3432 
Q 2725 3281 2906 2969 
z
M 947 1747 
Q 947 1113 1208 752 
Q 1469 391 1925 391 
Q 2381 391 2643 752 
Q 2906 1113 2906 1747 
Q 2906 2381 2643 2742 
Q 2381 3103 1925 3103 
Q 1469 3103 1208 2742 
Q 947 2381 947 1747 
z
" transform="scale(0.015625)"/>
      <path id="DejaVuSans-79" d="M 2059 -325 
Q 1816 -950 1584 -1140 
Q 1353 -1331 966 -1331 
L 506 -1331 
L 506 -850 
L 844 -850 
Q 1081 -850 1212 -737 
Q 1344 -625 1503 -206 
L 1606 56 
L 191 3500 
L 800 3500 
L 1894 763 
L 2988 3500 
L 3597 3500 
L 2059 -325 
z
" transform="scale(0.015625)"/>
      <path id="DejaVuSans-2e" d="M 684 794 
L 1344 794 
L 1344 0 
L 684 0 
L 684 794 
z
" transform="scale(0.015625)"/>
     </defs>
     <use xlink:href="#DejaVuSans-33"/>
     <use xlink:href="#DejaVuSans-31" transform="translate(63.623047 0)"/>
     <use xlink:href="#DejaVuSans-35" transform="translate(127.246094 0)"/>
     <use xlink:href="#DejaVuSans-38" transform="translate(190.869141 0)"/>
     <use xlink:href="#DejaVuSans-20" transform="translate(254.492188 0)"/>
     <use xlink:href="#DejaVuSans-74" transform="translate(286.279297 0)"/>
     <use xlink:href="#DejaVuSans-6f" transform="translate(325.488281 0)"/>
     <use xlink:href="#DejaVuSans-74" transform="translate(386.669922 0)"/>
     <use xlink:href="#DejaVuSans-61" transform="translate(425.878906 0)"/>
     <use xlink:href="#DejaVuSans-6c" transform="translate(487.158203 0)"/>
     <use xlink:href="#DejaVuSans-20" transform="translate(514.941406 0)"/>
     <use xlink:href="#DejaVuSans-72" transform="translate(546.728516 0)"/>
     <use xlink:href="#DejaVuSans-65" transform="translate(585.591797 0)"/>
     <use xlink:href="#DejaVuSans-67" transform="translate(647.115234 0)"/>
     <use xlink:href="#DejaVuSans-73" transform="translate(710.591797 0)"/>
     <use xlink:href="#DejaVuSans-2c" transform="translate(762.691406 0)"/>
     <use xlink:href="#DejaVuSans-20" transform="translate(794.478516 0)"/>
     <use xlink:href="#DejaVuSans-6f" transform="translate(826.265625 0)"/>
     <use xlink:href="#DejaVuSans-75" transform="translate(887.447266 0)"/>
     <use xlink:href="#DejaVuSans-74" transform="translate(950.826172 0)"/>
     <use xlink:href="#DejaVuSans-20" transform="translate(990.035156 0)"/>
     <use xlink:href="#DejaVuSans-6f" transform="translate(1021.822266 0)"/>
     <use xlink:href="#DejaVuSans-66" transform="translate(1083.003906 0)"/>
     <use xlink:href="#DejaVuSans-20" transform="translate(1118.208984 0)"/>
     <use xlink:href="#DejaVuSans-77" transform="translate(1149.996094 0)"/>
     <use xlink:href="#DejaVuSans-68" transform="translate(1231.783203 0)"/>
     <use xlink:href="#DejaVuSans-69" transform="translate(1295.162109 0)"/>
     <use xlink:href="#DejaVuSans-63" transform="translate(1322.945312 0)"/>
     <use xlink:href="#DejaVuSans-68" transform="translate(1377.925781 0)"/>
     <use xlink:href="#DejaVuSans-20" transform="translate(1441.304688 0)"/>
     <use xlink:href="#DejaVuSans-31" transform="translate(1473.091797 0)"/>
     <use xlink:href="#DejaVuSans-39" transform="translate(1536.714844 0)"/>
     <use xlink:href="#DejaVuSans-35" transform="translate(1600.337891 0)"/>
     <use xlink:href="#DejaVuSans-36" transform="translate(1663.960938 0)"/>
     <use xlink:href="#DejaVuSans-20" transform="translate(1727.583984 0)"/>
     <use xlink:href="#DejaVuSans-70" transform="translate(1759.371094 0)"/>
     <use xlink:href="#DejaVuSans-61" transform="translate(1822.847656 0)"/>
     <use xlink:href="#DejaVuSans-69" transform="translate(1884.126953 0)"/>
     <use xlink:href="#DejaVuSans-64" transform="translate(1911.910156 0)"/>
     <use xlink:href="#DejaVuSans-20" transform="translate(1975.386719 0)"/>
     <use xlink:href="#DejaVuSans-61" transform="translate(2007.173828 0)"/>
     <use xlink:href="#DejaVuSans-74" transform="translate(2068.453125 0)"/>
     <use xlink:href="#DejaVuSans-20" transform="translate(2107.662109 0)"/>
     <use xlink:href="#DejaVuSans-6c" transform="translate(2139.449219 0)"/>
     <use xlink:href="#DejaVuSans-65" transform="translate(2167.232422 0)"/>
     <use xlink:href="#DejaVuSans-61" transform="translate(2228.755859 0)"/>
     <use xlink:href="#DejaVuSans-73" transform="translate(2290.035156 0)"/>
     <use xlink:href="#DejaVuSans-74" transform="translate(2342.134766 0)"/>
     <use xlink:href="#DejaVuSans-20" transform="translate(2381.34375 0)"/>
     <use xlink:href="#DejaVuSans-70" transform="translate(2413.130859 0)"/>
     <use xlink:href="#DejaVuSans-61" transform="translate(2476.607422 0)"/>
     <use xlink:href="#DejaVuSans-72" transform="translate(2537.886719 0)"/>
     <use xlink:href="#DejaVuSans-74" transform="translate(2579 0)"/>
     <use xlink:href="#DejaVuSans-69" transform="translate(2618.208984 0)"/>
     <use xlink:href="#DejaVuSans-61" transform="translate(2645.992188 0)"/>
     <use xlink:href="#DejaVuSans-6c" transform="translate(2707.271484 0)"/>
     <use xlink:href="#DejaVuSans-6c" transform="translate(2735.054688 0)"/>
     <use xlink:href="#DejaVuSans-79" transform="translate(2762.837891 0)"/>
     <use xlink:href="#DejaVuSans-2e" transform="translate(2807.767578 0)"/>
    </g>
   </g>
   <g id="legend_1">
    <g id="line2d_13">
     <path d="M 178.42449 34.446094 
L 193.42449 34.446094 
L 208.42449 34.446094 
" style="fill: none; stroke: #005953; stroke-width: 2; stroke-linecap: square"/>
    </g>
    <g id="text_14">
     <!-- Total -->
     <g transform="translate(220.42449 39.696094) scale(0.15 -0.15)">
      <use xlink:href="#DejaVuSans-54"/>
      <use xlink:href="#DejaVuSans-6f" transform="translate(44.083984 0)"/>
      <use xlink:href="#DejaVuSans-74" transform="translate(105.265625 0)"/>
      <use xlink:href="#DejaVuSans-61" transform="translate(144.474609 0)"/>
      <use xlink:href="#DejaVuSans-6c" transform="translate(205.753906 0)"/>
     </g>
    </g>
    <g id="line2d_14">
     <path d="M 285.454178 34.446094 
L 300.454178 34.446094 
L 315.454178 34.446094 
" style="fill: none; stroke: #69a3a2; stroke-width: 2; stroke-linecap: square"/>
    </g>
    <g id="text_15">
     <!-- Paid (incl. partial) -->
     <g transform="translate(327.454178 39.696094) scale(0.15 -0.15)">
      <defs>
       <path id="DejaVuSans-50" d="M 1259 4147 
L 1259 2394 
L 2053 2394 
Q 2494 2394 2734 2622 
Q 2975 2850 2975 3272 
Q 2975 3691 2734 3919 
Q 2494 4147 2053 4147 
L 1259 4147 
z
M 628 4666 
L 2053 4666 
Q 2838 4666 3239 4311 
Q 3641 3956 3641 3272 
Q 3641 2581 3239 2228 
Q 2838 1875 2053 1875 
L 1259 1875 
L 1259 0 
L 628 0 
L 628 4666 
z
" transform="scale(0.015625)"/>
       <path id="DejaVuSans-28" d="M 1984 4856 
Q 1566 4138 1362 3434 
Q 1159 2731 1159 2009 
Q 1159 1288 1364 580 
Q 1569 -128 1984 -844 
L 1484 -844 
Q 1016 -109 783 600 
Q 550 1309 550 2009 
Q 550 2706 781 3412 
Q 1013 4119 1484 4856 
L 1984 4856 
z
" transform="scale(0.015625)"/>
       <path id="DejaVuSans-29" d="M 513 4856 
L 1013 4856 
Q 1481 4119 1714 3412 
Q 1947 2706 1947 2009 
Q 1947 1309 1714 600 
Q 1481 -109 1013 -844 
L 513 -844 
Q 928 -128 1133 580 
Q 1338 1288 1338 2009 
Q 1338 2731 1133 3434 
Q 928 4138 513 4856 
z
" transform="scale(0.015625)"/>
      </defs>
      <use xlink:href="#DejaVuSans-50"/>
      <use xlink:href="#DejaVuSans-61" transform="translate(55.802734 0)"/>
      <use xlink:href="#DejaVuSans-69" transform="translate(117.082031 0)"/>
      <use xlink:href="#DejaVuSans-64" transform="translate(144.865234 0)"/>
      <use xlink:href="#DejaVuSans-20" transform="translate(208.341797 0)"/>
      <use xlink:href="#DejaVuSans-28" transform="translate(240.128906 0)"/>
      <use xlink:href="#DejaVuSans-69" transform="translate(279.142578 0)"/>
      <use xlink:href="#DejaVuSans-6e" transform="translate(306.925781 0)"/>
      <use xlink:href="#DejaVuSans-63" transform="translate(370.304688 0)"/>
      <use xlink:href="#DejaVuSans-6c" transform="translate(425.285156 0)"/>
      <use xlink:href="#DejaVuSans-2e" transform="translate(453.068359 0)"/>
      <use xlink:href="#DejaVuSans-20" transform="translate(484.855469 0)"/>
      <use xlink:href="#DejaVuSans-70" transform="translate(516.642578 0)"/>
      <use xlink:href="#DejaVuSans-61" transform="translate(580.119141 0)"/>
      <use xlink:href="#DejaVuSans-72" transform="translate(641.398438 0)"/>
      <use xlink:href="#DejaVuSans-74" transform="translate(682.511719 0)"/>
      <use xlink:href="#DejaVuSans-69" transform="translate(721.720703 0)"/>
      <use xlink:href="#DejaVuSans-61" transform="translate(749.503906 0)"/>
      <use xlink:href="#DejaVuSans-6c" transform="translate(810.783203 0)"/>
      <use xlink:href="#DejaVuSans-29" transform="translate(838.566406 0)"/>
     </g>
    </g>
   </g>
  </g>
  <g id="axes_2">
   <g id="patch_7">
    <path d="M 609.886957 376.363655 
L 973.8 376.363655 
L 973.8 14.798438 
L 609.886957 14.798438 
z
" style="fill: #ffffff"/>
   </g>
   <g id="patch_8">
    <path d="M 609.886957 243.789742 
L 769.499217 243.789742 
L 769.499217 147.372351 
L 609.886957 147.372351 
z
" clip-path="url(#pea09b6fead)" style="fill: #a2c5c4"/>
   </g>
   <g id="patch_9">
    <path d="M 769.499217 243.789742 
L 804.871565 243.789742 
L 804.871565 147.372351 
L 769.499217 147.372351 
z
" clip-path="url(#pea09b6fead)" style="fill: #69a3a2"/>
   </g>
   <g id="patch_10">
    <path d="M 804.871565 243.789742 
L 837.623739 243.789742 
L 837.623739 147.372351 
L 804.871565 147.372351 
z
" clip-path="url(#pea09b6fead)" style="fill: #005953"/>
   </g>
   <g id="matplotlib.axis_3">
    <g id="xtick_5">
     <g id="line2d_15">
      <g>
       <use xlink:href="#mcdf7b55379" x="609.886957" y="376.363655" style="stroke: #000000; stroke-width: 0.8"/>
      </g>
     </g>
     <g id="text_16">
      <!-- 0 -->
      <g transform="translate(603.524457 405.06053) scale(0.2 -0.2)">
       <use xlink:href="#DejaVuSans-30"/>
      </g>
     </g>
    </g>
    <g id="xtick_6">
     <g id="line2d_16">
      <g>
       <use xlink:href="#mcdf7b55379" x="682.669565" y="376.363655" style="stroke: #000000; stroke-width: 0.8"/>
      </g>
     </g>
     <g id="text_17">
      <!-- 1000 -->
      <g transform="translate(657.219565 405.06053) scale(0.2 -0.2)">
       <use xlink:href="#DejaVuSans-31"/>
       <use xlink:href="#DejaVuSans-30" transform="translate(63.623047 0)"/>
       <use xlink:href="#DejaVuSans-30" transform="translate(127.246094 0)"/>
       <use xlink:href="#DejaVuSans-30" transform="translate(190.869141 0)"/>
      </g>
     </g>
    </g>
    <g id="xtick_7">
     <g id="line2d_17">
      <g>
       <use xlink:href="#mcdf7b55379" x="755.452174" y="376.363655" style="stroke: #000000; stroke-width: 0.8"/>
      </g>
     </g>
     <g id="text_18">
      <!-- 2000 -->
      <g transform="translate(730.002174 405.06053) scale(0.2 -0.2)">
       <use xlink:href="#DejaVuSans-32"/>
       <use xlink:href="#DejaVuSans-30" transform="translate(63.623047 0)"/>
       <use xlink:href="#DejaVuSans-30" transform="translate(127.246094 0)"/>
       <use xlink:href="#DejaVuSans-30" transform="translate(190.869141 0)"/>
      </g>
     </g>
    </g>
    <g id="xtick_8">
     <g id="line2d_18">
      <g>
       <use xlink:href="#mcdf7b55379" x="828.234783" y="376.363655" style="stroke: #000000; stroke-width: 0.8"/>
      </g>
     </g>
     <g id="text_19">
      <!-- 3000 -->
      <g transform="translate(802.784783 405.06053) scale(0.2 -0.2)">
       <use xlink:href="#DejaVuSans-33"/>
       <use xlink:href="#DejaVuSans-30" transform="translate(63.623047 0)"/>
       <use xlink:href="#DejaVuSans-30" transform="translate(127.246094 0)"/>
       <use xlink:href="#DejaVuSans-30" transform="translate(190.869141 0)"/>
      </g>
     </g>
    </g>
    <g id="xtick_9">
     <g id="line2d_19">
      <g>
       <use xlink:href="#mcdf7b55379" x="901.017391" y="376.363655" style="stroke: #000000; stroke-width: 0.8"/>
      </g>
     </g>
     <g id="text_20">
      <!-- 4000 -->
      <g transform="translate(875.567391 405.06053) scale(0.2 -0.2)">
       <use xlink:href="#DejaVuSans-34"/>
       <use xlink:href="#DejaVuSans-30" transform="translate(63.623047 0)"/>
       <use xlink:href="#DejaVuSans-30" transform="translate(127.246094 0)"/>
       <use xlink:href="#DejaVuSans-30" transform="translate(190.869141 0)"/>
      </g>
     </g>
    </g>
    <g id="xtick_10">
     <g id="line2d_20">
      <g>
       <use xlink:href="#mcdf7b55379" x="973.8" y="376.363655" style="stroke: #000000; stroke-width: 0.8"/>
      </g>
     </g>
     <g id="text_21">
      <!-- 5000 -->
      <g transform="translate(948.35 405.06053) scale(0.2 -0.2)">
       <use xlink:href="#DejaVuSans-35"/>
       <use xlink:href="#DejaVuSans-30" transform="translate(63.623047 0)"/>
       <use xlink:href="#DejaVuSans-30" transform="translate(127.246094 0)"/>
       <use xlink:href="#DejaVuSans-30" transform="translate(190.869141 0)"/>
      </g>
     </g>
    </g>
    <g id="text_22">
     <!-- Count -->
     <g transform="translate(762.146603 434.41678) scale(0.2 -0.2)">
      <use xlink:href="#DejaVuSans-43"/>
      <use xlink:href="#DejaVuSans-6f" transform="translate(69.824219 0)"/>
      <use xlink:href="#DejaVuSans-75" transform="translate(131.005859 0)"/>
      <use xlink:href="#DejaVuSans-6e" transform="translate(194.384766 0)"/>
      <use xlink:href="#DejaVuSans-74" transform="translate(257.763672 0)"/>
     </g>
    </g>
   </g>
   <g id="matplotlib.axis_4"/>
   <g id="patch_11">
    <path d="M 609.886957 376.363655 
L 609.886957 14.798438 
" style="fill: none; stroke: #000000; stroke-width: 0.8; stroke-linejoin: miter; stroke-linecap: square"/>
   </g>
   <g id="patch_12">
    <path d="M 973.8 376.363655 
L 973.8 14.798438 
" style="fill: none; stroke: #000000; stroke-width: 0.8; stroke-linejoin: miter; stroke-linecap: square"/>
   </g>
   <g id="patch_13">
    <path d="M 609.886957 376.363655 
L 973.8 376.363655 
" style="fill: none; stroke: #000000; stroke-width: 0.8; stroke-linejoin: miter; stroke-linecap: square"/>
   </g>
   <g id="patch_14">
    <path d="M 609.886957 14.798438 
L 973.8 14.798438 
" style="fill: none; stroke: #000000; stroke-width: 0.8; stroke-linejoin: miter; stroke-linecap: square"/>
   </g>
   <g id="text_23">
    <!-- 3129 total regs (2193 normal, 486 sponsors, 450 supersponsors). -->
    <g transform="translate(611.706522 374.555829) scale(0.066667 -0.066667)">
     <use xlink:href="#DejaVuSans-33"/>
     <use xlink:href="#DejaVuSans-31" transform="translate(63.623047 0)"/>
     <use xlink:href="#DejaVuSans-32" transform="translate(127.246094 0)"/>
     <use xlink:href="#DejaVuSans-39" transform="translate(190.869141 0)"/>
     <use xlink:href="#DejaVuSans-20" transform="translate(254.492188 0)"/>
     <use xlink:href="#DejaVuSans-74" transform="translate(286.279297 0)"/>
     <use xlink:href="#DejaVuSans-6f" transform="translate(325.488281 0)"/>
     <use xlink:href="#DejaVuSans-74" transform="translate(386.669922 0)"/>
     <use xlink:href="#DejaVuSans-61" transform="translate(425.878906 0)"/>
     <use xlink:href="#DejaVuSans-6c" transform="translate(487.158203 0)"/>
     <use xlink:href="#DejaVuSans-20" transform="translate(514.941406 0)"/>
     <use xlink:href="#DejaVuSans-72" transform="translate(546.728516 0)"/>
     <use xlink:href="#DejaVuSans-65" transform="translate(585.591797 0)"/>
     <use xlink:href="#DejaVuSans-67" transform="translate(647.115234 0)"/>
     <use xlink:href="#DejaVuSans-73" transform="translate(710.591797 0)"/>
     <use xlink:href="#DejaVuSans-20" transform="translate(762.691406 0)"/>
     <use xlink:href="#DejaVuSans-28" transform="translate(794.478516 0)"/>
     <use xlink:href="#DejaVuSans-32" transform="translate(833.492188 0)"/>
     <use xlink:href="#DejaVuSans-31" transform="translate(897.115234 0)"/>
     <use xlink:href="#DejaVuSans-39" transform="translate(960.738281 0)"/>
     <use xlink:href="#DejaVuSans-33" transform="translate(1024.361328 0)"/>
     <use xlink:href="#DejaVuSans-20" transform="translate(1087.984375 0)"/>
     <use xlink:href="#DejaVuSans-6e" transform="translate(1119.771484 0)"/>
     <use xlink:href="#DejaVuSans-6f" transform="translate(1183.150391 0)"/>
     <use xlink:href="#DejaVuSans-72" transform="translate(1244.332031 0)"/>
     <use xlink:href="#DejaVuSans-6d" transform="translate(1283.695312 0)"/>
     <use xlink:href="#DejaVuSans-61" transform="translate(1381.107422 0)"/>
     <use xlink:href="#DejaVuSans-6c" transform="translate(1442.386719 0)"/>
     <use xlink:href="#DejaVuSans-2c" transform="translate(1470.169922 0)"/>
     <use xlink:href="#DejaVuSans-20" transform="translate(1501.957031 0)"/>
     <use xlink:href="#DejaVuSans-34" transform="translate(1533.744141 0)"/>
     <use xlink:href="#DejaVuSans-38" transform="translate(1597.367188 0)"/>
     <use xlink:href="#DejaVuSans-36" transform="translate(1660.990234 0)"/>
     <use xlink:href="#DejaVuSans-20" transform="translate(1724.613281 0)"/>
     <use xlink:href="#DejaVuSans-73" transform="translate(1756.400391 0)"/>
     <use xlink:href="#DejaVuSans-70" transform="translate(1808.5 0)"/>
     <use xlink:href="#DejaVuSans-6f" transform="translate(1871.976562 0)"/>
     <use xlink:href="#DejaVuSans-6e" transform="translate(1933.158203 0)"/>
     <use xlink:href="#DejaVuSans-73" transform="translate(1996.537109 0)"/>
     <use xlink:href="#DejaVuSans-6f" transform="translate(2048.636719 0)"/>
     <use xlink:href="#DejaVuSans-72" transform="translate(2109.818359 0)"/>
     <use xlink:href="#DejaVuSans-73" transform="translate(2150.931641 0)"/>
     <use xlink:href="#DejaVuSans-2c" transform="translate(2203.03125 0)"/>
     <use xlink:href="#DejaVuSans-20" transform="translate(2234.818359 0)"/>
     <use xlink:href="#DejaVuSans-34" transform="translate(2266.605469 0)"/>
     <use xlink:href="#DejaVuSans-35" transform="translate(2330.228516 0)"/>
     <use xlink:href="#DejaVuSans-30" transform="translate(2393.851562 0)"/>
     <use xlink:href="#DejaVuSans-20" transform="translate(2457.474609 0)"/>
     <use xlink:href="#DejaVuSans-73" transform="translate(2489.261719 0)"/>
     <use xlink:href="#DejaVuSans-75" transform="translate(2541.361328 0)"/>
     <use xlink:href="#DejaVuSans-70" transform="translate(2604.740234 0)"/>
     <use xlink:href="#DejaVuSans-65" transform="translate(2668.216797 0)"/>
     <use xlink:href="#DejaVuSans-72" transform="translate(2729.740234 0)"/>
     <use xlink:href="#DejaVuSans-73" transform="translate(2770.853516 0)"/>
     <use xlink:href="#DejaVuSans-70" transform="translate(2822.953125 0)"/>
     <use xlink:href="#DejaVuSans-6f" transform="translate(2886.429688 0)"/>
     <use xlink:href="#DejaVuSans-6e" transform="translate(2947.611328 0)"/>
     <use xlink:href="#DejaVuSans-73" transform="translate(3010.990234 0)"/>
     <use xlink:href="#DejaVuSans-6f" transform="translate(3063.089844 0)"/>
     <use xlink:href="#DejaVuSans-72" transform="translate(3124.271484 0)"/>
     <use xlink:href="#DejaVuSans-73" transform="translate(3165.384766 0)"/>
     <use xlink:href="#DejaVuSans-29" transform="translate(3217.484375 0)"/>
     <use xlink:href="#DejaVuSans-2e" transform="translate(3256.498047 0)"/>
    </g>
   </g>
   <g id="legend_2">
    <g id="patch_15">
     <path d="M 652.835666 39.696094 
L 682.835666 39.696094 
L 682.835666 29.196094 
L 652.835666 29.196094 
z
" style="fill: #a2c5c4"/>
    </g>
    <g id="text_24">
     <!-- Normal -->
     <g transform="translate(694.835666 39.696094) scale(0.15 -0.15)">
      <defs>
       <path id="DejaVuSans-4e" d="M 628 4666 
L 1478 4666 
L 3547 763 
L 3547 4666 
L 4159 4666 
L 4159 0 
L 3309 0 
L 1241 3903 
L 1241 0 
L 628 0 
L 628 4666 
z
" transform="scale(0.015625)"/>
      </defs>
      <use xlink:href="#DejaVuSans-4e"/>
      <use xlink:href="#DejaVuSans-6f" transform="translate(74.804688 0)"/>
      <use xlink:href="#DejaVuSans-72" transform="translate(135.986328 0)"/>
      <use xlink:href="#DejaVuSans-6d" transform="translate(175.349609 0)"/>
      <use xlink:href="#DejaVuSans-61" transform="translate(272.761719 0)"/>
      <use xlink:href="#DejaVuSans-6c" transform="translate(334.041016 0)"/>
     </g>
    </g>
    <g id="patch_16">
     <path d="M 652.835666 61.713281 
L 682.835666 61.713281 
L 682.835666 51.213281 
L 652.835666 51.213281 
z
" style="fill: #69a3a2"/>
    </g>
    <g id="text_25">
     <!-- Sponsor -->
     <g transform="translate(694.835666 61.713281) scale(0.15 -0.15)">
      <defs>
       <path id="DejaVuSans-53" d="M 3425 4513 
L 3425 3897 
Q 3066 4069 2747 4153 
Q 2428 4238 2131 4238 
Q 1616 4238 1336 4038 
Q 1056 3838 1056 3469 
Q 1056 3159 1242 3001 
Q 1428 2844 1947 2747 
L 2328 2669 
Q 3034 2534 3370 2195 
Q 3706 1856 3706 1288 
Q 3706 609 3251 259 
Q 2797 -91 1919 -91 
Q 1588 -91 1214 -16 
Q 841 59 441 206 
L 441 856 
Q 825 641 1194 531 
Q 1563 422 1919 422 
Q 2459 422 2753 634 
Q 3047 847 3047 1241 
Q 3047 1584 2836 1778 
Q 2625 1972 2144 2069 
L 1759 2144 
Q 1053 2284 737 2584 
Q 422 2884 422 3419 
Q 422 4038 858 4394 
Q 1294 4750 2059 4750 
Q 2388 4750 2728 4690 
Q 3069 4631 3425 4513 
z
" transform="scale(0.015625)"/>
      </defs>
      <use xlink:href="#DejaVuSans-53"/>
      <use xlink:href="#DejaVuSans-70" transform="translate(63.476562 0)"/>
      <use xlink:href="#DejaVuSans-6f" transform="translate(126.953125 0)"/>
      <use xlink:href="#DejaVuSans-6e" transform="translate(188.134766 0)"/>
      <use xlink:href="#DejaVuSans-73" transform="translate(251.513672 0)"/>
      <use xlink:href="#DejaVuSans-6f" transform="translate(303.613281 0)"/>
      <use xlink:href="#DejaVuSans-72" transform="translate(364.794922 0)"/>
     </g>
    </g>
    <g id="patch_17">
     <path d="M 785.723947 39.696094 
L 815.723947 39.696094 
L 815.723947 29.196094 
L 785.723947 29.196094 
z
" style="fill: #005953"/>
    </g>
    <g id="text_26">
     <!-- Supersponsor -->
     <g transform="translate(827.723947 39.696094) scale(0.15 -0.15)">
      <use xlink:href="#DejaVuSans-53"/>
      <use xlink:href="#DejaVuSans-75" transform="translate(63.476562 0)"/>
      <use xlink:href="#DejaVuSans-70" transform="translate(126.855469 0)"/>
      <use xlink:href="#DejaVuSans-65" transform="translate(190.332031 0)"/>
      <use xlink:href="#DejaVuSans-72" transform="translate(251.855469 0)"/>
      <use xlink:href="#DejaVuSans-73" transform="translate(292.96875 0)"/>
      <use xlink:href="#DejaVuSans-70" transform="translate(345.068359 0)"/>
      <use xlink:href="#DejaVuSans-6f" transform="translate(408.544922 0)"/>
      <use xlink:href="#DejaVuSans-6e" transform="translate(469.726562 0)"/>
      <use xlink:href="#DejaVuSans-73" transform="translate(533.105469 0)"/>
      <use xlink:href="#DejaVuSans-6f" transform="translate(585.205078 0)"/>
      <use xlink:href="#DejaVuSans-72" transform="translate(646.386719 0)"/>
     </g>
    </g>
   </g>
  </g>
  <g id="axes_3">
   <g id="patch_18">
    <path d="M 136.8 846.398438 
L 500.713043 846.398438 
L 500.713043 484.83322 
L 136.8 484.83322 
z
" style="fill: #ffffff"/>
   </g>
   <g id="matplotlib.axis_5">
    <g id="xtick_11">
     <g id="line2d_21">
      <g>
       <use xlink:href="#mcdf7b55379" x="143.93555" y="846.398438" style="stroke: #000000; stroke-width: 0.8"/>
      </g>
     </g>
     <g id="text_27">
      <!-- 0 -->
      <g transform="translate(137.57305 875.095313) scale(0.2 -0.2)">
       <use xlink:href="#DejaVuSans-30"/>
      </g>
     </g>
    </g>
    <g id="xtick_12">
     <g id="line2d_22">
      <g>
       <use xlink:href="#mcdf7b55379" x="215.291049" y="846.398438" style="stroke: #000000; stroke-width: 0.8"/>
      </g>
     </g>
     <g id="text_28">
      <!-- 50 -->
      <g transform="translate(202.566049 875.095313) scale(0.2 -0.2)">
       <use xlink:href="#DejaVuSans-35"/>
       <use xlink:href="#DejaVuSans-30" transform="translate(63.623047 0)"/>
      </g>
     </g>
    </g>
    <g id="xtick_13">
     <g id="line2d_23">
      <g>
       <use xlink:href="#mcdf7b55379" x="286.646547" y="846.398438" style="stroke: #000000; stroke-width: 0.8"/>
      </g>
     </g>
     <g id="text_29">
      <!-- 100 -->
      <g transform="translate(267.559047 875.095313) scale(0.2 -0.2)">
       <use xlink:href="#DejaVuSans-31"/>
       <use xlink:href="#DejaVuSans-30" transform="translate(63.623047 0)"/>
       <use xlink:href="#DejaVuSans-30" transform="translate(127.246094 0)"/>
      </g>
     </g>
    </g>
    <g id="xtick_14">
     <g id="line2d_24">
      <g>
       <use xlink:href="#mcdf7b55379" x="358.002046" y="846.398438" style="stroke: #000000; stroke-width: 0.8"/>
      </g>
     </g>
     <g id="text_30">
      <!-- 150 -->
      <g transform="translate(338.914546 875.095313) scale(0.2 -0.2)">
       <use xlink:href="#DejaVuSans-31"/>
       <use xlink:href="#DejaVuSans-35" transform="translate(63.623047 0)"/>
       <use xlink:href="#DejaVuSans-30" transform="translate(127.246094 0)"/>
      </g>
     </g>
    </g>
    <g id="xtick_15">
     <g id="line2d_25">
      <g>
       <use xlink:href="#mcdf7b55379" x="429.357545" y="846.398438" style="stroke: #000000; stroke-width: 0.8"/>
      </g>
     </g>
     <g id="text_31">
      <!-- 200 -->
      <g transform="translate(410.270045 875.095313) scale(0.2 -0.2)">
       <use xlink:href="#DejaVuSans-32"/>
       <use xlink:href="#DejaVuSans-30" transform="translate(63.623047 0)"/>
       <use xlink:href="#DejaVuSans-30" transform="translate(127.246094 0)"/>
      </g>
     </g>
    </g>
    <g id="xtick_16">
     <g id="line2d_26">
      <g>
       <use xlink:href="#mcdf7b55379" x="500.713043" y="846.398438" style="stroke: #000000; stroke-width: 0.8"/>
      </g>
     </g>
     <g id="text_32">
      <!-- 250 -->
      <g transform="translate(481.625543 875.095313) scale(0.2 -0.2)">
       <use xlink:href="#DejaVuSans-32"/>
       <use xlink:href="#DejaVuSans-35" transform="translate(63.623047 0)"/>
       <use xlink:href="#DejaVuSans-30" transform="translate(127.246094 0)"/>
      </g>
     </g>
    </g>
    <g id="text_33">
     <!-- Day After Reg Opening -->
     <g transform="translate(204.292459 904.451563) scale(0.2 -0.2)">
      <defs>
       <path id="DejaVuSans-44" d="M 1259 4147 
L 1259 519 
L 2022 519 
Q 2988 519 3436 956 
Q 3884 1394 3884 2338 
Q 3884 3275 3436 3711 
Q 2988 4147 2022 4147 
L 1259 4147 
z
M 628 4666 
L 1925 4666 
Q 3281 4666 3915 4102 
Q 4550 3538 4550 2338 
Q 4550 1131 3912 565 
Q 3275 0 1925 0 
L 628 0 
L 628 4666 
z
" transform="scale(0.015625)"/>
       <path id="DejaVuSans-52" d="M 2841 2188 
Q 3044 2119 3236 1894 
Q 3428 1669 3622 1275 
L 4263 0 
L 3584 0 
L 2988 1197 
Q 2756 1666 2539 1819 
Q 2322 1972 1947 1972 
L 1259 1972 
L 1259 0 
L 628 0 
L 628 4666 
L 2053 4666 
Q 2853 4666 3247 4331 
Q 3641 3997 3641 3322 
Q 3641 2881 3436 2590 
Q 3231 2300 2841 2188 
z
M 1259 4147 
L 1259 2491 
L 2053 2491 
Q 2509 2491 2742 2702 
Q 2975 2913 2975 3322 
Q 2975 3731 2742 3939 
Q 2509 4147 2053 4147 
L 1259 4147 
z
" transform="scale(0.015625)"/>
       <path id="DejaVuSans-4f" d="M 2522 4238 
Q 1834 4238 1429 3725 
Q 1025 3213 1025 2328 
Q 1025 1447 1429 934 
Q 1834 422 2522 422 
Q 3209 422 3611 934 
Q 4013 1447 4013 2328 
Q 4013 3213 3611 3725 
Q 3209 4238 2522 4238 
z
M 2522 4750 
Q 3503 4750 4090 4092 
Q 4678 3434 4678 2328 
Q 4678 1225 4090 567 
Q 3503 -91 2522 -91 
Q 1538 -91 948 565 
Q 359 1222 359 2328 
Q 359 3434 948 4092 
Q 1538 4750 2522 4750 
z
" transform="scale(0.015625)"/>
      </defs>
      <use xlink:href="#DejaVuSans-44"/>
      <use xlink:href="#DejaVuSans-61" transform="translate(77.001953 0)"/>
      <use xlink:href="#DejaVuSans-79" transform="translate(138.28125 0)"/>
      <use xlink:href="#DejaVuSans-20" transform="translate(197.460938 0)"/>
      <use xlink:href="#DejaVuSans-41" transform="translate(229.248047 0)"/>
      <use xlink:href="#DejaVuSans-66" transform="translate(294.03125 0)"/>
      <use xlink:href="#DejaVuSans-74" transform="translate(327.486328 0)"/>
      <use xlink:href="#DejaVuSans-65" transform="translate(366.695312 0)"/>
      <use xlink:href="#DejaVuSans-72" transform="translate(428.21875 0)"/>
      <use xlink:href="#DejaVuSans-20" transform="translate(469.332031 0)"/>
      <use xlink:href="#DejaVuSans-52" transform="translate(501.119141 0)"/>
      <use xlink:href="#DejaVuSans-65" transform="translate(566.101562 0)"/>
      <use xlink:href="#DejaVuSans-67" transform="translate(627.625 0)"/>
      <use xlink:href="#DejaVuSans-20" transform="translate(691.101562 0)"/>
      <use xlink:href="#DejaVuSans-4f" transform="translate(722.888672 0)"/>
      <use xlink:href="#DejaVuSans-70" transform="translate(801.599609 0)"/>
      <use xlink:href="#DejaVuSans-65" transform="translate(865.076172 0)"/>
      <use xlink:href="#DejaVuSans-6e" transform="translate(926.599609 0)"/>
      <use xlink:href="#DejaVuSans-69" transform="translate(989.978516 0)"/>
      <use xlink:href="#DejaVuSans-6e" transform="translate(1017.761719 0)"/>
      <use xlink:href="#DejaVuSans-67" transform="translate(1081.140625 0)"/>
     </g>
    </g>
   </g>
   <g id="matplotlib.axis_6">
    <g id="ytick_7">
     <g id="line2d_27">
      <g>
       <use xlink:href="#ma4fed31f18" x="136.8" y="846.398438" style="stroke: #000000; stroke-width: 0.8"/>
      </g>
     </g>
     <g id="text_34">
      <!-- 0 -->
      <g transform="translate(110.575 853.996875) scale(0.2 -0.2)">
       <use xlink:href="#DejaVuSans-30"/>
      </g>
     </g>
    </g>
    <g id="ytick_8">
     <g id="line2d_28">
      <g>
       <use xlink:href="#ma4fed31f18" x="136.8" y="786.137568" style="stroke: #000000; stroke-width: 0.8"/>
      </g>
     </g>
     <g id="text_35">
      <!-- 1000 -->
      <g transform="translate(72.4 793.736005) scale(0.2 -0.2)">
       <use xlink:href="#DejaVuSans-31"/>
       <use xlink:href="#DejaVuSans-30" transform="translate(63.623047 0)"/>
       <use xlink:href="#DejaVuSans-30" transform="translate(127.246094 0)"/>
       <use xlink:href="#DejaVuSans-30" transform="translate(190.869141 0)"/>
      </g>
     </g>
    </g>
    <g id="ytick_9">
     <g id="line2d_29">
      <g>
       <use xlink:href="#ma4fed31f18" x="136.8" y="725.876698" style="stroke: #000000; stroke-width: 0.8"/>
      </g>
     </g>
     <g id="text_36">
      <!-- 2000 -->
      <g transform="translate(72.4 733.475136) scale(0.2 -0.2)">
       <use xlink:href="#DejaVuSans-32"/>
       <use xlink:href="#DejaVuSans-30" transform="translate(63.623047 0)"/>
       <use xlink:href="#DejaVuSans-30" transform="translate(127.246094 0)"/>
       <use xlink:href="#DejaVuSans-30" transform="translate(190.869141 0)"/>
      </g>
     </g>
    </g>
    <g id="ytick_10">
     <g id="line2d_30">
      <g>
       <use xlink:href="#ma4fed31f18" x="136.8" y="665.615829" style="stroke: #000000; stroke-width: 0.8"/>
      </g>
     </g>
     <g id="text_37">
      <!-- 3000 -->
      <g transform="translate(72.4 673.214266) scale(0.2 -0.2)">
       <use xlink:href="#DejaVuSans-33"/>
       <use xlink:href="#DejaVuSans-30" transform="translate(63.623047 0)"/>
       <use xlink:href="#DejaVuSans-30" transform="translate(127.246094 0)"/>
       <use xlink:href="#DejaVuSans-30" transform="translate(190.869141 0)"/>
      </g>
     </g>
    </g>
    <g id="ytick_11">
     <g id="line2d_31">
      <g>
       <use xlink:href="#ma4fed31f18" x="136.8" y="605.354959" style="stroke: #000000; stroke-width: 0.8"/>
      </g>
     </g>
     <g id="text_38">
      <!-- 4000 -->
      <g transform="translate(72.4 612.953397) scale(0.2 -0.2)">
       <use xlink:href="#DejaVuSans-34"/>
       <use xlink:href="#DejaVuSans-30" transform="translate(63.623047 0)"/>
       <use xlink:href="#DejaVuSans-30" transform="translate(127.246094 0)"/>
       <use xlink:href="#DejaVuSans-30" transform="translate(190.869141 0)"/>
      </g>
     </g>
    </g>
    <g id="ytick_12">
     <g id="line2d_32">
      <g>
       <use xlink:href="#ma4fed31f18" x="136.8" y="545.09409" style="stroke: #000000; stroke-width: 0.8"/>
      </g>
     </g>
     <g id="text_39">
      <!-- 5000 -->
      <g transform="translate(72.4 552.692527) scale(0.2 -0.2)">
       <use xlink:href="#DejaVuSans-35"/>
       <use xlink:href="#DejaVuSans-30" transform="translate(63.623047 0)"/>
       <use xlink:href="#DejaVuSans-30" transform="translate(127.246094 0)"/>
       <use xlink:href="#DejaVuSans-30" transform="translate(190.869141 0)"/>
      </g>
     </g>
    </g>
    <g id="ytick_13">
     <g id="line2d_33">
      <g>
       <use xlink:href="#ma4fed31f18" x="136.8" y="484.83322" style="stroke: #000000; stroke-width: 0.8"/>
      </g>
     </g>
     <g id="text_40">
      <!-- 6000 -->
      <g transform="translate(72.4 492.431658) scale(0.2 -0.2)">
       <use xlink:href="#DejaVuSans-36"/>
       <use xlink:href="#DejaVuSans-30" transform="translate(63.623047 0)"/>
       <use xlink:href="#DejaVuSans-30" transform="translate(127.246094 0)"/>
       <use xlink:href="#DejaVuSans-30" transform="translate(190.869141 0)"/>
      </g>
     </g>
    </g>
    <g id="text_41">
     <!-- Total Regs -->
     <g transform="translate(58.240625 716.356454) rotate(-90) scale(0.2 -0.2)">
      <use xlink:href="#DejaVuSans-54"/>
      <use xlink:href="#DejaVuSans-6f" transform="translate(44.083984 0)"/>
      <use xlink:href="#DejaVuSans-74" transform="translate(105.265625 0)"/>
      <use xlink:href="#DejaVuSans-61" transform="translate(144.474609 0)"/>
      <use xlink:href="#DejaVuSans-6c" transform="translate(205.753906 0)"/>
      <use xlink:href="#DejaVuSans-20" transform="translate(233.537109 0)"/>
      <use xlink:href="#DejaVuSans-52" transform="translate(265.324219 0)"/>
      <use xlink:href="#DejaVuSans-65" transform="translate(330.306641 0)"/>
      <use xlink:href="#DejaVuSans-67" transform="translate(391.830078 0)"/>
      <use xlink:href="#DejaVuSans-73" transform="translate(455.306641 0)"/>
     </g>
    </g>
   </g>
   <g id="line2d_34">
    <path d="M 139.65422 833.080785 
L 141.08133 831.574264 
L 142.50844 829.404872 
L 143.93555 747.811655 
L 145.36266 731.902785 
L 146.78977 726.178003 
L 148.21688 721.718698 
L 149.64399 717.801742 
L 152.49821 713.161655 
L 153.92532 710.329394 
L 155.35243 708.280524 
L 156.77954 706.472698 
L 158.20665 703.278872 
L 159.63376 700.808177 
L 163.91509 695.866785 
L 165.342199 694.78209 
L 166.769309 693.878177 
L 168.196419 692.492177 
L 169.623529 690.62409 
L 171.050639 688.334177 
L 172.477749 687.068698 
L 175.331969 683.392785 
L 176.759079 682.247829 
L 178.186189 679.777133 
L 181.040409 672.184264 
L 182.467519 665.615829 
L 183.894629 654.949655 
L 185.321739 653.141829 
L 188.175959 650.43009 
L 189.603069 655.793307 
L 192.457289 653.623916 
L 193.884399 652.961046 
L 195.311509 652.057133 
L 196.738619 650.671133 
L 198.165729 650.068524 
L 199.592839 650.490351 
L 202.447059 648.923568 
L 205.301279 648.320959 
L 208.155499 646.693916 
L 209.582609 646.99522 
L 211.009719 646.874698 
L 215.291049 645.790003 
L 216.718159 645.006611 
L 218.145269 644.404003 
L 219.572379 646.27209 
L 222.426598 644.88609 
L 223.853708 644.464264 
L 225.280818 643.921916 
L 228.135038 642.294872 
L 229.562148 641.149916 
L 230.989258 641.210177 
L 232.416368 640.848611 
L 235.270588 639.703655 
L 236.697698 639.34209 
L 238.124808 638.438177 
L 239.551918 638.799742 
L 240.979028 638.317655 
L 242.406138 638.076611 
L 243.833248 637.534264 
L 245.260358 637.112438 
L 246.687468 636.148264 
L 248.114578 636.088003 
L 249.541688 635.90722 
L 250.968798 635.605916 
L 252.395908 635.18409 
L 253.823018 635.003307 
L 255.250128 634.280177 
L 256.677238 633.858351 
L 258.104348 633.617307 
L 259.531458 633.858351 
L 260.958568 632.894177 
L 263.812788 631.869742 
L 266.667008 631.086351 
L 268.094118 630.724785 
L 269.521228 631.387655 
L 270.948338 631.086351 
L 273.802558 629.941394 
L 275.229668 628.97722 
L 276.656777 628.193829 
L 278.083887 627.711742 
L 279.510997 626.988611 
L 280.938107 625.723133 
L 283.792327 624.698698 
L 285.219437 624.276872 
L 286.646547 624.09609 
L 288.073657 623.43322 
L 289.500767 623.43322 
L 290.927877 622.649829 
L 292.354987 622.408785 
L 293.782097 622.04722 
L 295.209207 621.565133 
L 296.636317 621.203568 
L 298.063427 620.420177 
L 299.490537 619.456003 
L 303.771867 617.226351 
L 306.626087 615.298003 
L 308.053197 613.550438 
L 309.480307 612.224698 
L 310.907417 611.320785 
L 312.334527 610.055307 
L 315.188747 601.136698 
L 316.615857 600.353307 
L 318.042967 599.750698 
L 319.470077 599.569916 
L 322.324297 598.786524 
L 323.751407 598.605742 
L 325.178517 598.183916 
L 326.605627 597.942872 
L 328.032737 597.159481 
L 329.459847 597.159481 
L 330.886957 596.617133 
L 332.314066 596.37609 
L 333.741176 595.532438 
L 335.168286 594.929829 
L 336.595396 594.688785 
L 338.022506 594.32722 
L 339.449616 594.32722 
L 340.876726 594.025916 
L 342.303836 593.905394 
L 343.730946 593.483568 
L 345.158056 592.820698 
L 348.012276 591.916785 
L 349.439386 592.278351 
L 350.866496 591.55522 
L 352.293606 590.651307 
L 353.720716 590.591046 
L 356.574936 589.385829 
L 359.429156 588.662698 
L 360.856266 587.819046 
L 362.283376 586.493307 
L 366.564706 584.082872 
L 372.273146 581.310872 
L 373.700256 580.648003 
L 375.127366 580.286438 
L 376.554476 579.804351 
L 377.981586 578.960698 
L 379.408696 578.418351 
L 380.835806 578.177307 
L 382.262916 577.69522 
L 383.690026 576.911829 
L 386.544246 576.128438 
L 387.971355 575.405307 
L 389.398465 576.128438 
L 392.252685 574.862959 
L 395.106905 574.260351 
L 396.534015 574.079568 
L 397.961125 573.416698 
L 399.388235 573.115394 
L 400.815345 571.789655 
L 402.242455 570.885742 
L 403.669565 570.403655 
L 405.096675 569.499742 
L 407.950895 568.113742 
L 409.378005 566.908524 
L 410.805115 566.366177 
L 419.367775 562.509481 
L 420.794885 562.147916 
L 422.221995 561.304264 
L 423.649105 560.701655 
L 425.076215 559.858003 
L 426.503325 559.436177 
L 427.930435 558.472003 
L 429.357545 557.688611 
L 430.784655 556.001307 
L 432.211765 555.579481 
L 433.638875 555.037133 
L 435.065985 554.253742 
L 436.493095 553.952438 
L 437.920205 553.41009 
L 439.347315 553.108785 
L 440.774425 552.626698 
L 442.201535 551.542003 
L 445.055754 549.794438 
L 447.909974 546.901916 
L 449.337084 546.178785 
L 453.618414 542.081046 
L 456.472634 540.755307 
L 459.326854 539.068003 
L 460.753964 538.405133 
L 462.181074 537.320438 
L 463.608184 535.994698 
L 465.035294 535.151046 
L 467.889514 532.379046 
L 469.316624 530.993046 
L 470.743734 528.703133 
L 472.170844 524.605394 
L 475.025064 519.48322 
L 476.452174 516.892003 
L 477.879284 516.892003 
L 479.306394 518.76009 
L 480.733504 518.76009 
L 480.733504 518.76009 
" clip-path="url(#p2503a14276)" style="fill: none; stroke: #69a3a2; stroke-width: 2; stroke-linecap: square"/>
   </g>
   <g id="LineCollection_2">
    <path d="M 429.357545 846.398438 
L 429.357545 243.789742 
" clip-path="url(#p2503a14276)" style="fill: none; stroke-dasharray: 1.5,2.475; stroke-dashoffset: 0; stroke: #808080; stroke-width: 1.5"/>
   </g>
   <g id="patch_19">
    <path d="M 136.8 846.398438 
L 136.8 484.83322 
" style="fill: none; stroke: #000000; stroke-width: 0.8; stroke-linejoin: miter; stroke-linecap: square"/>
   </g>
   <g id="patch_20">
    <path d="M 500.713043 846.398438 
L 500.713043 484.83322 
" style="fill: none; stroke: #000000; stroke-width: 0.8; stroke-linejoin: miter; stroke-linecap: square"/>
   </g>
   <g id="patch_21">
    <path d="M 136.8 846.398438 
L 500.713043 846.398438 
" style="fill: none; stroke: #000000; stroke-width: 0.8; stroke-linejoin: miter; stroke-linecap: square"/>
   </g>
   <g id="patch_22">
    <path d="M 136.8 484.83322 
L 500.713043 484.83322 
" style="fill: none; stroke: #000000; stroke-width: 0.8; stroke-linejoin: miter; stroke-linecap: square"/>
   </g>
   <g id="text_42">
    <!-- Last update 2025-02-26 22:45:01 (UTC). -->
    <g transform="translate(5.4 955.519688) scale(0.066667 -0.066667)">
     <defs>
      <path id="DejaVuSans-4c" d="M 628 4666 
L 1259 4666 
L 1259 531 
L 3531 531 
L 3531 0 
L 628 0 
L 628 4666 
z
" transform="scale(0.015625)"/>
      <path id="DejaVuSans-2d" d="M 313 2009 
L 1997 2009 
L 1997 1497 
L 313 1497 
L 313 2009 
z
" transform="scale(0.015625)"/>
      <path id="DejaVuSans-3a" d="M 750 794 
L 1409 794 
L 1409 0 
L 750 0 
L 750 794 
z
M 750 3309 
L 1409 3309 
L 1409 2516 
L 750 2516 
L 750 3309 
z
" transform="scale(0.015625)"/>
      <path id="DejaVuSans-55" d="M 556 4666 
L 1191 4666 
L 1191 1831 
Q 1191 1081 1462 751 
Q 1734 422 2344 422 
Q 2950 422 3222 751 
Q 3494 1081 3494 1831 
L 3494 4666 
L 4128 4666 
L 4128 1753 
Q 4128 841 3676 375 
Q 3225 -91 2344 -91 
Q 1459 -91 1007 375 
Q 556 841 556 1753 
L 556 4666 
z
" transform="scale(0.015625)"/>
     </defs>
     <use xlink:href="#DejaVuSans-4c"/>
     <use xlink:href="#DejaVuSans-61" transform="translate(55.712891 0)"/>
     <use xlink:href="#DejaVuSans-73" transform="translate(116.992188 0)"/>
     <use xlink:href="#DejaVuSans-74" transform="translate(169.091797 0)"/>
     <use xlink:href="#DejaVuSans-20" transform="translate(208.300781 0)"/>
     <use xlink:href="#DejaVuSans-75" transform="translate(240.087891 0)"/>
     <use xlink:href="#DejaVuSans-70" transform="translate(303.466797 0)"/>
     <use xlink:href="#DejaVuSans-64" transform="translate(366.943359 0)"/>
     <use xlink:href="#DejaVuSans-61" transform="translate(430.419922 0)"/>
     <use xlink:href="#DejaVuSans-74" transform="translate(491.699219 0)"/>
     <use xlink:href="#DejaVuSans-65" transform="translate(530.908203 0)"/>
     <use xlink:href="#DejaVuSans-20" transform="translate(592.431641 0)"/>
     <use xlink:href="#DejaVuSans-32" transform="translate(624.21875 0)"/>
     <use xlink:href="#DejaVuSans-30" transform="translate(687.841797 0)"/>
     <use xlink:href="#DejaVuSans-32" transform="translate(751.464844 0)"/>
     <use xlink:href="#DejaVuSans-35" transform="translate(815.087891 0)"/>
     <use xlink:href="#DejaVuSans-2d" transform="translate(878.710938 0)"/>
     <use xlink:href="#DejaVuSans-30" transform="translate(914.794922 0)"/>
     <use xlink:href="#DejaVuSans-32" transform="translate(978.417969 0)"/>
     <use xlink:href="#DejaVuSans-2d" transform="translate(1042.041016 0)"/>
     <use xlink:href="#DejaVuSans-32" transform="translate(1078.125 0)"/>
     <use xlink:href="#DejaVuSans-36" transform="translate(1141.748047 0)"/>
     <use xlink:href="#DejaVuSans-20" transform="translate(1205.371094 0)"/>
     <use xlink:href="#DejaVuSans-32" transform="translate(1237.158203 0)"/>
     <use xlink:href="#DejaVuSans-32" transform="translate(1300.78125 0)"/>
     <use xlink:href="#DejaVuSans-3a" transform="translate(1364.404297 0)"/>
     <use xlink:href="#DejaVuSans-34" transform="translate(1398.095703 0)"/>
     <use xlink:href="#DejaVuSans-35" transform="translate(1461.71875 0)"/>
     <use xlink:href="#DejaVuSans-3a" transform="translate(1525.341797 0)"/>
     <use xlink:href="#DejaVuSans-30" transform="translate(1559.033203 0)"/>
     <use xlink:href="#DejaVuSans-31" transform="translate(1622.65625 0)"/>
     <use xlink:href="#DejaVuSans-20" transform="translate(1686.279297 0)"/>
     <use xlink:href="#DejaVuSans-28" transform="translate(1718.066406 0)"/>
     <use xlink:href="#DejaVuSans-55" transform="translate(1757.080078 0)"/>
     <use xlink:href="#DejaVuSans-54" transform="translate(1830.273438 0)"/>
     <use xlink:href="#DejaVuSans-43" transform="translate(1885.482422 0)"/>
     <use xlink:href="#DejaVuSans-29" transform="translate(1955.306641 0)"/>
     <use xlink:href="#DejaVuSans-2e" transform="translate(1994.320312 0)"/>
    </g>
    <!-- For questions, contact @GermanCoyote. -->
    <g transform="translate(5.4 962.984896) scale(0.066667 -0.066667)">
     <defs>
      <path id="DejaVuSans-71" d="M 947 1747 
Q 947 1113 1208 752 
Q 1469 391 1925 391 
Q 2381 391 2643 752 
Q 2906 1113 2906 1747 
Q 2906 2381 2643 2742 
Q 2381 3103 1925 3103 
Q 1469 3103 1208 2742 
Q 947 2381 947 1747 
z
M 2906 525 
Q 2725 213 2448 61 
Q 2172 -91 1784 -91 
Q 1150 -91 751 415 
Q 353 922 353 1747 
Q 353 2572 751 3078 
Q 1150 3584 1784 3584 
Q 2172 3584 2448 3432 
Q 2725 3281 2906 2969 
L 2906 3500 
L 3481 3500 
L 3481 -1331 
L 2906 -1331 
L 2906 525 
z
" transform="scale(0.015625)"/>
      <path id="DejaVuSans-40" d="M 2381 1678 
Q 2381 1231 2603 976 
Q 2825 722 3213 722 
Q 3597 722 3817 978 
Q 4038 1234 4038 1678 
Q 4038 2116 3813 2373 
Q 3588 2631 3206 2631 
Q 2828 2631 2604 2375 
Q 2381 2119 2381 1678 
z
M 4084 744 
Q 3897 503 3655 389 
Q 3413 275 3091 275 
Q 2553 275 2217 664 
Q 1881 1053 1881 1678 
Q 1881 2303 2218 2693 
Q 2556 3084 3091 3084 
Q 3413 3084 3656 2967 
Q 3900 2850 4084 2613 
L 4084 3022 
L 4531 3022 
L 4531 722 
Q 4988 791 5245 1139 
Q 5503 1488 5503 2041 
Q 5503 2375 5404 2669 
Q 5306 2963 5106 3213 
Q 4781 3622 4314 3839 
Q 3847 4056 3297 4056 
Q 2913 4056 2559 3954 
Q 2206 3853 1906 3653 
Q 1416 3334 1139 2817 
Q 863 2300 863 1697 
Q 863 1200 1042 765 
Q 1222 331 1563 0 
Q 1891 -325 2322 -495 
Q 2753 -666 3244 -666 
Q 3647 -666 4036 -530 
Q 4425 -394 4750 -141 
L 5031 -488 
Q 4641 -791 4180 -952 
Q 3719 -1113 3244 -1113 
Q 2666 -1113 2153 -908 
Q 1641 -703 1241 -313 
Q 841 78 631 592 
Q 422 1106 422 1697 
Q 422 2266 634 2781 
Q 847 3297 1241 3688 
Q 1644 4084 2172 4295 
Q 2700 4506 3291 4506 
Q 3953 4506 4520 4234 
Q 5088 3963 5472 3463 
Q 5706 3156 5829 2797 
Q 5953 2438 5953 2053 
Q 5953 1231 5456 756 
Q 4959 281 4084 263 
L 4084 744 
z
" transform="scale(0.015625)"/>
      <path id="DejaVuSans-47" d="M 3809 666 
L 3809 1919 
L 2778 1919 
L 2778 2438 
L 4434 2438 
L 4434 434 
Q 4069 175 3628 42 
Q 3188 -91 2688 -91 
Q 1594 -91 976 548 
Q 359 1188 359 2328 
Q 359 3472 976 4111 
Q 1594 4750 2688 4750 
Q 3144 4750 3555 4637 
Q 3966 4525 4313 4306 
L 4313 3634 
Q 3963 3931 3569 4081 
Q 3175 4231 2741 4231 
Q 1884 4231 1454 3753 
Q 1025 3275 1025 2328 
Q 1025 1384 1454 906 
Q 1884 428 2741 428 
Q 3075 428 3337 486 
Q 3600 544 3809 666 
z
" transform="scale(0.015625)"/>
     </defs>
     <use xlink:href="#DejaVuSans-46"/>
     <use xlink:href="#DejaVuSans-6f" transform="translate(53.894531 0)"/>
     <use xlink:href="#DejaVuSans-72" transform="translate(115.076172 0)"/>
     <use xlink:href="#DejaVuSans-20" transform="translate(156.189453 0)"/>
     <use xlink:href="#DejaVuSans-71" transform="translate(187.976562 0)"/>
     <use xlink:href="#DejaVuSans-75" transform="translate(251.453125 0)"/>
     <use xlink:href="#DejaVuSans-65" transform="translate(314.832031 0)"/>
     <use xlink:href="#DejaVuSans-73" transform="translate(376.355469 0)"/>
     <use xlink:href="#DejaVuSans-74" transform="translate(428.455078 0)"/>
     <use xlink:href="#DejaVuSans-69" transform="translate(467.664062 0)"/>
     <use xlink:href="#DejaVuSans-6f" transform="translate(495.447266 0)"/>
     <use xlink:href="#DejaVuSans-6e" transform="translate(556.628906 0)"/>
     <use xlink:href="#DejaVuSans-73" transform="translate(620.007812 0)"/>
     <use xlink:href="#DejaVuSans-2c" transform="translate(672.107422 0)"/>
     <use xlink:href="#DejaVuSans-20" transform="translate(703.894531 0)"/>
     <use xlink:href="#DejaVuSans-63" transform="translate(735.681641 0)"/>
     <use xlink:href="#DejaVuSans-6f" transform="translate(790.662109 0)"/>
     <use xlink:href="#DejaVuSans-6e" transform="translate(851.84375 0)"/>
     <use xlink:href="#DejaVuSans-74" transform="translate(915.222656 0)"/>
     <use xlink:href="#DejaVuSans-61" transform="translate(954.431641 0)"/>
     <use xlink:href="#DejaVuSans-63" transform="translate(1015.710938 0)"/>
     <use xlink:href="#DejaVuSans-74" transform="translate(1070.691406 0)"/>
     <use xlink:href="#DejaVuSans-20" transform="translate(1109.900391 0)"/>
     <use xlink:href="#DejaVuSans-40" transform="translate(1141.6875 0)"/>
     <use xlink:href="#DejaVuSans-47" transform="translate(1241.6875 0)"/>
     <use xlink:href="#DejaVuSans-65" transform="translate(1319.177734 0)"/>
     <use xlink:href="#DejaVuSans-72" transform="translate(1380.701172 0)"/>
     <use xlink:href="#DejaVuSans-6d" transform="translate(1420.064453 0)"/>
     <use xlink:href="#DejaVuSans-61" transform="translate(1517.476562 0)"/>
     <use xlink:href="#DejaVuSans-6e" transform="translate(1578.755859 0)"/>
     <use xlink:href="#DejaVuSans-43" transform="translate(1642.134766 0)"/>
     <use xlink:href="#DejaVuSans-6f" transform="translate(1711.958984 0)"/>
     <use xlink:href="#DejaVuSans-79" transform="translate(1773.140625 0)"/>
     <use xlink:href="#DejaVuSans-6f" transform="translate(1832.320312 0)"/>
     <use xlink:href="#DejaVuSans-74" transform="translate(1893.501953 0)"/>
     <use xlink:href="#DejaVuSans-65" transform="translate(1932.710938 0)"/>
     <use xlink:href="#DejaVuSans-2e" transform="translate(1994.234375 0)"/>
    </g>
   </g>
   <g id="legend_3">
    <g id="line2d_35">
     <path d="M 150.3 504.480876 
L 165.3 504.480876 
L 180.3 504.480876 
" style="fill: none; stroke: #005953; stroke-width: 2; stroke-linecap: square"/>
    </g>
    <g id="text_43">
     <!-- 2025 -->
     <g transform="translate(192.3 509.730876) scale(0.15 -0.15)">
      <use xlink:href="#DejaVuSans-32"/>
      <use xlink:href="#DejaVuSans-30" transform="translate(63.623047 0)"/>
      <use xlink:href="#DejaVuSans-32" transform="translate(127.246094 0)"/>
      <use xlink:href="#DejaVuSans-35" transform="translate(190.869141 0)"/>
     </g>
    </g>
    <g id="line2d_36">
     <path d="M 150.3 526.498064 
L 165.3 526.498064 
L 180.3 526.498064 
" style="fill: none; stroke: #69a3a2; stroke-width: 2; stroke-linecap: square"/>
    </g>
    <g id="text_44">
     <!-- 2024 -->
     <g transform="translate(192.3 531.748064) scale(0.15 -0.15)">
      <use xlink:href="#DejaVuSans-32"/>
      <use xlink:href="#DejaVuSans-30" transform="translate(63.623047 0)"/>
      <use xlink:href="#DejaVuSans-32" transform="translate(127.246094 0)"/>
      <use xlink:href="#DejaVuSans-34" transform="translate(190.869141 0)"/>
     </g>
    </g>
    <g id="line2d_37">
     <path d="M 150.3 548.515251 
L 180.3 548.515251 
" style="fill: none; stroke-dasharray: 1.5,2.475; stroke-dashoffset: 0; stroke: #808080; stroke-width: 1.5"/>
    </g>
    <g id="text_45">
     <!-- EF 2025 Begins -->
     <g transform="translate(192.3 553.765251) scale(0.15 -0.15)">
      <defs>
       <path id="DejaVuSans-45" d="M 628 4666 
L 3578 4666 
L 3578 4134 
L 1259 4134 
L 1259 2753 
L 3481 2753 
L 3481 2222 
L 1259 2222 
L 1259 531 
L 3634 531 
L 3634 0 
L 628 0 
L 628 4666 
z
" transform="scale(0.015625)"/>
       <path id="DejaVuSans-42" d="M 1259 2228 
L 1259 519 
L 2272 519 
Q 2781 519 3026 730 
Q 3272 941 3272 1375 
Q 3272 1813 3026 2020 
Q 2781 2228 2272 2228 
L 1259 2228 
z
M 1259 4147 
L 1259 2741 
L 2194 2741 
Q 2656 2741 2882 2914 
Q 3109 3088 3109 3444 
Q 3109 3797 2882 3972 
Q 2656 4147 2194 4147 
L 1259 4147 
z
M 628 4666 
L 2241 4666 
Q 2963 4666 3353 4366 
Q 3744 4066 3744 3513 
Q 3744 3084 3544 2831 
Q 3344 2578 2956 2516 
Q 3422 2416 3680 2098 
Q 3938 1781 3938 1306 
Q 3938 681 3513 340 
Q 3088 0 2303 0 
L 628 0 
L 628 4666 
z
" transform="scale(0.015625)"/>
      </defs>
      <use xlink:href="#DejaVuSans-45"/>
      <use xlink:href="#DejaVuSans-46" transform="translate(63.183594 0)"/>
      <use xlink:href="#DejaVuSans-20" transform="translate(120.703125 0)"/>
      <use xlink:href="#DejaVuSans-32" transform="translate(152.490234 0)"/>
      <use xlink:href="#DejaVuSans-30" transform="translate(216.113281 0)"/>
      <use xlink:href="#DejaVuSans-32" transform="translate(279.736328 0)"/>
      <use xlink:href="#DejaVuSans-35" transform="translate(343.359375 0)"/>
      <use xlink:href="#DejaVuSans-20" transform="translate(406.982422 0)"/>
      <use xlink:href="#DejaVuSans-42" transform="translate(438.769531 0)"/>
      <use xlink:href="#DejaVuSans-65" transform="translate(507.373047 0)"/>
      <use xlink:href="#DejaVuSans-67" transform="translate(568.896484 0)"/>
      <use xlink:href="#DejaVuSans-69" transform="translate(632.373047 0)"/>
      <use xlink:href="#DejaVuSans-6e" transform="translate(660.15625 0)"/>
      <use xlink:href="#DejaVuSans-73" transform="translate(723.535156 0)"/>
     </g>
    </g>
   </g>
   <g id="line2d_38">
    <path d="M 96.840921 846.157394 
L 98.268031 846.157394 
L 99.695141 828.018872 
L 101.122251 825.849481 
L 102.549361 825.367394 
L 103.976471 824.945568 
L 105.403581 824.523742 
L 106.830691 824.463481 
L 108.257801 824.463481 
L 109.68491 824.463481 
L 111.11202 824.342959 
L 112.53913 824.342959 
L 113.96624 824.282698 
L 115.39335 824.101916 
L 116.82046 824.101916 
L 118.24757 823.981394 
L 119.67468 823.921133 
L 121.10179 823.68009 
L 122.5289 823.68009 
L 123.95601 823.378785 
L 125.38312 823.258264 
L 126.81023 823.198003 
L 128.23734 823.137742 
L 129.66445 823.137742 
L 131.09156 823.137742 
L 132.51867 823.137742 
L 133.94578 822.896698 
L 135.37289 822.29409 
L 136.8 822.053046 
L 138.22711 821.992785 
L 139.65422 821.872264 
L 141.08133 821.751742 
L 142.50844 821.691481 
L 143.93555 721.658438 
L 145.36266 695.625742 
L 146.78977 688.816264 
L 148.21688 684.41722 
L 149.64399 681.886264 
L 151.0711 679.114264 
L 152.49821 675.739655 
L 153.92532 673.148438 
L 155.35243 669.773829 
L 156.77954 666.278698 
L 158.20665 660.915481 
L 159.63376 656.094611 
" clip-path="url(#p2503a14276)" style="fill: none; stroke: #005953; stroke-width: 2; stroke-linecap: square"/>
   </g>
  </g>
 </g>
 <defs>
  <clipPath id="p98ac7907cc">
   <rect x="136.8" y="14.798438" width="363.913043" height="361.565217"/>
  </clipPath>
  <clipPath id="pea09b6fead">
   <rect x="609.886957" y="14.798438" width="363.913043" height="361.565217"/>
  </clipPath>
  <clipPath id="p2503a14276">
   <rect x="136.8" y="484.83322" width="363.913043" height="361.565217"/>
  </clipPath>
 </defs>
</svg>
